<?xml version="1.0" encoding="utf-8"?>
<!-- Generator: Adobe Illustrator 19.0.0, SVG Export Plug-In . SVG Version: 6.00 Build 0)  -->
<svg version="1.1" id="Layer_1" xmlns="http://www.w3.org/2000/svg" xmlns:xlink="http://www.w3.org/1999/xlink" x="0px" y="0px"
	 viewBox="-740.4 235.3 67.4 47.8" style="enable-background:new -740.4 235.3 67.4 47.8;" xml:space="preserve">
<style type="text/css">
	.st0{fill:#330066;}
	.st1{fill:#458E23;}
</style>
<g>
	<path class="st0" d="M-714.6,256.8c-0.4,0.4-0.9,0.9-1.5,1.4c-0.6,0.5-1.1,1-1.7,1.5s-1.1,0.9-1.7,1.2s-0.9,0.5-1.3,0.5
		c-0.3,0-0.6-0.2-1-0.6s-0.7-0.8-1.1-1.3s-0.8-0.9-1.3-1.3c-0.5-0.4-1-0.6-1.5-0.6c-1.1,0-2,0.4-2.8,1.1c-0.8,0.7-1.5,1.7-2.1,2.8
		c-0.6,1.1-1,2.4-1.3,3.8s-0.4,2.8-0.4,4.2c0,1.3,0.1,2.4,0.3,3.4s0.5,1.8,0.9,2.5s0.8,1.2,1.3,1.6c0.5,0.4,1.1,0.5,1.7,0.5
		c1.1,0,2.3-0.4,3.8-1.2c1.5-0.8,3.3-2,5.4-3.7c0.1,0.1,0.2,0.2,0.3,0.5c0.1,0.2,0.3,0.4,0.4,0.6c0.2,0.2,0.3,0.4,0.4,0.6
		c0.1,0.2,0.2,0.3,0.2,0.4c-1.5,1.4-2.9,2.6-4.2,3.5c-1.3,0.9-2.4,1.7-3.5,2.3s-2.1,1-3,1.2s-1.8,0.4-2.7,0.4
		c-0.8,0-1.7-0.2-2.7-0.5s-1.9-0.9-2.7-1.7c-0.8-0.8-1.5-1.9-2.1-3.3c-0.5-1.4-0.8-3.1-0.8-5.1c0-1.3,0.1-2.6,0.4-4
		c0.3-1.3,0.7-2.7,1.3-3.9s1.4-2.5,2.4-3.7c1-1.2,2.2-2.2,3.6-3.2c0.5-0.4,1.2-0.7,1.9-1.1c0.7-0.4,1.5-0.7,2.3-1s1.7-0.6,2.5-0.8
		c0.9-0.2,1.7-0.3,2.5-0.3c0.9,0,1.6,0.1,2.3,0.4c0.7,0.3,1.3,0.6,1.9,1c0.6,0.4,1.1,0.7,1.6,1.1
		C-715.7,256.4-715.2,256.7-714.6,256.8z"/>
	<path class="st0" d="M-682.8,273.9c0-4.7-0.2-8.5-0.6-11.3l0.1-0.2c1.9,0,3.6,0,4.9,0h4.4l0.1,0.2c-0.4,2.6-0.6,6-0.6,10.1
		c0,1.7,0.2,2.7,0.6,3.2v0.2c-2,1.7-4.6,3-7.8,4s-6.5,1.4-10,1.4c-5.4,0-9.7-1.2-13.1-3.5c-2.6-1.8-4.6-4-6.1-6.8
		c-1.5-2.8-2.2-5.7-2.2-8.8c0-3.4,0.6-6.5,1.8-9.3c1.2-2.8,2.9-5,5.2-6.8c4.2-3.3,9.3-5,15.4-5c1.4,0,2.8,0.1,4.3,0.3
		c1.5,0.2,2.8,0.4,4,0.7s2.2,0.5,3.1,0.8c0.9,0.3,1.7,0.5,2.2,0.7l0.8,0.3l0.1,0.2c-0.6,2.7-1,5.3-1.2,7.8h-1.8
		c-0.8-1.6-1.9-2.9-3.2-4.1c-1.4-1.1-2.8-2-4.3-2.5c-1.5-0.5-3.1-0.8-4.7-0.8c-3.9,0-6.9,1.5-9,4.5s-3.1,7-3.1,12c0,2,0.3,4,1,6
		s1.5,3.8,2.7,5.4s2.5,3,4.2,4s3.6,1.5,5.5,1.5c1.8,0,3.2-0.2,4.4-0.5s2.2-0.9,3.2-1.8V273.9z"/>
</g>
<g id="XMLID_1_">
	<path id="XMLID_2_" class="st1" d="M-716.8,251.6c-5.8,1.6-10.6-1.2-12.3-2.3c1-0.2,2-0.6,3.3-1c2.3,0.8,9.4,2.9,14.5-0.5
		c0,0-5.1,3.2-14.2,0.3c1.1-0.4,2.1-0.8,3.1-1.4c5.9,1,10.4,0,13.3-1.7c3.9-2.3,5.7-3.7,5.7-3.7c-1.6,0.8-3.2,2.3-7.9,4.3
		c-3.8,1.6-8.6,1.1-10.7,0.8c0.5-0.3,1.1-0.7,1.6-1.1l0,0l0.1-0.1c9.1-6.4,14.5-5.5,14.5-5.5s-5.9-1.6-14.3,3.7
		c-1.6,1-3.5,1.9-5.3,2.5c0.8-1.4,2.8-4.3,6.7-6.1c5.3-2.6,11.7-1.2,11.7-1.2s-7.7-2.1-13.7,1.9c-3.6,2.4-5.1,4.8-5.7,5.8
		c-1,0.3-1.8,0.6-2.7,0.7c0-1.4,0.3-5.2,2.7-7.4c3.1-2.7,8.1-3.2,8.1-3.2s-11.7,0.1-11.3,10.7c-2.4,0.6-4.4,0.8-5.9,1
		c-0.6,0.1-1.3-0.6-0.9-0.9l0,0c0.2-0.2,0.4-0.3,0.8-0.3l0,0c2.1-0.2,3.4-1.6,3.3-3.2c-0.9-10,16.4-8.4,21.3-6.8
		c5.3,1.7,13.3,2.5,13.3,2.5C-703.3,239.5-709.5,249.5-716.8,251.6z"/>
</g>
</svg>
