<?xml version="1.0" encoding="utf-8"?>
<!-- Generator: Adobe Illustrator 19.0.0, SVG Export Plug-In . SVG Version: 6.00 Build 0)  -->
<svg version="1.1" id="Layer_1" xmlns="http://www.w3.org/2000/svg" xmlns:xlink="http://www.w3.org/1999/xlink" x="0px" y="0px"
	 viewBox="-25 143 1507.7 236" style="enable-background:new -25 143 1507.7 236;" xml:space="preserve">
<style type="text/css">
	.st0{clip-path:url(#SVGID_2_);}
	.st1{fill:#458E23;}
	.st2{fill:#FFF8E7;}
</style>
<g id="XMLID_1_">
	<g>
		<defs>
			<polyline id="SVGID_1_" points="-24,143 1480,143 1480,379 -24,379 			"/>
		</defs>
		<clipPath id="SVGID_2_">
			<use xlink:href="#SVGID_1_"  style="overflow:visible;"/>
		</clipPath>
		<g id="XMLID_5_" class="st0">
			<path id="XMLID_6_" class="st1" d="M68.3,228.3c-1.6,1.1-3.2,2.3-5,3.6c-1.8,1.3-3.5,2.4-5.1,3.4s-3.2,1.9-4.7,2.5s-2.7,1-3.6,1
				c-0.8,0-1.8-0.6-3-1.9c-1.2-1.3-2.6-2.7-4.2-4.3s-3.4-3-5.4-4.3c-2-1.3-4.2-1.9-6.6-1.9c-3.4,0-6.6,0.8-9.4,2.5
				c-2.8,1.6-5.4,3.9-7.7,6.6c-2.3,2.8-4.4,6-6.1,9.6c-1.8,3.6-3.2,7.4-4.4,11.3c-1.2,3.9-2,7.9-2.6,11.8c-0.6,4-0.9,7.7-0.9,11.2
				c0,4.9,0.5,9.2,1.6,13.1c1.1,3.9,2.6,7.2,4.5,9.9c1.9,2.7,4.3,4.8,7,6.3s5.7,2.2,8.9,2.2c1.3,0,3.1-0.2,5.2-0.7
				c2.1-0.4,4.5-1.3,7.2-2.5c2.7-1.2,5.8-2.9,9.2-5c3.4-2.1,7.1-4.8,11.1-8.1c0.6,0.8,1.2,1.6,1.9,2.5c0.7,0.8,1.2,1.5,1.6,2.1
				c-5.8,5.3-11.1,9.6-15.7,12.9c-4.6,3.3-8.9,5.8-12.6,7.5c-3.8,1.8-7.2,2.9-10.2,3.5c-3,0.6-5.9,0.9-8.6,0.9
				c-2.5,0-5.4-0.6-8.5-1.9s-6.1-3.5-8.9-6.6c-2.8-3.1-5.2-7.3-7.1-12.6c-2.3-4.9-3.2-11.5-3.2-19.3c0-5,0.5-10.2,1.6-15.5
				c1-5.3,2.8-10.6,5.1-15.7c2.4-5.1,5.4-10,9.2-14.6c3.8-4.6,8.4-8.8,14-12.5c2.1-1.3,4.4-2.7,7-3.9c2.5-1.3,5.2-2.4,7.9-3.4
				s5.4-1.8,8.1-2.4c2.7-0.6,5.1-0.9,7.5-0.9c3.3,0,6.2,0.6,8.8,1.9c2.6,1.3,4.9,2.7,6.9,4.3c2,1.6,3.8,3.1,5.3,4.6
				C65.9,227,67.2,227.9,68.3,228.3z"/>
			<path id="XMLID_8_" class="st1" d="M162.3,312.1c-6.5,4.3-11.8,7.4-15.8,9.3c-4,1.9-7.1,2.9-9.3,2.9c-1.3,0-2.6-0.5-3.9-1.4
				c-1.2-0.9-2.3-2.7-3.3-5.3s-1.7-6.2-2.3-10.7c-0.6-4.6-0.8-10.5-0.8-17.7c-1.9,3.4-4.3,7.2-7.1,11.3c-2.8,4.1-5.8,7.9-9,11.5
				c-3.2,3.6-6.5,6.5-9.9,8.9c-3.4,2.4-6.7,3.5-9.8,3.5c-2.5,0-5.1-0.7-7.9-2.1c-2.8-1.4-5.4-3.7-7.7-6.8c-2.4-3.1-4.3-7.1-5.9-12
				s-2.4-10.9-2.4-17.9c0-5.9,0.7-11.7,2.1-17.3c1.4-5.6,3.5-11,6.2-16.2c2.8-5.2,6.2-10,10.2-14.5s8.7-8.6,14-12.2
				c2-1.3,4.2-2.7,6.7-3.9c2.4-1.3,4.9-2.4,7.5-3.4s5.1-1.8,7.7-2.4c2.5-0.6,5-0.9,7.3-0.9c1.6,0,3.1,0.2,4.6,0.6
				c1.5,0.4,3,1,4.4,1.6c1.4,0.7,2.8,1.4,4,2.2c1.3,0.8,2.5,1.6,3.6,2.3c1.7-1.3,3.6-2.5,5.5-3.6c1.9-1.1,3.9-2.2,6-3.1l2.2,3.9
				c-1.3,1-2.3,2-3.1,2.8c-0.8,0.8-1.6,1.8-2.2,2.9c-0.6,1.1-1.2,2.4-1.6,4c-0.4,1.6-0.9,3.6-1.5,6.2c-1.1,5.4-2.2,10.9-3.2,16.5
				s-1.9,11-2.6,16c-0.7,5-1.3,9.4-1.7,13.2c-0.4,3.8-0.6,6.5-0.6,8.2c0,4.3,0.1,7.9,0.4,10.8c0.3,2.9,0.6,5.3,1.1,7
				c0.4,1.8,1,3,1.7,3.8s1.5,1.2,2.4,1.2c1.5,0,3.3-0.2,5.3-0.6c2.1-0.4,4.6-1.3,7.6-2.5L162.3,312.1z M128.7,271.3
				c0.5-3.4,1.1-6.9,1.7-10.5c0.6-3.6,1.3-7.1,1.9-10.5c0.6-3.4,1.2-6.5,1.7-9.3s0.9-5,1.2-6.7c-1.1-0.9-2.4-1.8-3.7-2.8
				c-1.3-0.9-2.8-1.8-4.3-2.6c-1.5-0.8-3.1-1.4-4.8-1.9s-3.4-0.7-5.2-0.7c-3.4,0-6.7,0.8-9.7,2.5s-5.8,3.9-8.4,6.7
				c-2.6,2.8-4.9,5.9-7,9.5s-3.8,7.2-5.2,11c-1.4,3.8-2.5,7.5-3.3,11.2c-0.8,3.7-1.2,7-1.2,9.9c0,4.9,0.4,9.2,1.2,13.1
				c0.8,3.9,1.9,7.2,3.4,10c1.4,2.8,3.1,4.9,5.1,6.4c1.9,1.5,4,2.2,6.3,2.2c1.8,0,4-1.1,6.6-3.4c2.6-2.3,5.3-5.2,8.1-8.9
				c2.8-3.6,5.6-7.7,8.4-12.1C124.1,280.1,126.6,275.7,128.7,271.3z"/>
			<path id="XMLID_11_" class="st1" d="M247.2,224.3c-0.9,1.2-1.9,2.7-3,4.4c-1.1,1.7-2.2,3.4-3.3,5c-1.1,1.6-2.1,3-3.1,4.1
				s-1.8,1.7-2.6,1.7c-1.4,0-2.6-0.4-3.6-1.2s-1.9-1.7-2.8-2.6c-0.9-0.9-1.7-1.8-2.6-2.6c-0.9-0.8-1.9-1.2-3-1.2
				c-1.9,0-4.2,1.3-6.8,4s-5.2,6.1-7.7,10.4c-2.6,4.3-5.1,9.1-7.4,14.5c-2.4,5.4-4.3,10.7-5.9,16.1c-0.8,2.8-1.6,6-2.2,9.4
				c-0.6,3.4-1.2,6.9-1.7,10.5c-0.5,3.6-0.8,7.1-1.1,10.6s-0.3,6.7-0.1,9.7c-1,0.5-2.2,1.1-3.6,1.7c-1.5,0.6-3,1.3-4.5,2
				c-1.5,0.7-3,1.3-4.4,2c-1.4,0.6-2.6,1.2-3.5,1.7l-3.7-3.5c1.1-5.3,2.2-10.8,3.3-16.5c1-5.7,2-11.4,3-17
				c0.9-5.7,1.8-11.2,2.6-16.6s1.5-10.4,2-15c0.6-4.6,1-8.8,1.3-12.5c0.3-3.7,0.5-6.6,0.5-8.9c0-1.7-0.1-3.1-0.4-4.1
				c-0.3-1-0.6-1.8-1-2.2c-0.4-0.5-0.9-0.8-1.5-1c-0.6-0.1-1.1-0.2-1.7-0.2c-0.7,0-1.8,0.1-3,0.4c-1.3,0.3-2.5,0.6-3.8,1
				c-1.5,0.4-3.1,0.8-4.7,1.3l-1.6-4.2c3.1-1.4,6.3-2.8,9.5-4.1c3.2-1.3,6.2-2.5,8.9-3.4c2.8-1,5.2-1.8,7.2-2.4
				c2.1-0.6,3.5-0.9,4.4-0.9c1,0,1.9,0.2,2.5,0.6c0.6,0.4,1,1,1.3,2c0.3,0.9,0.4,2.2,0.5,3.9c0.1,1.7,0.1,3.8,0.1,6.5
				c0,0.8-0.1,2.2-0.3,4.2c-0.2,1.9-0.5,4.1-0.8,6.3c-0.3,2.3-0.6,4.5-1,6.8s-0.6,4.1-0.8,5.5c3.6-7.4,7-13.4,10.2-18.1
				c3.2-4.6,6.3-8.3,9.2-10.9s5.6-4.4,8.3-5.3c2.6-0.9,5.1-1.4,7.5-1.4c1.3,0,2.6,0.4,3.6,1.1c1.1,0.7,2.2,1.6,3.3,2.7
				c1.1,1,2.3,2.1,3.6,3.2C244.1,222.7,245.6,223.6,247.2,224.3z"/>
			<path id="XMLID_13_" class="st1" d="M335.3,251.3c-0.2,7.9-1.3,15.9-3.5,24c-2.2,8-6,15.8-11.4,23.4c-2.5,3.4-5.4,6.6-8.5,9.7
				s-6.5,5.8-10.2,8.2c-3.7,2.4-7.6,4.2-11.8,5.7c-4.2,1.4-8.6,2.1-13.4,2.1c-1.6,0-3.3-0.4-5.2-1.2c-1.9-0.8-3.9-1.9-5.8-3.3
				c-2-1.4-3.9-3.1-5.8-4.9c-1.9-1.9-3.6-3.9-5.1-6s-2.6-4.4-3.5-6.7c-0.9-2.3-1.3-4.6-1.3-6.9c0-1.9,0.2-5,0.7-9.2
				s1.1-9.1,1.9-14.7c0.8-5.6,1.7-11.7,2.7-18.3s2-13.3,3-20.2s2-13.6,3-20.3c1-6.7,1.9-12.9,2.7-18.7c0.8-5.8,1.4-10.9,1.9-15.3
				s0.7-7.8,0.7-10.1c0-1.7-0.2-3.1-0.6-4.1s-0.9-1.8-1.5-2.2c-0.6-0.5-1.2-0.8-1.9-1c-0.7-0.1-1.3-0.2-2-0.2s-1.6,0.2-2.9,0.5
				c-1.3,0.3-2.5,0.7-3.8,1.1c-1.4,0.4-3,0.9-4.6,1.5l-1.5-4.4c3.1-1.4,6.4-2.8,9.7-4c3.3-1.3,6.4-2.4,9.3-3.4s5.4-1.8,7.6-2.4
				c2.2-0.6,3.7-0.9,4.6-0.9c2.1,0,3.5,0.7,4.3,2c0.8,1.4,1.2,3.8,1.2,7.2c0,2.3-0.2,5.4-0.6,9.2s-0.9,8.1-1.5,12.9
				s-1.4,10.1-2.2,15.7c-0.9,5.7-1.8,11.5-2.7,17.5c-0.9,6-1.9,12-2.8,18.1c-0.9,6.1-1.9,12-2.8,17.7c3.8-6.4,7.8-11.9,11.8-16.3
				c4.1-4.4,8-8,11.8-10.7s7.4-4.7,10.7-5.9c3.3-1.2,6.2-1.8,8.5-1.8c2.9,0,5.7,0.8,8.2,2.4s4.7,3.9,6.6,7c1.8,3.1,3.3,6.9,4.3,11.4
				C334.9,240.1,335.3,245.4,335.3,251.3z M303.7,229.5c-1.4,0-3.5,0.9-6.2,2.8c-2.7,1.8-5.7,4.4-8.9,7.7c-3.3,3.3-6.6,7.3-10,11.8
				c-3.4,4.5-6.5,9.5-9.3,14.9c-0.8,5.4-1.4,10.2-1.9,14.4c-0.4,4.2-0.6,7.5-0.6,9.8c0,1.9,0.6,4,1.7,6.3c1.2,2.2,2.7,4.3,4.7,6.2
				c1.9,1.9,4.1,3.5,6.6,4.7c2.4,1.2,5,1.9,7.6,1.9c2.7,0,5.2-0.5,7.5-1.5s4.5-2.2,6.5-3.8c2-1.5,3.8-3.3,5.3-5.2s3-3.8,4.2-5.7
				c1.7-2.7,3.1-5.5,4.2-8.4c1-2.9,1.9-5.8,2.5-8.8c0.6-2.9,1-5.8,1.2-8.6s0.3-5.5,0.3-8c0-5.2-0.5-9.7-1.4-13.5
				c-0.9-3.9-2.1-7.1-3.6-9.6s-3.1-4.4-4.9-5.7C307.3,230.1,305.5,229.5,303.7,229.5z"/>
			<path id="XMLID_16_" class="st1" d="M430.1,256.9c0,5-0.6,10.1-1.7,15.2s-2.8,10.1-4.9,14.9c-2.2,4.8-4.8,9.4-8,13.8
				c-3.2,4.4-6.9,8.3-11.1,11.7c-1.9,1.6-4,3.1-6.2,4.5s-4.4,2.7-6.6,3.8c-2.2,1.1-4.5,1.9-6.9,2.5c-2.3,0.6-4.6,0.9-6.9,0.9
				c-5.2,0-9.9-1.1-14-3.3s-7.5-5.2-10.3-9.1c-2.8-3.9-4.9-8.4-6.4-13.7c-1.5-5.3-2.2-11-2.2-17.1c0-5.4,0.4-10.6,1.3-15.6
				s2.4-9.8,4.4-14.4s4.7-9.1,8.1-13.4c3.4-4.3,7.5-8.4,12.5-12.4c3.8-3,8-5.5,12.6-7.6c4.6-2.1,9.2-3.1,13.8-3.1
				c5.8,0,10.8,1,14.9,3.1c4.1,2.1,7.5,5,10.1,8.8c2.6,3.7,4.5,8.2,5.7,13.4S430.1,250.7,430.1,256.9z M413.9,263.1
				c0-11.5-2.1-20.2-6.3-26.3c-4.2-6.1-10.1-9.1-17.8-9.1c-5.4,0-9.9,1.6-13.6,4.7c-3.7,3.1-6.6,7-8.9,11.7
				c-2.2,4.7-3.8,9.8-4.8,15.3s-1.5,10.7-1.5,15.4c0,5,0.6,9.8,1.8,14.2c1.2,4.5,2.9,8.3,5.2,11.7c2.2,3.3,4.8,6,7.7,7.9
				c3,1.9,6.1,2.9,9.6,2.9c3.4,0,6.5-0.8,9.2-2.3s5.2-3.6,7.3-6.2c2.1-2.6,3.9-5.5,5.4-8.9c1.5-3.3,2.7-6.8,3.7-10.4
				c1-3.6,1.7-7.2,2.1-10.8C413.7,269.5,413.9,266.2,413.9,263.1z"/>
			<path id="XMLID_19_" class="st1" d="M539.9,311.6c-6.8,4-12.6,7.2-17.4,9.4c-4.8,2.2-8.6,3.3-11.4,3.3c-2.6,0-4.7-1.2-6.1-3.5
				c-1.4-2.3-2.2-5.6-2.2-9.6c0-1.3,0.2-3.8,0.7-7.2c0.5-3.5,1.1-7.5,1.9-12.2c0.7-4.6,1.6-9.6,2.5-14.8s1.7-10.2,2.5-14.9
				c0.7-4.7,1.4-8.9,1.9-12.7c0.5-3.7,0.7-6.5,0.7-8.2c0-5.7-0.6-9.7-1.8-11.9s-3.4-3.4-6.7-3.4c-1,0-2.7,0.6-5.1,1.8
				c-2.4,1.2-5.2,3-8.3,5.4s-6.3,5.4-9.6,9c-3.3,3.6-6.4,7.8-9.2,12.6c-2.1,3.6-3.8,7.9-5.1,12.9c-1.3,5-2.6,11.2-3.9,18.4
				c-1.2,6.7-2,12.4-2.3,17.2c-0.3,4.8-0.4,9.4-0.3,13.8c-1,0.5-2.2,1.1-3.6,1.7c-1.5,0.6-3,1.3-4.5,2c-1.5,0.7-3,1.3-4.4,2
				c-1.4,0.6-2.6,1.2-3.5,1.7l-3.7-3.5c1-4.9,2.1-10.3,3.1-16.1s2-11.5,2.9-17.4c0.9-5.8,1.8-11.5,2.6-17.2
				c0.8-5.7,1.5-10.9,2.1-15.6c0.6-4.8,1.1-8.9,1.4-12.5c0.3-3.6,0.5-6.3,0.5-8c0-1.7-0.1-3.1-0.3-4.1c-0.2-1-0.4-1.8-0.8-2.2
				c-0.3-0.5-0.8-0.8-1.3-1c-0.5-0.1-1.1-0.2-1.8-0.2s-1.7,0.2-3,0.4c-1.3,0.3-2.6,0.6-4,1c-1.6,0.4-3.3,0.9-5.1,1.5l-1.6-4.4
				c3.1-1.3,6.3-2.7,9.5-3.9c3.2-1.3,6.2-2.4,8.9-3.4c2.8-1,5.2-1.8,7.2-2.4c2.1-0.6,3.5-0.9,4.4-0.9c1,0,1.9,0.2,2.5,0.5
				s1,1,1.3,1.9c0.3,0.9,0.4,2.2,0.5,3.8c0.1,1.6,0.1,3.8,0.1,6.5c0,0.8,0,1.9-0.1,3.4c-0.1,1.4-0.2,2.9-0.3,4.5
				c-0.1,1.6-0.2,3.2-0.4,4.7c-0.2,1.5-0.3,2.8-0.3,3.6c4-5.1,8.1-9.5,12.2-13.1c4.1-3.7,8.2-6.7,12.1-9c4-2.4,7.8-4.1,11.5-5.2
				s7.2-1.6,10.6-1.6c2.3,0,4.4,0.3,6.2,1c1.8,0.7,3.3,1.8,4.5,3.3s2.1,3.6,2.8,6.1c0.6,2.5,1,5.6,1,9.2c0,2.6-0.2,5.9-0.7,9.8
				s-1.1,8.1-1.9,12.6c-0.7,4.5-1.6,9.2-2.5,14s-1.7,9.4-2.5,13.7c-0.7,4.3-1.4,8.3-1.9,11.8c-0.5,3.6-0.7,6.4-0.7,8.5
				c0,2.5,0.3,4.3,1,5.2s1.7,1.4,3,1.4c1.7,0,3.7-0.3,6-0.9c2.2-0.6,4.9-1.5,8.1-2.8L539.9,311.6z"/>
			<path id="XMLID_21_" class="st2" d="M661.7,292.8c-0.4-21.2-1.2-35.7-2.2-43.7l0.4-0.7c2.5,0.3,6.4,0.5,11.7,0.5
				c2.4,0,4.6,0,6.6,0s3.4-0.1,4.2-0.3l1.2-0.2l0.2,0.7c-1.6,10.7-2.4,23.7-2.4,39.1v1.5c0,5.4,0.8,9.1,2.4,11v0.7
				C667.4,315.1,647,322,622.6,322c-11.2,0-21.6-2-31.1-6.1s-17.4-9.6-23.6-16.5c-6.3-6.9-11.2-14.9-14.7-24s-5.2-18.6-5.2-28.5
				c0-9.8,1.5-19,4.5-27.5s7.1-15.9,12.4-22c5.2-6.1,11.2-11.4,18.1-15.8c6.9-4.4,14.1-7.7,21.8-9.9s15.5-3.3,23.5-3.3
				c5.2,0,10.6,0.4,16.2,1.1c5.5,0.6,10.4,1.5,14.5,2.5s7.9,2,11.3,3.1c3.4,1,6,1.9,7.7,2.7l2.7,1l0.4,0.7
				c-2.5,10.7-4.1,20-4.6,27.9l-2.2,0.2c-5.2-8.8-12.1-15.8-20.8-20.8s-18.2-7.5-28.4-7.5c-15.7,0-28.6,5.9-38.5,17.7
				c-10,11.8-14.9,27.7-14.9,47.5c0,6.3,0.6,12.5,1.9,18.6c1.2,6.1,3.3,12.1,6.2,18s6.4,11.1,10.6,15.5c4.2,4.4,9.5,8,16,10.7
				c6.5,2.7,13.6,4.1,21.5,4.1c16.3,0,27.6-2.9,33.8-8.8V292.8z"/>
			<path id="XMLID_23_" class="st2" d="M695.8,220.3c2.2,0.4,6.2,0.7,12,0.7c5.5,0,9.2-0.2,11.2-0.7l2.7,8l2.7,7.6l2.9,8.1l2.9,7.5
				l3.3,8.2l3,7.5c0.4,1.3,1.6,4,3.4,8.3l3.1,7.6l3.4,8.4l3.4,8h0.4c10-21.2,20-47.6,30.2-79.3c1.5,0.4,4.5,0.7,9,0.7
				c5.1,0,8.4-0.2,9.9-0.7c-6.4,12.8-18.1,38.5-35.3,77.2c-17.1,38.7-27.6,64.2-31.4,76.6c-2.5-0.7-6.2-1.1-11.2-1.1
				c-2.9,0-5.6,0.4-8.1,1.1c10.9-18,19.9-35.4,27.2-52.2c-1.9-5.1-5.1-12.8-9.5-23l-12.1-27.5L705.1,241
				C699.6,228.8,696.5,221.9,695.8,220.3z"/>
			<path id="XMLID_25_" class="st2" d="M836.7,242.9l0.7,0.4c5.3-9.2,10-15.6,14.1-19.2s9.1-5.4,15.1-5.4c1,0,1.9,0,2.6,0.1
				c0.7,0.1,1.2,0.2,1.5,0.2c0.3,0.1,0.9,0.3,1.9,0.6c0.9,0.3,1.7,0.5,2.3,0.7l0.9,0.9l-4.6,17.1l-1.8,0.4c-2.3-2.2-6.3-3.3-12-3.3
				c-2.2,0-4.5,0.7-6.9,2.1c-2.3,1.4-4.3,3.4-6,6c-2.8,4.3-4.8,8.1-6,11.3c-1.2,3.2-1.9,7-1.9,11.5v11.9c0,17.1,0.7,31,2,41.4
				l-0.4,0.7c-2.8-0.4-6.4-0.7-10.8-0.7c-4.3,0-7.9,0.2-10.8,0.7l-0.4-0.7c1.3-9.3,2-23.1,2-41.4v-12.6c0-21.3-0.7-36.2-2-44.7
				l0.4-0.7c6.5,0.7,12.7,0.4,18.6-0.7c0.9,0,1.3,0.8,1.3,2.4v21H836.7z"/>
			<path id="XMLID_27_" class="st2" d="M881,272.5c0-16.3,4.5-29.4,13.5-39.1c9-9.8,21.1-14.7,36.1-14.7c15.3,0,27.1,4.6,35.4,13.9
				c8.3,9.3,12.5,21.9,12.5,37.8c0,15.3-4.4,27.7-13.1,37.2c-8.8,9.5-20.6,14.3-35.6,14.3c-14.9,0-26.7-4.7-35.5-14
				C885.4,298.6,881,286.8,881,272.5z M929.1,228c-4.2,0-7.9,0.8-11.2,2.4c-3.3,1.6-5.9,3.6-8,6.2c-2.1,2.5-3.8,5.6-5.1,9.2
				c-1.3,3.6-2.3,7.3-2.8,11c-0.5,3.7-0.8,7.7-0.8,11.9c0,3.9,0.3,7.7,0.8,11.5c0.5,3.7,1.5,7.7,3,11.7c1.5,4.1,3.3,7.6,5.5,10.7
				c2.2,3,5.1,5.5,8.8,7.5c3.7,1.9,7.8,2.9,12.5,2.9c7.6,0,14-3.6,19-10.8s7.5-16.3,7.5-27.3c0-7.6-0.4-14-1.2-19.2
				c-0.8-5.2-2.2-10.1-4.3-14.4c-2.1-4.4-5.1-7.7-9-9.8C939.9,229,935,228,929.1,228z"/>
			<path id="XMLID_30_" class="st2" d="M993.2,296.4h3.5c3.4,4.8,7.5,8.8,12.3,11.9c4.8,3.1,9.7,4.6,14.9,4.6
				c6.3,0,11.4-1.7,15.3-5.1c3.9-3.4,5.8-8,5.8-14c0-5.1-1.9-8.9-5.7-11.6c-3.6-2.4-9.4-4.8-17.5-7.1c-4-1.1-7.4-2.3-10.2-3.5
				c-2.8-1.2-5.7-2.9-8.5-5.1c-2.8-2.1-5-4.8-6.5-8.1c-1.5-3.3-2.2-7.1-2.2-11.6c0-6.1,1.7-11.3,5.2-15.7s7.8-7.5,12.9-9.5
				c5.1-1.9,10.6-2.9,16.6-2.9c5.5,0,11.2,0.7,17,2s10.5,3,14,4.8l0.4,0.8l-4.6,17l-3.1,0.2c-4.3-5.1-7.8-8.6-10.4-10.6
				c-4.6-3.4-9.3-5.1-14.2-5.1c-5.2,0-9.4,1.3-12.6,3.8c-3.3,2.5-4.9,6.1-4.9,10.7c0,8.5,7.1,14.5,21.3,18c4.5,1,8.4,2.3,11.8,3.8
				s6.7,3.3,9.8,5.6c3.1,2.3,5.5,5.2,7.2,8.7s2.5,7.5,2.5,12c0,2.8-0.3,5.5-1,8.1c-0.6,2.7-1.9,5.4-3.7,8.4s-4.1,5.4-6.9,7.6
				c-2.8,2.1-6.6,3.9-11.3,5.3c-4.8,1.4-10.2,2.1-16.2,2.1c-11.4,0-22.9-2.1-34.7-6.2L993.2,296.4z"/>
			<path id="XMLID_32_" class="st2" d="M1125.5,228c-7.9,0-14.7,3.7-20.2,11.1c-5.5,7.4-8.3,17.2-8.3,29.4c0,13.1,2.8,23.4,8.4,30.9
				s12.8,11.2,21.5,11.2c4.6,0,8.9-0.7,12.7-2.1c3.8-1.4,7.8-3.9,11.9-7.6h1l4.4,4.8c-8.5,10.9-19.8,16.3-33.9,16.3
				s-25.3-4.7-33.6-14.2c-8.3-9.5-12.5-22.2-12.5-38.1c0-7.6,1.4-14.6,4.3-21.1c2.8-6.5,6.6-11.9,11.2-16.2c4.6-4.3,9.9-7.6,15.7-10
				c5.8-2.4,11.8-3.6,17.7-3.6c5.6,0,11.2,0.6,16.8,1.8c5.6,1.2,10.2,2.7,13.8,4.6l0.6,0.7l-5.4,18.9l-2.9,0.2
				C1141.9,233.6,1134.2,228,1125.5,228z"/>
			<path id="XMLID_34_" class="st2" d="M1166.7,272.5c0-16.3,4.5-29.4,13.5-39.1c9-9.8,21.1-14.7,36.1-14.7
				c15.3,0,27.1,4.6,35.4,13.9s12.5,21.9,12.5,37.8c0,15.3-4.4,27.7-13.1,37.2c-8.8,9.5-20.6,14.3-35.6,14.3
				c-14.9,0-26.7-4.7-35.5-14C1171.1,298.6,1166.7,286.8,1166.7,272.5z M1214.8,228c-4.2,0-7.9,0.8-11.2,2.4c-3.3,1.6-5.9,3.6-8,6.2
				c-2.1,2.5-3.8,5.6-5.1,9.2c-1.3,3.6-2.3,7.3-2.8,11c-0.5,3.7-0.8,7.7-0.8,11.9c0,3.9,0.3,7.7,0.8,11.5c0.5,3.7,1.5,7.7,3,11.7
				c1.5,4.1,3.3,7.6,5.5,10.7c2.2,3,5.1,5.5,8.8,7.5c3.7,1.9,7.8,2.9,12.5,2.9c7.6,0,14-3.6,19-10.8s7.5-16.3,7.5-27.3
				c0-7.6-0.4-14-1.2-19.2c-0.8-5.2-2.2-10.1-4.3-14.4c-2.1-4.4-5.1-7.7-9-9.8C1225.6,229,1220.7,228,1214.8,228z"/>
			<path id="XMLID_37_" class="st2" d="M1303.3,238.7l0.4,0.7c9.1-13.8,19.4-20.7,31-20.7c8.2,0,15.5,2.3,21.7,7
				c6.2,4.6,10.8,10.5,13.9,17.7c3,7.2,4.5,14.9,4.5,23.2c0,16.5-4.4,29.8-13.1,40c-8.7,10.2-20.6,15.3-35.6,15.3
				c-9.1,0-16.7-1.7-22.8-5.1V327c0,20.1,0.7,35.4,2,45.9l-0.4,0.7c-2.8-0.4-6.4-0.7-10.8-0.7c-4.3,0-7.9,0.2-10.8,0.7l-0.4-0.7
				c1.3-9.9,2-25.2,2-45.9v-61.4c0-21.3-0.7-36.2-2-44.7l0.4-0.7c6.4,0.7,12.6,0.4,18.5-0.7c1,0,1.5,0.8,1.5,2.4L1303.3,238.7
				L1303.3,238.7z M1303.3,252.1v50.3c6,7,13.1,10.4,21.3,10.4c4.7,0,8.9-0.9,12.5-2.8c3.6-1.8,6.5-4.2,8.6-7
				c2.1-2.8,3.9-6.2,5.2-10.2s2.3-7.8,2.8-11.5s0.7-7.7,0.7-11.8c0-13-2-23-6-29.9c-4-6.9-9.8-10.4-17.6-10.4
				c-4.6,0-9.7,2.3-15.4,6.9C1309.9,240.8,1305.8,246.1,1303.3,252.1z"/>
			<path id="XMLID_40_" class="st2" d="M1471.8,295.8l4.6,5.7c-4.5,6.1-10.3,11.1-17.4,14.8c-7.1,3.7-14.7,5.6-22.7,5.6
				c-7.7,0-14.7-1.3-21-4c-6.3-2.6-11.5-6.3-15.5-11.1c-6.9-8.2-10.3-20-10.3-35.2c0-8.1,1.4-15.6,4.3-22.4
				c2.8-6.9,6.5-12.4,11.1-16.8c4.5-4.3,9.6-7.7,15.1-10.1c5.5-2.4,11.1-3.6,16.6-3.6c5.8,0,11.1,0.9,15.8,2.7
				c4.7,1.8,8.5,4.1,11.4,7s5.4,6.3,7.4,10.1c2,3.9,3.4,7.7,4.2,11.6c0.8,3.9,1.2,7.9,1.2,12c0,2.6-1.4,3.9-4.2,3.9h-62.6
				c0,13.6,1.8,23.3,5.5,29.2c2.8,4.6,6.6,8,11.1,10c4.6,2.1,9.3,3.1,13.9,3.1C1453.5,308.5,1464,304.3,1471.8,295.8z M1410.3,256.9
				h42.3c2.2,0,3.3-1.1,3.3-3.3c0-8-2.1-14.3-6.2-18.9s-8.5-6.9-13.3-6.9c-1.3,0-2.7,0.2-4.4,0.7c-1.6,0.4-3.6,1.3-6,2.7
				c-2.3,1.3-4.5,3-6.5,5.1c-2,2-3.9,4.8-5.6,8.4C1412.3,248.4,1411.1,252.4,1410.3,256.9z"/>
		</g>
	</g>
</g>
</svg>
