<?xml version="1.0" encoding="utf-8"?>
<!-- Generator: Adobe Illustrator 19.0.0, SVG Export Plug-In . SVG Version: 6.00 Build 0)  -->
<svg version="1.1" id="Layer_1" xmlns="http://www.w3.org/2000/svg" xmlns:xlink="http://www.w3.org/1999/xlink" x="0px" y="0px"
	 viewBox="-771 253 16 16" style="enable-background:new -771 253 16 16;" xml:space="preserve">
<style type="text/css">
	.st0{fill:#EDBF00;}
</style>
<path class="st0" d="M-755,261c0,4.4-3.6,8-8,8s-8-3.6-8-8s3.6-8,8-8S-755,256.6-755,261z M-759,258c-0.3-0.3-0.8-0.3-1.1,0l0,0
	l-3.5,4.4l-2.1-2.1c-0.3-0.3-0.8-0.3-1.1,0s-0.3,0.7,0,1l2.6,2.6c0.3,0.3,0.8,0.3,1.1,0l0,0l4-5C-758.7,258.7-758.7,258.3-759,258
	L-759,258z"/>
</svg>
