<?xml version="1.0" encoding="utf-8"?>
<!-- Generator: Adobe Illustrator 19.0.0, SVG Export Plug-In . SVG Version: 6.00 Build 0)  -->
<svg version="1.1" id="Layer_1" xmlns="http://www.w3.org/2000/svg" xmlns:xlink="http://www.w3.org/1999/xlink" x="0px" y="0px"
	 viewBox="0 0 224.2 196" style="enable-background:new 0 0 224.2 196;" xml:space="preserve">
<style type="text/css">
	.st0{fill:#353535;}
</style>
<g>
	<path class="st0" d="M0,134c0-3.7,0-7.3,0-11c2.5-5.7,4.4-11.8,7.6-17c5.5-8.8,14.3-13.6,24.3-16.2c-2.5-19.3,3.5-35,19.8-45.4
		c16.3-10.4,33-9,49.1,0.8c17.2-23.1,43.5-27.5,63.1-19.5C174.5,30.1,183,37,189,46.8c8.3,13.4,10,27.9,5.8,42.7
		c4.8,2.5,9.4,4.5,13.5,7.2c9.7,6.5,14.2,16.3,16.7,27.3c0,3.3,0,6.7,0,10c-0.3,0.8-0.7,1.5-0.8,2.3c-4.4,20-19.8,32.7-40.1,32.7
		c-47.9,0-95.8,0-143.7,0c-8.9,0-16.9-2.7-24.2-7.9C6.9,154.3,2.4,144.8,0,134z M92,111.2c0,0,0.1,0,0.1,0c0,2.2-0.1,4.3,0,6.5
		c0.5,11.5,9,20.6,19.9,21.3c13.6,1,23-5.6,25.1-18.1c0.9-5.4,1-11,0.5-16.4c-1.2-12.6-9.9-20.5-22-20.8c-12.2-0.3-21.2,7-23.1,18.9
		C91.9,105.5,92.1,108.4,92,111.2z M85,104.7c0.9-6.1-0.6-11.1-4.6-15c-6.5-6.3-14.6-7-22.8-5c-7.7,1.9-13.2,7.3-14.2,15.1
		c-1.1,7.8-1.1,16,0,23.7c1.3,9.2,10.2,15.4,19.9,15.7c11.2,0.3,18.8-4.2,21.3-12.7c2.1-6.9,1.1-8.2-5.9-8.2c-1.8,0-3.6,0-5.2,0
		c-0.3,1-0.6,1.5-0.6,1.9c-0.4,4.9-2.3,8.3-7.7,8.6c-4.8,0.2-8.7-2.8-9.3-8.5c-0.6-6.4-0.6-13,0.4-19.3c0.9-6,7.4-9,12.2-5.7
		c2.7,1.8,4,5.9,6.2,9.4C77.2,104.7,80.9,104.7,85,104.7z M162.8,128c3.3-3.6,5.9-6.3,8.3-9c2.4-2.8,5.2-5.4,6.8-8.6
		c1.8-3.7,3.4-8,3.4-12.1c0-6.3-3.7-11.1-9.8-13.1c-7-2.3-14.2-2.5-20.4,2.4c-4.9,3.8-7.2,8.8-6.2,15.2c4.3,0,8.1,0,11.9,0
		c0.2-1.1,0.4-2.1,0.6-3.1c0.8-3.8,2.9-6.1,7-5.4c3.5,0.6,5.2,4.2,3.7,8.4c-1,2.6-2.5,5.1-4.3,7.2c-4.8,5.5-9.6,11.1-14.9,16.1
		c-3.8,3.6-4.3,7.4-3.2,12.3c12.4,0,24.6,0,37,0c0-3.5,0-6.8,0-10.3C176.3,128,170.2,128,162.8,128z"/>
	<path class="st0" d="M125.2,111.4c-0.4,3.5-0.5,6.8-1.3,10c-1.1,4.5-4.2,7.2-8.9,7.3c-4.7,0.1-8.5-2.3-9-6.9
		c-0.7-6.8-0.7-13.8,0-20.6c0.4-4.4,4.1-6.7,8.6-6.7c4.8-0.1,8,2.4,9.2,6.8C124.7,104.6,124.8,108.2,125.2,111.4z"/>
</g>
</svg>
