<?xml version="1.0" encoding="utf-8"?>
<!-- Generator: Adobe Illustrator 19.0.0, SVG Export Plug-In . SVG Version: 6.00 Build 0)  -->
<svg version="1.1" id="Layer_1" xmlns="http://www.w3.org/2000/svg" xmlns:xlink="http://www.w3.org/1999/xlink" x="0px" y="0px"
	 viewBox="0 0 794.1 793.6" style="enable-background:new 0 0 794.1 793.6;" xml:space="preserve">
<style type="text/css">
	.st0{fill:#F1CA7C;}
	.st1{fill:#DDA860;}
	.st2{fill:#704C36;}
	.st3{fill:#A17D69;}
</style>
<g>
	<path class="st0" d="M774.8,313.3c0.7,0.9,1.2,1.8,1,3c-2.3,0.4-1.7,1.7-1.4,3.3c3.9,18.9,6.7,37.8,4.4,57.2
		c-1.1,8.9-2,17.8-5.4,26.2c-5.4,13.7-14.1,25.5-22.4,37.5c-7.5,10.8-15,21.6-18.2,34.6c-4.6,18.5-6.1,37.5-9.9,56.2
		c-4,20.1-12.1,37.8-26.3,52.6c-10.8,11.3-23.5,20.5-35.7,30.2c-12.8,10.2-24.2,21.6-34.3,34.4c-10.4,13.2-20.8,26.3-33.3,37.7
		c-7.5,6.8-15.9,12.4-25.4,16.2c-16.9,6.9-34.8,9.4-52.7,11.8c-18.7,2.5-36.6,7.3-54,14.4c-14.6,6-29.1,11.9-44.6,15.2
		c-11.3,2.4-22.9,2.4-34.2,0.7c-19.2-2.8-36.9-10.6-54.6-18c-19.2-8-39.4-11.3-59.7-14.2c-13.2-1.8-26.3-3.9-38.7-8.6
		c-19.1-7.2-34-20.3-46.6-36.2c-7.9-10-15.8-20.1-24.2-29.7c-14.2-16.2-31.8-28.7-48-42.7c-9.3-8-18.1-16.6-25-27
		c-11.6-17.4-14.8-37.4-18-57.4c-2-12.4-3.4-25-6.6-37.1c-5.1-19.5-14.5-37.6-20.7-56.8c-5-15.4-7.2-30.9-4.8-47.1
		c2.6-16.7,9-32.2,15.2-47.7c4.1-10.3,8.2-20.6,10.8-31.4c4.5-18.9,6-38.2,10-57.2c3.1-14.6,8.6-28.2,17.6-40.2
		c10.5-13.9,24.1-24.6,37.7-35.1c15.7-12.1,29.7-25.9,42.2-41.4c10.5-13,20.8-26.2,33.6-37.3c15.8-13.7,34.5-19.9,54.5-23.1
		c11.8-1.9,23.6-3.5,35.3-5.5c17.9-3.1,34.6-9.8,51.3-16.6c14.5-5.9,29.2-12.3,44.8-12.6c26.4-0.5,52.9-2.1,79.3,1.5
		c2.6,0.4,5.7,1.2,8.1-1.1c5.7,0.6,10.7,3.6,16.3,4.7c2.3,0.4,2.6,2.3,2.5,4.3c-0.7,19.5,5.6,37,16.4,52.9
		c9.2,13.7,21.3,24.3,36.8,30.3c4.5,1.7,5.9,4.5,6.7,8.7c2.8,15.8,7.9,30.8,15.7,45c8.9,16.2,22.3,26.5,39.6,32.2
		c12.9,4.2,26,6.8,39.7,6.2c8-0.4,7.9-0.3,10.5,7.3c9.1,26.8,27.4,44.1,54.2,52.9c14,4.6,28,6.5,42.6,3.9c1.9-0.3,3.2,0.3,3.8,2.3
		c3.5,12.8,9.8,24.6,13.2,37.5C772.3,311.8,772.6,312.9,774.8,313.3z M125.7,263.9c0.9,19.8,9.5,36,24.1,49.1
		c12.8,11.5,29.1,15.9,45.5,18.9c12.6,2.3,24.5-0.3,34.5-9.2c9.7-8.7,17-19.2,22-31.1c5.2-12.6,8.7-25.8,11.2-39.3
		c1.5-8.4,0.9-16.1-4.1-23.3c-4-5.8-8.6-11-13-16.4c-12.1-14.5-26.6-18.6-44.9-13.4c-22.9,6.6-43,17.8-60.4,33.7
		C131.4,241.1,124.3,250.6,125.7,263.9z M558.8,492.4c8.9,0.3,17.4-0.8,23.9-7.7c25.5-26.9,17.5-61.6-6.2-83.5
		c-8.9-8.3-20.8-7.4-31.9-5.1c-16.6,3.4-30.9,12-44.7,21.4c-3.6,2.4-5.7,6-6.6,10.2c-1.8,8.5-2.5,17.1-2.2,25.8
		c0.4,8.8,4.2,15.4,11.3,20.6C519.2,486.4,538.3,491.5,558.8,492.4z M264.2,631.3c11.8,1.8,20.6-2.5,26.9-12.3
		c8.3-12.9,12.6-27.1,13.4-42.3c0.3-4.9,0.6-9.9-0.7-14.9c-3.8-14-25-23.4-40.5-22.4c-12,0.8-22.3,6.4-32.1,12.8
		c-8.4,5.5-12.5,13.6-12,23.8c0.9,16.1,7.5,30.1,16.1,43.4c5.1,8,12.2,11.5,21.1,12C259,631.4,261.7,631.3,264.2,631.3z
		 M715.9,333.2c-0.5-7,0.7-14-5.1-19c-4.8-4.2-10.3-7.2-16.7-8.6c-12.1-2.7-23.8-0.6-35.4,2.5c-5.6,1.5-11.6,2-16.2,6.1
		c-12.3,10.9-17.3,25.1-14.9,40.8c2.1,13.5,9.3,25,23.1,29.6c18.2,6.1,34.8,0.7,49.1-10.5C712.9,364,715.3,348.5,715.9,333.2z
		 M433.3,458.4c-1.5,0.1-2.3,1.2-3.2,2.2c-10,10-19.9,20-30,29.9c-2.2,2.2-2.1,3.5,0.1,5.6c10.1,9.9,20.1,19.9,30,30
		c2.5,2.5,4.2,2.4,6.6-0.1c9.9-10.1,19.9-20.1,30-30c2.2-2.2,2.1-3.5-0.1-5.6c-10.1-9.9-20-19.9-30-29.9
		C435.6,459.6,434.8,458.5,433.3,458.4z M335.9,68.3c-0.8,0.6-1.5,0.9-2.1,1.5c-10.5,10.5-20.9,21-31.5,31.4c-1.8,1.8-1.3,3,0.3,4.5
		c10.3,10.2,20.5,20.4,30.7,30.7c2.1,2.1,3.7,2.2,5.8,0c9.8-9.9,19.7-19.8,29.7-29.6c2.4-2.3,2.1-4-0.1-6.2c-10.1-9.9-20-20-30-30
		C337.9,69.9,337,69.2,335.9,68.3z M675.5,439.3c0-1.1-0.7-1.8-1.4-2.5c-7.3-7.3-14.6-14.6-21.9-21.9c-2-2-3.6-1.6-5.5,0.3
		c-7.1,7.2-14.3,14.4-21.6,21.5c-2,2-2,3.4,0,5.3c7.3,7.1,14.5,14.3,21.6,21.5c2.3,2.3,4,1.7,5.9-0.2c7.1-7,14.1-14.1,21.2-21.1
		C674.6,441.4,675.5,440.6,675.5,439.3z M570.5,586.4c-0.6-0.7-1-1.4-1.5-2c-7.5-7.5-15.1-15.1-22.6-22.6c-1.8-1.8-3.1-1.2-4.6,0.3
		c-7.3,7.3-14.5,14.7-21.9,21.9c-2,1.9-2.1,3.4-0.1,5.4c7,6.9,14,13.8,20.9,20.8c2.3,2.3,4.2,2.5,6.6-0.1
		c6.8-7.1,13.9-13.9,20.8-20.9C568.9,588.4,569.6,587.5,570.5,586.4z M300.5,160.8c-0.4,0.3-1,0.6-1.4,1.1
		c-7.7,7.6-15.3,15.3-23,22.9c-1.9,1.9-0.6,3.2,0.7,4.6c7.2,7.2,14.4,14.3,21.5,21.6c1.7,1.8,3,2.1,4.9,0.2
		c7.1-7.3,14.3-14.4,21.5-21.5c2.2-2.1,2.2-3.7,0-5.8c-7.2-7-14.1-14.1-21.2-21.1C302.7,161.9,302.1,160.9,300.5,160.8z
		 M484.7,565.3c-0.4-0.5-0.9-1.4-1.5-2.1c-7-7.1-14.2-14.1-21.2-21.2c-2-2-3.6-1.8-5.5,0.1c-6.9,7-13.8,14-20.8,20.9
		c-2.4,2.4-2.3,4.5,0.1,6.8c6.9,6.8,13.7,13.6,20.5,20.5c2,2.1,3.3,1.9,5.3-0.1c7-7.2,14.1-14.2,21.2-21.2
		C483.6,568.1,484.7,567.3,484.7,565.3z M220.5,415.9c-0.6-0.7-1.3-1.6-2.1-2.4c-6.9-7-14-13.8-20.8-20.9c-2.1-2.2-3.5-2.2-5.6,0
		c-6.8,7.1-13.8,14-20.8,20.9c-2.1,2-2.5,3.4-0.2,5.6c7.2,6.9,14.2,14,21.2,21.2c2,2,3.3,2.1,5.3,0c7-7.2,14.1-14.2,21.2-21.2
		C219.4,418.2,220.5,417.6,220.5,415.9z M168.5,493c0.7-0.4,1.4-0.6,1.8-1.1c3.5-3.5,7.1-7,10.5-10.6c1.5-1.6,0.7-3.1-0.6-4.4
		c-2.9-2.9-5.9-5.8-8.8-8.8c-1.9-1.9-3.5-2.1-5.5,0c-2.8,3-5.8,6-8.8,8.8c-2.2,2-1.8,3.5,0.2,5.3c2.8,2.6,5.4,5.4,8.1,8
		C166.4,491.2,167.4,492,168.5,493z M540,312.2c1.4-0.1,2.1-1,2.9-1.8c2.7-2.7,5.3-5.6,8.2-8.1c2.7-2.3,2.1-4-0.2-6
		c-2.3-2-4.5-4-6.3-6.4c-3-3.7-5.2-3.6-8.6-0.1c-9.6,10-9.8,9.9,0.1,19.5C537.2,310.5,538.2,312,540,312.2z"/>
	<path class="st1" d="M476.2,22.1c-2.4,2.3-5.5,1.5-8.1,1.1c-26.4-3.6-52.9-2-79.3-1.5c-15.6,0.3-30.3,6.6-44.8,12.6
		c-16.7,6.8-33.4,13.5-51.3,16.6c-11.7,2-23.5,3.6-35.3,5.5c-20,3.3-38.7,9.4-54.5,23.1c-12.8,11.1-23.1,24.3-33.6,37.3
		c-12.5,15.5-26.5,29.3-42.2,41.4c-13.7,10.5-27.3,21.2-37.7,35.1c-9,12-14.5,25.6-17.6,40.2c-4,18.9-5.5,38.3-10,57.2
		c-2.6,10.8-6.7,21.1-10.8,31.4c-6.2,15.5-12.7,31-15.2,47.7c-2.5,16.1-0.2,31.6,4.8,47.1c6.2,19.2,15.6,37.3,20.7,56.8
		c3.2,12.1,4.6,24.7,6.6,37.1c3.2,20,6.4,40,18,57.4c6.9,10.4,15.7,18.9,25,27c16.2,14,33.8,26.5,48,42.7
		c8.4,9.6,16.3,19.7,24.2,29.7c12.6,15.9,27.5,29,46.6,36.2c12.4,4.7,25.5,6.8,38.7,8.6c20.3,2.8,40.5,6.2,59.7,14.2
		c17.7,7.4,35.4,15.2,54.6,18c11.3,1.6,22.9,1.7,34.2-0.7c15.5-3.3,30-9.3,44.6-15.2c17.4-7.1,35.3-12,54-14.4
		c17.9-2.4,35.8-4.9,52.7-11.8c9.5-3.8,17.9-9.4,25.4-16.2c12.5-11.3,22.9-24.5,33.3-37.7c10.1-12.8,21.5-24.3,34.3-34.4
		c12.2-9.7,24.9-18.9,35.7-30.2c14.2-14.8,22.3-32.5,26.3-52.6c3.8-18.7,5.3-37.7,9.9-56.2c3.2-13,10.7-23.8,18.2-34.6
		c8.3-12,16.9-23.8,22.4-37.5c3.3-8.4,4.3-17.3,5.4-26.2c2.3-19.4-0.6-38.3-4.4-57.2c-0.3-1.6-0.9-3,1.4-3.3
		c3.9,16.1,10,31.4,14.1,47.5c7.3,28.4,4.6,55.6-6.1,82.5c-8.1,20.4-16.2,40.8-20.5,62.5c-3.2,15.8-5.2,31.8-8.2,47.6
		c-5,26.5-17.4,48.6-37.4,66.5c-10.9,9.8-22.5,18.8-33.9,27.8c-16.2,12.8-29.2,28.6-42.1,44.5c-11,13.6-22.1,27.1-36.1,37.8
		c-14.5,11.1-31.2,16.7-48.9,20.3c-17.6,3.6-35.5,5.3-53,9.4C483,767.7,463.9,777,444,784c-15.2,5.4-30.6,9.6-47.2,9.6
		c-18.9,0-36.4-5.7-53.7-12.2c-19-7.1-37.9-14.6-57.9-18.4c-16.5-3.1-33-5.8-49.6-8.7c-30.3-5.3-53.9-21.5-73-45.1
		c-12.1-14.8-23.3-30.4-37-43.8c-11.5-11.2-24.2-20.8-36.5-31c-14.7-12.2-28.6-25.1-37.8-42.1c-7.2-13.3-10.8-27.8-13.3-42.6
		c-2.9-17.4-4.4-35-8.6-52.1c-4.4-17.7-12.2-34.1-18.5-51.1C4.5,429.2-0.7,411.7,0.1,393c0.6-13.9,4.2-27.2,8.7-40.3
		c5.5-16,12.3-31.6,17.1-47.9c5.4-18.2,8.5-36.9,11-55.7c4.4-33.5,18.2-61.8,44.7-83.7c17.6-14.5,36.3-27.7,51.5-44.9
		c11.2-12.7,22-25.9,32.7-39c19.9-24.2,45-38.8,76.2-43.4c19-2.9,38.3-4.6,57-9.6c12.2-3.3,23.8-8.3,35.6-12.8
		c15-5.8,30-11.9,46.1-14.3c17.9-2.7,35.5-1.2,52.7,4.5C447.8,10.7,462.2,15.9,476.2,22.1z"/>
	<path class="st1" d="M618.2,99.3c0.7,0.5,1.5,0.8,2.1,1.3c5,4.6,10,9.2,15,13.8c1.8,1.7,1.4,3-0.2,4.6c-4.6,4.5-9.2,9.1-13.7,13.7
		c-2.1,2.1-3.9,2.6-6.1,0c-4-4.6-8.3-9-12.4-13.5c-1.2-1.4-2.3-2.9-0.4-4.7c4.8-4.6,9.4-9.4,14.1-14
		C616.9,100.1,617.5,99.8,618.2,99.3z"/>
	<path class="st1" d="M554.9,58.5c1.6,0,9.5,7.8,9.3,9.2c-0.1,1.2-8.6,9.2-9.6,9c-1-0.1-9-8.2-9-9.1
		C545.4,66.1,553.3,58.5,554.9,58.5z"/>
	<path class="st1" d="M729.3,199.8c1.6,0,9.2,7.8,9.1,9.4c-0.1,1.4-7.7,8.9-9,8.9c-1.5,0-9.3-7.9-9.1-9.4
		C720.4,207.4,728.1,199.8,729.3,199.8z"/>
	<path class="st1" d="M636.7,157.1c-1.3,0-9.1-7.4-9.2-8.7c-0.1-1.1,8-9.3,9.2-9.4c1.6-0.1,9.1,7.7,9,9.4
		C645.5,150.2,638.4,157.2,636.7,157.1z"/>
	<path class="st1" d="M712.2,209.1c0,1.6-6.7,9-8.1,8.9c-1.2-0.1-8.9-7.7-9-9c-0.1-1.5,7.7-9.3,9.2-9.2
		C705.6,199.9,712.2,207.8,712.2,209.1z"/>
	<path class="st1" d="M713.8,240.4c1-1,2-2,3-3.1c2.6,0.1,3.4-3.2,6-3c2.3,1.7,4.3,3.7,6,6c-0.2,4.5-3.7,6.6-6.7,8.6
		c-2.5,1.6-3.6-2.1-5.6-3.1c-0.4-0.2-0.9-0.3-1.4-0.5c-0.5-0.6-1-1.2-1.5-1.8C713.8,242.4,713.8,241.4,713.8,240.4z"/>
	<path class="st0" d="M715.2,245.3c0.5,0.2,1,0.3,1.4,0.5c1.9,1,3.1,4.7,5.6,3.1c3-1.9,6.6-4.1,6.7-8.6c1.2,0.3,2.3,0.7,2.3,2.2
		c0,1.3-7.7,8.7-9.1,8.7C718.3,251,716.2,248.7,715.2,245.3z"/>
	<path class="st0" d="M722.9,234.3c-2.6-0.1-3.4,3.1-6,3C719.5,232.5,720.2,232.2,722.9,234.3z"/>
	<path class="st0" d="M713.8,240.4c0,1-0.1,2.1-0.1,3.1C711.3,242.4,711.4,241.3,713.8,240.4z"/>
	<path class="st1" d="M774.8,313.3c-2.2-0.5-2.5-1.5-0.9-3.1C774.2,311.3,774.5,312.3,774.8,313.3z"/>
	<path class="st2" d="M125.7,263.9c-1.3-13.4,5.8-22.8,14.7-31c17.4-16,37.5-27.2,60.4-33.7c18.4-5.3,32.8-1.1,44.9,13.4
		c4.5,5.4,9,10.6,13,16.4c5,7.2,5.6,15,4.1,23.3c-2.5,13.5-5.9,26.6-11.2,39.3c-5,12-12.3,22.4-22,31.1c-9.9,9-21.9,11.6-34.5,9.2
		c-16.4-3-32.7-7.4-45.5-18.9C135.2,299.9,126.6,283.7,125.7,263.9z M216.9,245.2c0.6-6.7-0.5-15.2-3-23.6
		c-2.6-8.9-7.2-12.2-16-11.2c-2.6,0.3-5.3,0.8-7.8,1.3c-17,3.7-31.7,11.9-44.5,23.4c-6.5,5.8-12.4,12.5-10.8,22.3
		c3.1,19.8,12.4,35.9,30.7,45c14.8,7.4,31.2,2.3,40.2-11.6C214.4,277.7,217.2,262.8,216.9,245.2z"/>
	<path class="st2" d="M558.8,492.4c-20.5-0.9-39.6-6-56.4-18.4c-7-5.2-10.9-11.8-11.3-20.6c-0.4-8.7,0.4-17.3,2.2-25.8
		c0.9-4.2,3-7.8,6.6-10.2c13.8-9.3,28.1-18,44.7-21.4c11.1-2.3,23-3.2,31.9,5.1c23.7,21.9,31.7,56.6,6.2,83.5
		C576.2,491.6,567.7,492.7,558.8,492.4z M550.7,406.4c-6.9-0.8-13.8,0.4-20.5,2.1c-12.1,3.1-23,8.5-29.8,19.8
		c-5.9,9.7-2.3,23.4,7.6,27.8c14.9,6.6,30.3,5.9,45.8,2.6c1.7-0.4,3.4-1.5,4.7-2.7c9.5-8.2,15.3-18.8,18.1-30.9
		c2.3-9.9-1.9-17-9.9-17.9C561.5,406.8,556.2,405.7,550.7,406.4z"/>
	<path class="st2" d="M264.2,631.3c-2.5,0-5.2,0.1-7.8,0c-9-0.5-16-4-21.1-12c-8.6-13.4-15.2-27.3-16.1-43.4
		c-0.6-10.2,3.6-18.2,12-23.8c9.8-6.4,20.1-12,32.1-12.8c15.5-1,36.7,8.4,40.5,22.4c1.3,5,1,10,0.7,14.9
		c-0.8,15.2-5.1,29.4-13.4,42.3C284.8,628.8,276,633.1,264.2,631.3z M271.2,546.3c-12.3,0.6-23.9,5.2-34.1,12.5
		c-8,5.7-11.5,13.2-7.6,23.4c3.1,8,4.9,16.5,7.5,24.7c3.4,10.8,11.1,12.7,19.7,5.1c6.1-5.4,9.9-12.5,13.1-19.8
		c5.1-11.4,8.7-23.2,10.6-35.6C281.6,548.8,279.8,546.3,271.2,546.3z"/>
	<path class="st2" d="M715.9,333.2c-0.5,15.3-2.9,30.8-16,41c-14.3,11.2-30.9,16.7-49.1,10.5c-13.8-4.7-21-16.1-23.1-29.6
		c-2.4-15.7,2.6-29.9,14.9-40.8c4.6-4.1,10.6-4.6,16.2-6.1c11.6-3.1,23.4-5.3,35.4-2.5c6.3,1.4,11.8,4.3,16.7,8.6
		C716.5,319.3,715.4,326.3,715.9,333.2z M676.7,312.4c-4.7-1.2-10.1,0.4-15.2,2.1c-9.3,3.1-18,7.3-21.9,17.3
		c-3,7.7-4.5,15.6-3.8,23.9c0.7,8.8,5.6,12.3,14.2,10.1c12-3.1,22.1-9.9,31.4-17.7c6.5-5.5,12.5-11.8,15.4-20
		c3.1-8.6,1.2-13-6.4-14.4C686.2,313.1,682,312.2,676.7,312.4z"/>
	<path class="st1" d="M433.3,458.4c1.5,0.1,2.3,1.2,3.2,2.1c10,10,19.9,20,30,29.9c2.1,2.1,2.3,3.5,0.1,5.6
		c-10.1,9.9-20.1,19.9-30,30c-2.4,2.4-4.1,2.6-6.6,0.1c-9.9-10.1-19.9-20.1-30-30c-2.1-2.1-2.3-3.5-0.1-5.6
		c10.1-9.9,20-19.9,30-29.9C431,459.7,431.8,458.6,433.3,458.4z"/>
	<path class="st1" d="M335.9,68.3c1.1,0.9,2,1.6,2.8,2.4c10,10,20,20,30,30c2.2,2.2,2.5,3.9,0.1,6.2c-10,9.8-19.8,19.7-29.7,29.6
		c-2.1,2.2-3.7,2.1-5.8,0c-10.2-10.3-20.4-20.5-30.7-30.7c-1.5-1.5-2.1-2.8-0.3-4.5c10.5-10.4,21-20.9,31.5-31.4
		C334.4,69.3,335.2,68.9,335.9,68.3z"/>
	<path class="st2" d="M675.5,439.3c0,1.3-0.9,2.1-1.7,2.9c-7.1,7-14.1,14.1-21.2,21.1c-1.9,1.9-3.6,2.6-5.9,0.2
		c-7.1-7.3-14.3-14.4-21.6-21.5c-2-2-2-3.3,0-5.3c7.3-7.1,14.4-14.3,21.6-21.5c1.9-1.9,3.5-2.3,5.5-0.3c7.3,7.3,14.6,14.6,21.9,21.9
		C674.8,437.5,675.5,438.2,675.5,439.3z"/>
	<path class="st2" d="M570.5,586.4c-0.9,1.1-1.6,2-2.4,2.8c-6.9,7-14,13.8-20.8,20.9c-2.5,2.6-4.3,2.4-6.6,0.1
		c-6.9-7-13.9-13.9-20.9-20.8c-2-2-1.9-3.4,0.1-5.4c7.4-7.2,14.7-14.5,21.9-21.9c1.5-1.5,2.9-2.1,4.6-0.3
		c7.5,7.6,15.1,15.1,22.6,22.6C569.6,585,570,585.7,570.5,586.4z"/>
	<path class="st2" d="M300.5,160.8c1.6,0,2.3,1.1,3.1,1.9c7.1,7,14.1,14.2,21.2,21.1c2.2,2.1,2.2,3.7,0,5.8
		c-7.3,7.1-14.4,14.3-21.5,21.5c-1.9,1.9-3.2,1.6-4.9-0.2c-7.1-7.2-14.3-14.4-21.5-21.6c-1.4-1.4-2.6-2.7-0.7-4.6
		c7.7-7.6,15.3-15.3,23-22.9C299.5,161.5,300.1,161.1,300.5,160.8z"/>
	<path class="st1" d="M484.7,565.3c0,1.9-1.1,2.8-2,3.7c-7.1,7.1-14.2,14.1-21.2,21.2c-1.9,2-3.3,2.1-5.3,0.1
		c-6.7-6.9-13.6-13.7-20.5-20.5c-2.4-2.3-2.5-4.4-0.1-6.8c7-6.9,13.9-13.9,20.8-20.9c1.9-1.9,3.5-2.1,5.5-0.1
		c7,7.1,14.1,14.1,21.2,21.2C483.9,563.9,484.3,564.8,484.7,565.3z"/>
	<path class="st1" d="M220.5,415.9c0,1.7-1.1,2.3-1.9,3.1c-7.1,7.1-14.2,14.1-21.2,21.2c-2,2-3.3,2-5.3,0c-7-7.2-14-14.3-21.2-21.2
		c-2.3-2.3-1.9-3.6,0.2-5.6c7-6.9,14-13.8,20.8-20.9c2.1-2.2,3.5-2.2,5.6,0c6.8,7.1,13.9,13.9,20.8,20.9
		C219.3,414.3,219.9,415.2,220.5,415.9z"/>
	<path class="st2" d="M168.5,493c-1.1-1-2.1-1.8-3-2.7c-2.7-2.7-5.3-5.5-8.1-8c-2-1.8-2.4-3.3-0.2-5.3c3.1-2.8,6-5.8,8.8-8.8
		c1.9-2,3.6-1.9,5.5,0c2.9,3,5.9,5.9,8.8,8.8c1.3,1.3,2.1,2.8,0.6,4.4c-3.4,3.6-7,7.1-10.5,10.6C169.9,492.3,169.2,492.6,168.5,493z
		"/>
	<path class="st2" d="M540,312.2c-1.8-0.2-2.7-1.7-3.9-2.8c-9.9-9.7-9.7-9.5-0.1-19.5c3.4-3.5,5.6-3.6,8.6,0.1
		c1.9,2.3,4.1,4.4,6.3,6.4c2.3,2,2.9,3.7,0.2,6c-2.9,2.5-5.5,5.4-8.2,8.1C542.1,311.2,541.4,312.1,540,312.2z"/>
	<path class="st3" d="M216.9,245.2c0.3,17.6-2.5,32.5-11.2,45.7c-9,13.9-25.4,19-40.2,11.6c-18.4-9.1-27.6-25.2-30.7-45
		c-1.5-9.8,4.3-16.5,10.8-22.3c12.8-11.5,27.5-19.7,44.5-23.4c2.6-0.6,5.2-1,7.8-1.3c8.8-1,13.3,2.3,16,11.2
		C216.4,230,217.5,238.5,216.9,245.2z"/>
	<path class="st3" d="M550.7,406.4c5.5-0.7,10.8,0.3,16,0.9c8,0.9,12.2,8,9.9,17.9c-2.8,12.1-8.6,22.6-18.1,30.9
		c-1.3,1.2-3,2.3-4.7,2.7c-15.5,3.3-30.9,4-45.8-2.6c-9.9-4.4-13.4-18.1-7.6-27.8c6.8-11.3,17.7-16.7,29.8-19.8
		C536.9,406.8,543.8,405.6,550.7,406.4z"/>
	<path class="st3" d="M271.2,546.3c8.6,0,10.4,2.5,9.2,10.4c-1.9,12.4-5.5,24.2-10.6,35.6c-3.3,7.3-7.1,14.4-13.1,19.8
		c-8.6,7.7-16.2,5.7-19.7-5.1c-2.6-8.2-4.4-16.7-7.5-24.7c-3.9-10.2-0.4-17.8,7.6-23.4C247.3,551.5,258.9,546.9,271.2,546.3z"/>
	<path class="st3" d="M676.7,312.4c5.3-0.2,9.4,0.7,13.7,1.4c7.6,1.3,9.5,5.7,6.4,14.4c-2.9,8.1-8.9,14.5-15.4,20
		c-9.3,7.8-19.4,14.6-31.4,17.7c-8.6,2.2-13.5-1.3-14.2-10.1c-0.7-8.3,0.8-16.2,3.8-23.9c3.9-10,12.6-14.3,21.9-17.3
		C666.6,312.8,672,311.3,676.7,312.4z"/>
</g>
</svg>
