<?xml version="1.0" encoding="utf-8"?>
<!-- Generator: Adobe Illustrator 19.0.0, SVG Export Plug-In . SVG Version: 6.00 Build 0)  -->
<svg version="1.1" id="Layer_1" xmlns="http://www.w3.org/2000/svg" xmlns:xlink="http://www.w3.org/1999/xlink" x="0px" y="0px"
	 viewBox="0 0 99.8 99.7" style="enable-background:new 0 0 99.8 99.7;" xml:space="preserve">
<style type="text/css">
	.st0{fill:#0E8DBD;}
	.st1{fill:#0C7FAB;}
	.st2{fill:#81E1B6;}
	.st3{fill:#9DE755;}
	.st4{fill:#8CCF4D;}
</style>
<g>
	<path class="st0" d="M47.3,0c1.8,0,3.5,0,5.3,0c0,0.1,0,0.2,0,0.2c-0.1,0.1-0.1,0.1-0.2,0.2c0,0,0.1,0.1,0.1,0.1c1.2,0,2.5,0,3.7,0
		c0.5,0,1,0.1,1.5,0.1c0.4,0.7,1.1,0.2,1.6,0.3c5.4,0.9,10.4,2.7,15.1,5.5c0.1,0.1,0.2,0.1,0.3,0.2l0,0c0.1,0.5,0.5,0.6,1,0.5
		c0,0,0,0,0,0c0.1,0.1,0.2,0.1,0.3,0.2c0,0,0,0,0,0C76,7.6,76,7.8,76.2,7.9c1.5,1.9,3.1,3.9,4.7,5.8c0.3,0.4,0.7,1,0.6,1.3
		c-0.1,0.5-0.8,0.1-1.3,0.3c-4.9-2-8.6,0.8-12.3,3.4c-0.3,0.2-0.4,0.6-0.7,0.9c-0.8,0.2-1,0.9-0.8,1.5c0.2,0.7,1,1,1.7,1
		c0.7,0,1.4-0.2,1.6,0.8c0.2,1.1-0.9,0.3-1,0.9c0,0.1,0,0.1,0,0.2c-0.8,0.3-1.6,0.7-2.3,1c-0.2,0-0.4,0-0.5-0.1
		c0-0.3-0.1-0.5-0.4-0.4c-1.4,0.1-1-1.6-2-1.9c0.3-0.7-0.1-1.1-0.6-1.3c-0.1,0-0.5,0.3-0.6,0.6c-0.4,0.7,0,1,0.6,1.4
		c0.4,0.3,0.7,0.9-0.1,1.2c-0.2,0-0.4,0-0.5,0c-0.1-0.3-0.1-0.7-0.2-1c-0.3-0.3-0.6-0.4-0.8,0c-0.1,0-0.1,0-0.2,0
		c-0.3,0-0.6,0-0.7,0.4c0.1,0.4-0.7,0.6-0.4,1c0.4,0.5,1,0.1,1.6,0.1c0.2,0.1,0.5,0.2,0.7,0.3c0,0.5,0.2,0.7,0.7,0.7
		c0,0.1,0.1,0.1,0.1,0.2c-0.4,0.3,0.3,0.4,0.2,0.7c-0.5,0.1-1.1,0.2-1,1c-1,0.3-1.1,0.7-0.3,1.4c0.3,0.2,0.5,0.7,0.7,1
		c-0.9,0.4-1.5-0.4-2.3-0.4c-1.6,1.2-1.1,3-1.4,4.5c0,0.2,0.3,0.5,0.5,0.6c0.9,0.2,0.6,0.7,0.4,1.1c-0.9,0.6-0.6,1.9-1.2,2.4
		c-1.6,1.2-2.5,2.8-3.6,4.3c-0.2,0.1-0.3,0.2-0.5,0.3c-1.1,1.2,0,2.4,0,3.7c0,0.1,0,0.2,0,0.3c-1.2,0.8-1.3,2-0.6,3.1
		c0.7,1.2,1.7,2.3,2.6,3.4c1.5,1.6,5.8,1.7,7.1,0.3c0.1,0,0.2,0,0.3-0.1c1.7-0.3,2.6,1.5,4.3,1.5c0.4,0,0.6,0.6,0.5,1.2
		c-0.3,1.5,0.2,2.9,0.9,4.3c0.6,1.4,1.5,2.7,1.1,4.5c-0.9,3.7,0,7.1,1.9,10.3c0.7,1.2,1.1,3.7,0.2,4.5c-2.3,2.1-4.7,3.9-7.4,5.4
		c-5.8,3.3-12,5.5-18.8,6.4c-8.6,1.1-16.9,0.1-24.9-3.1c-1.9-0.8-3.8-1.5-5.7-2.3l0,0c-0.1-0.1-0.2-0.2-0.3-0.2l0,0
		c-0.1-0.1-0.2-0.2-0.3-0.2l0.1-0.1l-0.1,0.1c-0.1-0.1-0.2-0.2-0.3-0.3c0,0,0,0,0,0c-0.1-0.1-0.2-0.2-0.3-0.3c0,0,0,0,0,0
		c0.1-0.3-0.2-0.3-0.4-0.4c-2.2-2-4-4.3-5.7-6.8c-3.4-5.1-6.1-10.5-7.3-16.6C1.3,61.1,1.8,60.4,1,60c-0.2-1.2-0.4-2.4-0.6-3.6
		c0-0.2,0-0.5,0-0.7c-0.1-0.6,0.2-1.3-0.2-1.9c-0.1-0.3-0.2-0.7-0.3-1C0,50.9,0,49,0,47c0.1-0.3,0.2-0.7,0.3-1
		c0.4-0.6,0.1-1.3,0.2-1.9c0-0.2,0-0.5,0-0.7c0.2-1.1,0.4-2.1,0.5-3.2c0.2,0,0.5,0,0.7,0c0.3,0,0.6,0.1,0.7-0.3
		c0.1-0.6-0.1-1-0.4-1.5c-0.2-0.3-0.2-0.7,0.2-0.9c0.3-0.2,0.6-0.1,0.7,0.4c0.1,0.5-0.2,1,0.3,1.5c0.1,0.1,0.1,0.1,0.2,0.2
		c-0.1,0.6,0.4,0.8,0.6,1.3c0.1,0.1,0.2,0.2,0.3,0.4c0.4,0.8,1.1,1.5,1.2,2.3c0.2,1.7,1.5,2.3,2.6,3c0,0,0,0.1,0,0.1
		c1,0.7,2,0.2,3.1,0.3c1.8,1.1,3.7,1.9,4.8,3.8c0.2,0.4,0.8,0.6,1.2,0.8c0.4,0.1,0.9,0.3,1.3-0.2c0.4-0.2,0.8-0.1,1.1,0.3
		c0,0.8,0,1.6,0,2.4c0,0.6-0.4,1-0.7,1.4c-1.3,1.5-1,3.4-0.4,4.8c1.2,2.5,2.7,4.9,5.1,6.5c0.4,0.3,0.8,0.6,0.9,1.2
		c0.2,0.9-0.4,2,0.4,2.9l0.1,0c0,0.2,0.1,0.4,0.1,0.6c0,0,0,0.1,0,0.1c0.1,0.1,0.1,0.2,0.2,0.2c0.1,0.1,0.1,0.2,0.2,0.3
		c0,0.8,0,1.6,0,2.4c0.1,0.6-0.3,1.2,0.3,1.7c0,0,0.1,0,0.1,0c0.1,1.5-0.2,3,0.2,4.5c0.1,0.2,0.2,0.4,0.3,0.6
		c0.2,0.4,0.4,0.8,0.6,1.2c0,0,0,0.1,0,0.1c0,0.4,0,0.8,0,1.2c0.1,0.2,0.1,0.4,0.2,0.6c0,0.2,0.1,0.3,0.1,0.5c0,0-0.1,0-0.1,0
		c-0.1,0.1-0.1,0.2-0.2,0.3c0,0.3,0,0.5,0,0.8c0.1,0.1,0.3,0.3,0.4,0.4c1.2,0.7,1.2,2.3,2.5,2.9c0.3,0.6,1.3,0.8,1.4,0.5
		c0.2-1.3,1.7-2.5,0.2-3.9c-0.1,0-0.1,0-0.2,0c-0.2-0.6-0.7-1.2-0.5-1.9c0.7-0.4,0.5-0.9,0.1-1.4c0,0-0.1,0-0.1,0c0-0.2,0-0.3,0-0.5
		c0.3-0.1,0.7,0.1,0.9-0.3c0-0.1,0-0.1,0-0.2c-0.1-1.5,1.6-0.5,2-1.4c0.1,0,0.1,0,0.2,0c0.4-0.3,0.4-0.6,0.1-0.9
		c-0.1,0-0.1-0.1-0.2-0.1c0.2-0.5-0.9-1.3-0.2-1.3c2.3,0.1,2.6-2.1,4.1-2.9c0.1,0,0.1-0.1,0.2-0.1c0.4-0.4,0.1-1,0.3-1.5
		c0-0.5,0-1,0-1.5c0,0,0-0.1,0-0.1c0.6-0.2,1.1-0.5,1.7-0.5c1.4-0.1,2.1-0.8,2.2-2.2c0,0,0.1,0,0.1,0c0.6-0.5,0.2-1.1,0.3-1.7
		c0-0.6,0-1.3,0-1.9c0.1-0.2,0.3-0.4,0.4-0.7c0.3-1.6,2.2-2.3,2-4.1c0,0,0-0.1,0-0.2c-0.5-0.5-0.9-0.4-1.4-0.1
		c-0.1,0.1-0.1,0.1-0.2,0.2c-1-0.5-1.5-1.8-2.8-1.9c0-0.1,0-0.1,0-0.2c-0.3-0.4-0.7-0.4-1,0c0,0.1,0,0.1,0,0.2c-0.2,0-0.4,0-0.7,0
		c-0.1-0.4,0.1-0.9-0.5-0.9c-0.4,0-0.7,0-1.1,0c-0.3,0-0.5,0-0.8-0.1c0-0.8-0.6-0.4-0.9-0.5c-0.2-0.1-0.4-0.2-0.5-0.3l0-0.1
		c0,0,0.1-0.1,0.1-0.1c0.7-0.5,0.7-0.9,0-1.4c-0.6-1.5-2.2-1.9-3.4-2.7c-2.2-1.5-4.5-2.5-7.1-3c-0.2,0-0.4,0-0.6,0
		c-0.7-0.3-1,0.2-1.5,0.6c-0.6,0.5-0.9,1.4-1.9,1.1c-0.1-0.1-0.2-0.2-0.3-0.3c-2.5,0.4-3.5-0.6-3-3.1c0-0.1-0.1-0.2-0.1-0.3
		c-0.2-0.7-0.7-0.3-1.1-0.4c-0.3-0.1-0.5-0.2-0.8-0.3c0-0.4,0-0.8,0-1.2c0.2-0.5,0.8-0.8,0.5-1.4c0,0,0-0.1,0-0.1
		c-0.5-0.5-0.9-0.5-1.4,0c0,0.1,0,0.1,0,0.2c-0.4,0.3-0.3,1-1,1c-0.6,0-1.1,0-1.7,0c-0.8,0-1-0.6-1.3-1.2c0-0.8,0-1.6,0-2.4
		c0.4-2.1,1.6-3.2,3.7-3.1c0.1,0.1,0.1,0.1,0.2,0.2c0.5,0.4,1,0.4,1.5,0c0-0.1,0-0.1,0.1-0.2c1.4-0.9,3.3,0,3.7,1.8
		c0.1,0.4-0.2,0.9,0.5,1c0.2,0.3,0.4,0.6,0.7,0.4c0.2-0.1,0.2-0.5,0.3-0.8c0.1-1.2-0.6-2.8,1.3-3.2c1.7-0.3,2-1.6,2.3-2.9
		c0.1-0.3,0.1-0.6,0.3-0.7c2.1-1.4,4.3-2.8,6.4-4.2c0.2,0,0.3,0,0.5,0.1c0.8,1.4,1.7,0.2,2.5,0.1c0.3,0,1,0,0.9-0.5
		c-0.1-0.4-0.2-1-0.8-1.1c-0.4,0-0.8,0-1.2,0c-0.5-1.5,0.3-1.7,1.5-1.6c0.6,0,1.1,0,1.7,0c-0.7,0.7-0.3,1.1,0.5,1.4
		c0.3,0.4,0.6,0.4,0.9,0c2-0.5-0.3-1.1,0-1.6c0.1-0.5,0.7-0.8,0.5-1.3c0-0.1,0.1-0.2,0.1-0.3c0.2-0.3,0.5-0.5-0.1-0.7
		c-0.2,0-0.5,0-0.7,0c-0.4,0-0.8,0-1.1,0c0.9-0.9-0.2-2,0.2-2.9c0.1-0.3,0.3-0.6,0-0.8c-0.3-0.2-0.6-0.1-0.8,0.2
		c-0.3,0.3-0.6,0.5-0.9,0.7c-0.1,0-0.3,0-0.4-0.1c0-0.4-0.1-0.8-0.5-1c0-0.2-0.1-0.5-0.4-0.5c0-0.1-0.1-0.1-0.1-0.2
		c-0.6-0.4-1.3-0.4-1.9,0c-0.1,0.1-0.1,0.2-0.2,0.2c-1.5,1.7-2.3,4-4.6,5.1c-0.4,0.2-0.5,0.9-1.1,0.7c-0.7-0.2-0.3-0.8-0.4-1.2
		c0.1,0,0.1,0,0.2,0c0.5-0.2,0.3-0.4,0.1-0.7c-0.1-0.1-0.2-0.1-0.3-0.2c-0.1-0.1-0.1-0.1-0.2-0.2l-0.1,0c-0.5-0.3-1-0.5-1.6-0.8
		c-0.1-0.1-0.2-0.2-0.2-0.3c0,0,0,0,0,0c-0.1-0.1-0.2-0.2-0.3-0.3l0,0c0.3-0.8,0.9-1.3,1.6-1.8c1.6-1.1,3.4-1.3,5.2-1.3
		c0.1,0,0.3,0,0.4,0c0.1,0,0.1,0,0.2,0c0.3-0.9,1.1-1.1,1.9-1.2c0.5-0.1,0.5,1,1.3,0.7l0,0c0.1,0.6,0.5,0.5,0.9,0.5
		c0.4,0.4,0.5,1.1,1.3,0.9c0.4-0.2-0.1-0.8,0.5-0.9c0.3,0,0.5-0.1,0.8-0.1c0,0,0.1,0,0.1,0l0.1,0c0.5-0.3,0.4-0.5-0.1-0.7l-0.1,0
		c0.3-1.2,1.3-0.2,1.8-0.5c0.7-0.2,0.7-0.5,0.2-0.9c-0.1,0-0.1,0-0.2,0c-0.2-0.2-0.3-0.3-0.5-0.5c-0.1-0.3-0.2-0.6-0.2-0.9
		c-0.1,0-0.2,0-0.3,0c0,0,0,0,0,0c0-0.1,0-0.2,0-0.2c-0.3-0.1-0.6-0.2-0.9-0.3c-0.3-0.2-0.7-0.3-1-0.5c-0.4-0.4-0.7-0.9-1.1-1.3
		c0-0.1-0.1-0.2-0.1-0.2c-0.2-0.1-0.3-0.2-0.5-0.3c-0.8-0.2-1.7-0.3-2.5-0.5c-0.7,0.1-0.6,0.5-0.3,1c0.1,0,0.2,0.1,0.3,0.1l0,0
		c0.1,0.6,0.9,0.4,1.1,0.8c-0.6,0.3-1.4-0.3-2,0.2c-0.1,0.1-0.1,0.1-0.1,0.2c0,0.1-0.1,0.1-0.1,0.2c0,0.2,0,0.4,0.1,0.6
		c0.2,0.2,0.3,0.4,0.5,0.7c-0.1,0.1-0.3,0.2-0.4,0.3c-0.1,0.1-0.2,0.1-0.3,0.2c-1,0.9-1.7,0-2-0.6c-0.5-0.9-0.4-1-1.4-0.5
		c-0.1,0.1-0.1,0.3-0.2,0.4c0,0.2,0,0.4,0,0.7c-0.7,0.9-1.7,0.4-2.6,0.5c1-0.3,0.7-1.2,0.6-1.7c-0.2-0.9-0.8-1.4-1.8-1.1
		c-1,0.3-1.9-0.3-2.9-0.5l0-0.1c-0.4-0.6-0.9-0.4-1.4-0.1c-0.1,0.1-0.2,0.2-0.2,0.2c-0.2,0-0.3,0-0.5,0c-0.2-0.1-0.5-0.2-0.7-0.3
		c0.5-0.4,0.9-0.8,1.4-1.2c0.3,0,0.6-0.1,0.6-0.5c1.8-1.6,3.8-2.9,5.8-4.1c5-2.9,10.3-5.1,16-5.9c0.5-0.2,1.2,0.3,1.6-0.3
		c0.3-0.1,0.7-0.1,1-0.2c0.4,0,0.7,0,1.1,0c1-0.1,2,0.3,2.9-0.2C47.3,0.2,47.3,0.1,47.3,0z M37.9,8.4c-0.2-0.4-0.6-0.3-1-0.3
		c-0.6,0.4-2.4,0-1.7,0.6c2,1.6-0.2,1.2-0.5,1.6c-0.1,0-0.1,0.1-0.1,0.2c0,0.5-0.2,1,0.2,1.5c0.1,0,0.2,0,0.2,0l0,0.1
		c0.3,0.9,1.2,0.9,1.7,0.7c0.9-0.2,1.6-0.7,2.6-0.8l0.1,0c0,0.1,0.1,0.2,0.1,0.2c0.6,0.4,1.3,0.1,1.9,0.2c0.5,0,1.1,0,1.5-0.4
		c1.8,1.1,1.7,2.7,0.6,4c-1.5,1.8-0.5,2.8,0.6,4c1.2,1,2.2,0.9,2.9-0.6c0.1-0.3,0.4-0.7,0.7-0.8c2.5-0.5,4.5-2.3,7.1-2.5
		c0.8,0,2.2,0.1,2.4-0.8c0.4-2,1.7-3.2,3.2-4.2c0.8-0.6,1.2-0.9,0.2-1.6c-0.1,0-0.1,0-0.2,0c0,0,0-0.1,0-0.1
		c-0.6-0.7-1.4-0.2-2.1-0.4c-0.8-0.2-1.6-0.3-2.4-0.5c-1,0.1-2.1-0.3-3.1,0.3C52.6,9,52.3,9,52.1,9.1c-0.7-0.2-1.1,0.4-1.7,0.5
		c-0.6,0-1.3,0-1.9,0c-1.1,0-2.2,0-3.4,0c-1.1,0.6-1.4-1.2-2.5-0.9c-1.2,0-2.4,0-3.5,0c-0.4,0-0.8-0.1-1.2-0.1
		C37.9,8.6,37.9,8.5,37.9,8.4z M57.6,18.4c0-0.1,0-0.1,0-0.2c0.5-0.2,1-0.3,1.4-0.5c0.8-0.3,0.2-0.5,0-0.8c-0.3-0.3-0.6-0.3-1,0
		c-0.1,0.1-0.2,0.2-0.2,0.2c-0.6,0.5-2.1-0.9-2,1c0.1,0.1,0.2,0.2,0.3,0.2C56.7,18.8,57.1,18.9,57.6,18.4z M20.1,42.5
		c-0.7-0.4-1.5-0.4-2.2,0c-0.1,0.1-0.1,0.1-0.2,0.2c-0.3,0-0.4,0.2-0.4,0.5c0,0.1,0,0.2,0,0.3c0.8,1,2,0.2,2.9,0.7
		c0.1,0,0.2,0,0.3,0c0.1,0.1,0.2,0.1,0.3,0.2c0.6,0.1,1.2,0.2,1.9,0.3c-0.1,0.8,0.1,1.1,1,1c0.6-0.1,1.3,0,1.9,0
		c-0.6,0.5-1.5-0.2-2.1,0.4c0.8,0,1.6,0,2.4,0c0.1,0,0.2,0,0.2,0c0.2,0,0.6,0,0.5-0.3c0-0.2-0.3-0.3-0.5-0.4c0-0.7-0.5-0.7-1-0.7
		c-0.8,0-1.6,0-2.4,0c0-0.1,0-0.2,0-0.3c0-0.1,0-0.3,0-0.4c-0.1-0.1-0.2-0.1-0.2-0.2c0,0-0.1,0-0.1,0c-0.6-0.3-1.2-0.7-1.9-1
		C20.2,42.6,20.1,42.6,20.1,42.5z M33.2,10.6c0.3-0.1,0.9,0.1,0.9-0.5c0-0.7-0.6-0.5-1-0.5c-0.4,0-1-0.2-1,0.5
		C32.1,10.7,32.8,10.5,33.2,10.6z M26.5,14c0.4-0.2,0.9,0,1-0.5c0-0.4-0.2-0.6-0.5-0.4c-0.4,0.2-1.1,0.1-1.4,0.6
		C25.8,13.8,26.2,13.9,26.5,14z"/>
	<path class="st1" d="M15.8,86.3c1.9,0.8,3.8,1.5,5.7,2.3c8,3.3,16.3,4.3,24.9,3.1c6.7-0.9,12.9-3.1,18.8-6.4
		c2.7-1.5,5.1-3.3,7.4-5.4c0.9-0.8,0.5-3.3-0.2-4.5c-1.9-3.2-2.8-6.6-1.9-10.3c0.4-1.8-0.4-3.1-1.1-4.5c-0.6-1.4-1.2-2.8-0.9-4.3
		c0.1-0.6-0.1-1.2-0.5-1.2c-1.6,0-2.6-1.9-4.3-1.5c0-0.1,0-0.1,0-0.2c0.1-0.1,0.1-0.1,0.2-0.2c0.3-0.1,0.5-0.2,0.8-0.3
		c0.6,0,1.2,0,1.9,0c0.1,0.2,0.3,0.5,0.4,0.7c0.4,0.4,1,0.2,1.5,0.2c0.3,0.3,0.6,0.5,0.9,0.8c0.2,1.1-0.4,2.2,0.2,3.3
		c-0.1,1.1,0.9,1.7,1.2,2.5c0.1,0.3,0.1,0.6,0.2,0.9c0.1,0.2,0.2,0.4,0.2,0.6c0,0.2,0,0.4,0.1,0.6c0,0.4,0,0.8,0,1.1
		c0,0.2-0.1,0.4-0.1,0.6c-0.4,1.3-0.2,2.6,0,4c0.1,0.6,0.2,1.3,0.3,1.9c0.3,0.7,0.5,1.4,0.8,2.1c0.1,0.3,0.1,0.7,0.2,1
		c0.9,1.3,1.7,2.7,1.7,4.4c0.4,0.4,0.8,0.3,1.2,0c2,0.3,3.4-0.8,4.8-2.1c1.4-1.3,2-3.1,3.4-4.4c0.1-0.9,0.2-1.7,0.3-2.6
		c2.6-2,2.8-4.8,2.4-7.8c-0.1-1.5,0.4-2.7,1.3-3.8c2.4-1.7,4.2-3.9,5.5-6.6c0.3-0.3,0.3-0.6,0-1c-0.9-0.6-1.5,0.3-2.2,0.5
		c-0.3,0.1-0.6,0.2-0.9,0.3c-0.3,0-0.7,0-1,0.1l0-0.1c0.1-0.2,0.3-0.5,0-0.6c-0.3-0.1-0.7,0.1-0.7,0.6c-0.6-0.8-1.2-1.6-1.8-2.3
		c0.6-1.3-0.4-1.5-1.2-1.9c-0.1,0-0.1-0.1-0.2-0.1c-0.1-0.2-0.1-0.5-0.2-0.7c-0.6-1.9-1.8-3.6-2.7-5.4c-0.2-0.4-0.8-0.7-0.6-1.3
		c0-0.1,0.3-0.2,0.4-0.2c0.5,0.3,1.2,0.5,1.3,0.9c0.4,1.6,1.4,2.7,2.2,4c0.1,0.4,0.2,0.7,0.2,1.1c0.7,0.9,1.9,1.5,2,2.8
		c0.1,0.4,0.1,0.7,0.2,1.1c0.1,0,0.1,0.1,0.2,0.1l0,0c0,0.3,0.2,0.4,0.5,0.3c0.2,0,0.3,0,0.5,0c0.3,0,0.7,0.1,0.9-0.2
		c0.1,0,0.1-0.1,0.2-0.1c2.4-1.2,4.8-2.5,6.4-4.8c0.3-0.5,0.5-0.8-0.3-1.1c-1.2-0.5-2-2.2-3.7-0.8c-0.2,0.1-0.8-0.3-1.2-0.4
		c-1.1-0.4-0.7-2-1.9-2.3c0-0.3,0-0.7,0.1-1c0.6-0.1,1.2-0.1,1.6,0.4c2,2.5,4.8,2.7,7.6,2.8c0.2,1.5,0.4,2.9,0.5,4.4
		c0,0.5,0,1.1,0,1.6c0,0.4-0.2,0.9,0.2,1.3c0,0.8,0,1.6,0,2.4c-0.5,0.7-0.1,1.4-0.2,2.2c0,0.4,0,0.8,0,1.2
		c-1,11.3-5.3,21.1-12.9,29.4c-8.2,8.9-18.3,14.2-30.3,15.7c-0.2,0-0.5,0.1-0.7,0.1c-0.4,0-0.8,0.1-1.2,0.1c-0.5,0-1.1,0-1.6,0
		c-0.4,0-0.9-0.2-1.2,0.2c-1.1,0-2.2,0-3.4,0c-0.4-0.4-0.8-0.2-1.3-0.2c-0.5,0-1.1,0-1.6,0c-0.4,0-0.8,0-1.2-0.1
		c-0.2-0.1-0.5-0.1-0.7-0.2c-1.9-0.3-3.8-0.6-5.6-1C29.4,96.2,22,92.3,15.8,86.3z M89.9,72c1-1.9,1.3-4.1,2.7-5.9
		c0.3-0.4,0.4-1.3-0.3-1.7c-0.7-0.4-1.2,0.3-1.5,0.8c-0.3,0.5-0.8,0.8-1.3,1c-1.1,0.5-2.1,4.5-1.2,5.4c0.2,0.2,0.5,0.3,0.8,0.4
		C89.3,72.3,89.6,72.3,89.9,72z"/>
	<path class="st0" d="M99.6,53c0.1-0.7-0.2-1.5,0.2-2.2c0,0.7,0,1.4,0,2.2C99.8,53,99.7,53,99.6,53z"/>
	<path class="st2" d="M0.2,54.5c-0.1,0-0.1,0-0.2,0c0-0.6,0-1.1,0-1.7c0.1,0.3,0.2,0.7,0.3,1C0.3,54,0.2,54.2,0.2,54.5z"/>
	<path class="st2" d="M44.2,0c0.1,0.1,0.2,0.2,0.2,0.3c0,0.1,0,0.1,0,0.2c-0.4,0-0.8,0-1.1,0c0.2-0.2,0.3-0.3,0.5-0.5
		C43.8,0,44,0,44.2,0z"/>
	<path class="st2" d="M99.6,45.6c0.1,0,0.1,0,0.2,0c0,0.6,0,1.1,0,1.7c-0.1,0-0.1,0-0.2-0.1C99.6,46.7,99.6,46.1,99.6,45.6z"/>
	<path class="st2" d="M0,45.4c0.1,0,0.1,0,0.2,0c0,0.2,0.1,0.5,0.1,0.7c-0.1,0.3-0.2,0.7-0.3,1C0,46.5,0,45.9,0,45.4z"/>
	<path class="st2" d="M54.5,99.6c0,0.1,0,0.1,0,0.2c-0.6,0-1.1,0-1.7,0c0-0.1,0-0.1,0-0.2C53.4,99.6,53.9,99.6,54.5,99.6z"/>
	<path class="st2" d="M45.4,99.8c0-0.1,0-0.1,0-0.2c0.5,0,1.1,0,1.6,0c0,0.1,0,0.1,0.1,0.2C46.5,99.8,45.9,99.8,45.4,99.8z"/>
	<path class="st2" d="M99.6,53c0.1,0,0.2,0,0.2,0c0,0.4,0,0.8,0,1.2l-0.1,0c0,0-0.1,0-0.1,0C99.6,53.8,99.6,53.4,99.6,53z"/>
	<path class="st2" d="M53.8,0c0,0.1,0,0.1,0,0.2c-0.4,0-0.8,0-1.2,0c0-0.1,0-0.2,0-0.2C53,0,53.4,0,53.8,0z"/>
	<path class="st2" d="M46.1,0.2c0-0.1,0-0.1,0-0.2c0.4,0,0.8,0,1.2,0c0,0.1,0,0.2,0,0.2C46.9,0.2,46.5,0.2,46.1,0.2z"/>
	<path class="st0" d="M99.6,47.2c0.1,0,0.1,0,0.2,0.1c0,0.4,0,0.8,0,1.2C99.4,48.1,99.6,47.7,99.6,47.2z"/>
	<path class="st0" d="M47,99.8c0-0.1,0-0.1-0.1-0.2c0.4,0,0.9-0.2,1.3,0.2C47.8,99.8,47.4,99.8,47,99.8z"/>
	<path class="st0" d="M52.8,99.6c0,0.1,0,0.1,0,0.2c-0.4,0-0.8,0-1.2,0C52,99.4,52.4,99.6,52.8,99.6z"/>
	<path class="st3" d="M72.2,72.4c-0.3-0.7-0.5-1.4-0.8-2.1c-0.1-0.7,0.3-1.4-0.3-1.9c-0.2-1.3-0.4-2.6,0-4c0.6,0,0.2-0.5,0.3-0.7
		c0-0.4,0-0.7,0-1.1c0-0.2,0.2-0.5-0.2-0.6c-0.1-0.2-0.2-0.4-0.2-0.6c-0.1-0.3,0.2-0.7-0.2-0.9c-0.4-0.9-1.3-1.4-1.2-2.5
		c-0.1-1.1,0.3-2.2-0.2-3.3c-0.3-0.3-0.6-0.5-0.9-0.8c-0.4-0.5-1-0.1-1.5-0.2c-0.1-0.2-0.3-0.5-0.4-0.7c-0.6-0.4-1.2-0.4-1.9,0
		c-0.3,0.1-0.5,0.2-0.8,0.3c-1.1,0.1-2.3,0.1-3.4,0.2c0,0.1,0,0.2-0.1,0.2c-2.8,0.4-6.4-3.5-6.2-6.7c0-0.1,0-0.2,0-0.3
		c0.1-0.1,0.3-0.2,0.4-0.3c1.2-1.2-0.4-2.4,0-3.6c1.1-1.5,2.1-3.1,3.6-4.3c0.5-0.4,0.2-1.8,1.2-2.4c0.4-0.2,0.8-0.4,1.2-0.5
		c0.9,0,1.8,0.3,2.6-0.2c0-0.1,0.1-0.1,0.1-0.2c0.5-0.2,1.1-0.3,1.6-0.5c0.7,0,1.5,0,2.2,0c0.8,0.4,1.5-1.1,2.4-0.1
		c0.1,0.5-0.3,1,0.2,1.4c0.1,0.1,0.2,0.2,0.3,0.3c1.2,0.3,2.3,0.7,3.2,1.6c0.3,0.3,1.1,0.3,1.3-0.3c0.6-1.7,1.7-1.1,2.7-0.6
		c0.8,0.5,1.7,0.6,2.6,0.5c0.7,0,1.5,0.3,2.1-0.2c1.4-0.4,0.8-1.6,0.9-2.6c0-0.4-0.3-0.6-0.7-0.6c-0.8,0-1.6,0-2.3,0.1
		c-0.5,0-0.9,0-1.4,0c0.1-0.7-2.3-1.9,0.5-2c0.1,0,0.2-0.3,0.4-0.4c1.4,0.3,2.8-1.3,4.1,0c0.3,0.7,0.8,0.6,1.3,0.2
		c1.6-1,0-1.4-0.4-2c-0.4-0.6-2.8-0.6-0.5-1.9c0,0,0-0.3-0.1-0.4c-0.1-0.3-0.3-0.2-0.5-0.2c0,0.1,0.1,0.1,0.1,0.2
		c-0.5,0.5-1.6,0.5-1.4,1.6c-0.3,0-0.7,0.1-1,0.1c0,0,0,0,0,0c-0.1-0.3,0.2-0.7-0.2-0.9c-0.9-0.3-1.4,0.1-1.7,0.9
		c-0.4,0.4-0.6,0.9-0.4,1.5c0.1,0.3,0.1,0.6,0.2,0.9c-0.4,0-0.7,0.1-1.1,0.1c-0.4,0-0.7,0-1.1,0c-0.3,0-0.7-0.2-0.9,0.2
		c0.2,0.7,1,1.1,0.9,2c-0.3,0.3-0.5,0.7-0.9,0.7c-0.2-0.1-0.3-0.2-0.5-0.3c0-0.2,0-0.4,0-0.7c0.3-0.2,0.8-0.4,0-0.6
		c-0.4-0.1-0.9-0.1-1-0.7c0-0.4,0.2-0.8-0.2-1.1c-0.6-1-1.8-1.2-2.6-1.7c-0.2-0.1-0.6-0.3-0.7-0.2c-0.3,0.3,0.1,0.6,0.3,0.8
		c0.3,0.4,0.7,0.8,1.2,1c1.3,0.4,1.4,1.4,1.2,2.5c-0.2,0-0.5,0-0.7,0c-0.1-0.6-0.2-1.1-0.3-1.7c-0.5-0.5-1.1-0.2-1.6-0.2
		c-0.5-0.9-0.6-2.4-2.2-1.7c-0.5,0.2-0.9,0.3-1.3,0.2c-0.8-0.2-1.2,0.2-1.2,1c-0.4,0.3-0.8,0.7-1.2,1c-0.2,0.2-0.3,0.3-0.5,0.5
		c-0.4,0.1-0.5,0.4-0.4,0.8c-0.1,0.1-0.1,0.2-0.2,0.3c-0.3,0.1-0.6,0.3-0.8,0.4c-0.3,0.1-0.5,0.1-0.8,0.2c-0.4,0.2-0.8,0.1-1.2,0
		c-2.1-0.7-1-2.1-0.8-3.3c0-0.3,0-0.7,0-1c0-0.1,0-0.2,0.1-0.2c0.8,0,1.5,0.8,2.3,0.4c0.6,0,0.9-0.4,0.9-0.9
		c-0.1-0.8-0.7-1.2-1.4-1.5c-0.1-0.8,0.4-0.9,1-1c1.3-0.4,2.6-0.6,3.4-1.8c0.8-0.3,1.6-0.7,2.3-1c0.6,0,1.2,0,1.7,0
		c1.2-0.2,2.4-0.3,3.6-0.5c0.3,0,0.5-0.1,0.5-0.5c0-0.3,0.1-0.6,0.1-0.9c0.2,0,0.5,0,0.7,0c0.3,0,0.7,0.1,0.6-0.4
		c0.2-1.1,1.4,0,1.8-0.8c0.3-0.3,1.1,0,0.9-0.6c-0.1-0.6-0.7-0.3-1.2-0.2c-1.2,0.1-2.7,0.8-2.9-1.3c0.2-0.2,0.3-0.5,0.5-0.7
		c0.2-0.2,0.7-0.5,0.3-0.8c-0.4-0.3-0.7,0.2-1,0.6l-0.1,0C74.1,17.9,74,17.9,74,18c-0.5,0.4-1.2,0.8-0.9,1.7
		c0.2,0.2,0.3,0.5,0.5,0.7c-0.4,1.1-1.1,2-2.4,2.3c-0.5-1.2-1.3-1.8-2.7-1.7c-0.7,0.1-1.1-0.7-1.2-1.4c0.2-0.3,0.4-0.7,0.7-0.9
		c3.7-2.6,7.3-5.4,12.3-3.4c0.1,0.1,0.1,0.1,0.2,0.2c0.2,0.5,0.7,0.2,1,0.2c0.3,0.1,0.8-0.1,0.7,0.4c-0.2,0.5-0.8,0.6-1.3,0.5
		c-0.5-0.1-1.1-0.7-1.4,0c-0.3,0.6,0.5,0.8,0.9,1.2c0.1,0.4,0.4,0.5,0.7,0.4c0.3-0.1,0-0.3-0.1-0.4c0.1-0.9,0.6-0.3,0.9-0.3
		c0.4,0.3,0.9,0.4,1.3,0c0.1-0.1,0.2-0.2,0.3-0.3c0.3,0.7,0.5,1.3,0.9,2c2.1,4.1,3.7,8.3,4.6,12.8c0.4,2,0.8,4,1.2,6
		c0,0.3,0,0.7-0.1,1c0,0.5,0,1,0,1.6c0,2.8,0.1,5.6-0.5,8.3c-0.2,0-0.3,0-0.5,0c-0.1-0.2-0.2-0.4-0.5-0.3c0,0,0,0,0,0
		c-0.1-0.3-0.1-0.6-0.2-1c-0.1-0.1-0.1-0.2-0.2-0.3c-0.1-1.3-1.3-1.9-2-2.8c-0.1-0.4,0.3-0.8-0.2-1.1c-0.8-1.3-1.9-2.4-2.2-4
		c-0.1-0.4-0.9-0.6-1.3-0.9c-0.1,0-0.3,0.1-0.4,0.2c-0.2,0.6,0.4,0.9,0.6,1.3c0.9,1.8,2.1,3.4,2.7,5.4c0,0.3-0.1,0.5,0.2,0.7
		c0.1,0,0.1,0.1,0.2,0.1c0,0.9,0.7,1.3,1.2,1.9c0.6,0.8,1.2,1.6,1.8,2.3c0.2,0,0.5,0,0.7,0c0,0,0,0.1,0,0.1c0,2.3-1,4.5-1.4,6.7
		c-0.9,1.1-1.4,2.3-1.3,3.8c-2.9,6.2-6.4,11.9-11.2,16.8c-0.3,0-0.6,0-1,0.1c0-1.7-0.8-3-1.7-4.4C72.4,73.1,72.7,72.7,72.2,72.4z"/>
	<path class="st3" d="M1,40.3c1.2-6.8,3.9-12.9,7.8-18.6c1.6-2.4,3.5-4.6,5.5-6.7c1.1,0.6,2.7-0.2,3.6,1.1c0.5,0.5,1.1,0.1,1.6,0.2
		c0.6,0.7,1.1,0.5,1.7,0c0.5,0,1,0,1.6,0c0.4,0,0.7,0,1.1,0c0.9-0.1,1.9,0.4,2.6-0.5c0.1,0,0.2,0,0.2,0c0.4-0.4,0.4-0.7,0-1.1
		c1.1-0.5,0.9-0.4,1.4,0.5c0.4,0.6,1,1.5,2,0.6c0.5,0,1,0,1.4,0c0.5,0.6,0,0.8-0.5,1c-1.2,0-2.4-0.2-3.6,0.1c0,0.1,0,0.2,0,0.2
		c-0.1,0-0.2,0.1-0.2,0.1c-0.2,0.2-0.5,0.3-0.5,0.7c-0.5,0.2-1.2,0.1-1.6,0.7c-0.4,0.1-0.7,0.1-1.1,0.2c0,0.1,0,0.1,0,0.2
		c-1,0.5-2.2,1-1.9,2.5c0,0.3,0.1,0.4,0.3,0.4c0.1,0,0.2,0,0.3,0.1c0,0,0,0,0,0c0.1,0.1,0.2,0.2,0.2,0.3c0.5,0.3,1,0.5,1.6,0.8
		c0.1,0.4,0.3,0.7,0.4,1.1c0.1,0.4-0.3,1,0.4,1.2c0.6,0.2,0.7-0.5,1.1-0.7c2.2-1.1,3-3.4,4.6-5.1c0.7,0,1.5,0,2.2,0
		c0.3,0,0.4,0.2,0.4,0.5c0,0.4-0.1,0.8,0.2,1c0.2,0.2,0.5,0.2,0.7,0c0.3-0.2,0.6-0.5,0.9-0.7c0.3-0.3,0.6-0.4,0.8-0.2
		c0.3,0.2,0.1,0.5,0,0.8c-0.4,0.9,0.7,2-0.2,2.9c0,0.1,0,0.2,0.1,0.3c0.3,0.3,0.5,0.4,0.7-0.1c0.1-0.1,0.3-0.1,0.4-0.2
		c0.2,0,0.5,0,0.7,0c0,0.2,0,0.5,0.1,0.7c0,0.1-0.1,0.2-0.1,0.3c-0.2,0.1-0.5,0.3-0.7,0.4c-0.2,0-0.5-0.1-0.6,0.2
		c-0.4,0.1-0.8,0.2-1.3,0.2c-1.8,0-3.6,0-5.2,1c0,0.2-0.2,0.4-0.1,0.5c0.1,0.3,0.4,0.2,0.6,0.1c0.6-0.1,1.6-1.8,1.5,0.5
		c0,0.5,0.4,0.3,0.7,0.3c0.4,0,0.8,0,1.2,0c0,0.1,0.1,0.2,0.1,0.3c0,0.1,0,0.3,0,0.4c-0.3,0.1-0.5,0.2-0.8,0.3
		c-0.2,0-0.5-0.2-0.6,0.2c-0.4,0.1-0.9,0.2-1.3,0.3c-0.2,0-0.3,0-0.5-0.1c-0.7-0.9-1.5-0.3-1.9,0.1c-2.1,1.9-5.4,2.5-6.1,5.9
		c-2.6,1-3.1,3.2-3.4,5.5c-0.7-0.1-0.4-0.7-0.5-1c-0.4-1.7-2.3-2.7-3.7-1.8c-0.6,0-1.1,0-1.7,0c-2-0.1-3.3,1-3.7,3.1
		c-0.1,0.1-0.1,0.2-0.2,0.3c-0.3,0.6-0.3,1.3,0,1.9c0.1,0.1,0.1,0.2,0.2,0.2c0.2,0.6,0.5,1.1,1.3,1.2c0.1,0.1,0.2,0.2,0.3,0.2
		c0.4,0.4,0.8,0.4,1.3,0c0-0.1,0.1-0.1,0.1-0.2c0.6,0,0.6-0.7,1-1c0.5,0,0.9,0,1.4,0c0.3,0.6-0.3,0.9-0.5,1.4c-0.1,0-0.1,0-0.2,0
		c-0.3,0.3-0.3,0.6,0,1c0.1,0.1,0.2,0.2,0.2,0.3c0.3,0.1,0.5,0.2,0.8,0.3c0.4,0.1,0.8,0.2,1.1,0.4c0,0.1,0.1,0.2,0.1,0.3
		c-0.5,2.5,0.5,3.5,3,3.1c0.1,0.1,0.2,0.2,0.3,0.3c1,0.2,1.4-0.6,1.9-1.1c0.4-0.4,0.7-1,1.5-0.6c-0.1,0.3-0.2,0.5-0.3,0.8
		c-0.2,0.5-0.3,1.2,0.5,1.1c0.7-0.2,0.1-1.1,0.4-1.6c0-0.1,0-0.2,0.1-0.2c2.6,0.5,4.9,1.5,7.1,3c1.2,0.8,2.7,1.2,3.4,2.7
		c0,0.1,0,0.1,0,0.2c0,0.3,0,0.7,0,1c0,0.1,0,0.2,0,0.2c0,0-0.1,0-0.1,0.1c-0.6,0.2-0.5,0.5-0.2,0.8c0.4,0.1,0.6-0.1,0.7-0.4
		c0.4,0,0.9-0.3,0.9,0.5c-0.2,0-0.6,0.2-0.3,0.4c0.4,0.4,0.9,0.1,1.2-0.3c0.4,0,0.7,0,1.1,0c0,0.1,0,0.1,0,0.2
		c0,0.3-0.2,0.5,0.2,0.7c0.1,0,0.2,0,0.3,0.1c0.2,0,0.4,0,0.7,0c0.4,0,0.7,0,1.1,0c1.3,0.1,1.8,1.4,2.8,1.9c0.5,0,1.1,0,1.6,0
		c0.2,1.8-1.7,2.6-2,4.1c-0.1,0.2-0.3,0.5-0.4,0.7c-0.4,0.6-0.1,1.3-0.2,2c0,0.2,0,0.3,0,0.5c-0.4,0.3-0.2,0.7-0.2,1.1
		c-0.1,1.4-0.8,2.1-2.2,2.2c-0.6,0-1.1,0.3-1.7,0.5c-1,1-0.2,2.2-0.4,3.3c-1.5,0.8-1.8,3-4.1,2.9c-0.7,0,0.4,0.8,0.2,1.3
		c0,0.4,0,0.7,0,1.1c-0.3,0.9-2.1-0.1-2,1.4c-0.3,0.1-0.6-0.2-0.8,0.2c0,0.1,0,0.2-0.1,0.3c0,0.2,0,0.3,0,0.5c0,0.4,0,0.8,0,1.2
		c0,0.1,0,0.1,0,0.2c-0.3,0.7,0.2,1.3,0.5,1.9c0,0.3,0,0.5,0,0.8c-0.2,0.5-0.7,1-0.5,1.7c0.2,0.8-0.2,1.1-1,1
		c-1.3-0.6-1.3-2.3-2.5-2.9c-0.1-0.1-0.3-0.3-0.4-0.4c0-0.3,0-0.5,0-0.8C26.9,85.1,27,85,27,85c0,0,0.1,0,0.1,0
		c0.1-0.8,0.5-1.6-0.3-2.3c-0.2-0.4-0.4-0.8-0.6-1.2c0-0.2,0.2-0.6-0.3-0.6c-0.4-1.5-0.1-3-0.2-4.5c0-0.5,0-1,0-1.5
		c-0.1,0-0.1,0-0.2,0c0,0,0,0.1,0,0.1c-0.1-0.1-0.1-0.2-0.2-0.3c0-0.8,0-1.6,0-2.4c0-0.3,0.2-0.7-0.4-0.7c0-0.2-0.1-0.4-0.1-0.6
		c-0.1-0.9,0.3-1.9-0.3-2.7c-0.1,0-0.1-0.1-0.2-0.1c0-0.6-0.5-0.9-0.9-1.2c-2.4-1.6-3.9-4-5.1-6.5c-0.6-1.4-0.9-3.3,0.4-4.8
		c0.4-0.4,0.7-0.8,0.7-1.4c0.1,0,0.1-0.1,0.2-0.1c0.4-0.7,0.4-1.4,0-2.1c-0.1,0-0.2-0.1-0.2-0.1c-0.3-0.4-0.7-0.5-1.1-0.3
		c-0.4,0.1-0.8,0.1-1.3,0.2c-0.4-0.3-1-0.5-1.2-0.8c-1.1-2-3.1-2.8-4.8-3.8c-0.1-0.1-0.2-0.2-0.3-0.3c-0.9-0.5-1.9-0.1-2.8-0.2
		c-1.1-0.8-2.4-1.4-2.6-3c-0.1-0.8-0.8-1.6-1.2-2.3c0-0.2,0-0.4-0.3-0.4c-0.2-0.4-0.7-0.7-0.6-1.3c-0.1-0.5,0.3-1.1-0.2-1.6
		C3,38,3,37.9,2.9,37.9c0-0.4-0.3-0.5-0.7-0.4c-0.4,0.2-0.4,0.6-0.2,0.9c0.2,0.5,0.5,1,0.4,1.5c-0.2,0.1-0.5,0.2-0.7,0.3
		C1.4,40.3,1.2,40.3,1,40.3z"/>
	<path class="st3" d="M45.1,9.6c1.1,0,2.2,0,3.4,0c0.1,0.1,0.1,0.1,0.2,0.2c0.5,0.4,1,0.5,1.5,0c0.1-0.1,0.1-0.1,0.2-0.2
		c0.6-0.1,1-0.7,1.7-0.5c1.2-0.1,2.3,0.3,3.5-0.3c0.1-0.1,0.2-0.1,0.3-0.2c0.8,0.2,1.6,0.3,2.4,0.5c0.1,0.1,0.2,0.2,0.3,0.2
		c0.5,0.5,1.2,0.1,1.8,0.2c0.1,0,0.1,0,0.2,0c-1.1,1.2-2.3,2.5-3.5,3.7c-0.2,0.2-0.8,0.1-1.2,0.1c-0.3-0.2-0.5-0.3-0.7,0.1
		c0,0.5,0.4,0.4,0.7,0.5c0.4,0.2,0.8,0.4,0.8,0.9c-0.1,0.6-0.6,0.5-1,0.5c-0.7,0.1-1.5-0.3-2.2,0.3c-1.7,0-2.8,1.7-4.5,1.7
		c-0.3,0-0.7-0.2-0.9,0.2c-0.7,0.3-1.3,0.6-1.6,1.4c-0.4,1-1.2,1.5-2.3,1.3c-1.1-1.2-2.1-2.3-0.6-4c1.1-1.3,1.2-2.9-0.6-4
		c-0.3,0-0.6,0-0.9,0c-0.9,0-1.8,0-2.7-0.1c0,0-0.1,0-0.1,0c0-0.5,0.3-0.8,0.7-0.8c1.5,0,2.7-0.8,4.1-1.1c0.3-0.1,0.7,0.3,0.8-0.3
		C45,9.7,45.1,9.7,45.1,9.6z"/>
	<path class="st1" d="M81.6,17.5c-0.4-0.1-0.9-0.7-0.9,0.3c-0.2,0-0.4,0-0.6,0c-0.4-0.4-1.2-0.6-0.9-1.2c0.3-0.7,1-0.1,1.4,0
		c0.5,0.1,1.1,0.1,1.3-0.5c0.1-0.5-0.4-0.3-0.7-0.4c-0.3-0.1-0.7-0.2-1-0.2c-0.1-0.1-0.1-0.1-0.2-0.2c0.4-0.1,1.1,0.3,1.3-0.3
		c0.1-0.4-0.3-1-0.6-1.3c-1.5-2-3.1-3.9-4.7-5.8C76,7.8,76,7.6,75.9,7.3c3.9,2.3,7.4,5.1,10.4,8.5c-0.9,0.9-1.8,0.3-2.7,0
		c-0.5,0.4,0,0.9-0.3,1.3l0,0.1c-0.1,0.1-0.2,0.2-0.3,0.3C82.5,17.5,82.1,17.5,81.6,17.5z"/>
	<path class="st1" d="M22.1,21.6c-0.3-1.5,0.8-2,1.9-2.5c0.3-0.1,0.6-0.1,0.9-0.2c0.1-0.1,0.1-0.1,0.2-0.2c0.4-0.6,1-0.5,1.6-0.7
		c0.4-0.1,0.5-0.4,0.5-0.7c0.1,0,0.2-0.1,0.2-0.1c0.7-0.1,1.4-0.1,2-0.2c0.5,0,1.1,0.2,1.6-0.2c0.5-0.2,0.9-0.4,0.5-1
		c-0.1-0.1-0.2-0.2-0.2-0.2c-0.2-0.1-0.3-0.2-0.5-0.2c-0.2-0.2-0.3-0.4-0.5-0.7c0.3-0.1,0.7-0.2,1-0.3c1.5,0.3,3.1,0.1,4.3,1.5
		c0,0.1,0,0.1,0.1,0.1c0,0.3,0,0.5,0,0.8l0,0c-0.3,0-0.7,0-1,0.1c-0.8-0.3-1.5,0.2-2,0.6c-0.3,0.3,0.4,0.5,0.6,0.7
		c-0.8,0.3-0.8-0.8-1.3-0.7c-0.7,0.1-1.6,0.2-1.9,1.2c0.1-0.3,0.1-0.5-0.2-0.7c-0.7-0.4-1.5-0.5-2.2-0.1c0.4,0.7,1.1,0.1,1.5,0.4
		c0.1,0.1,0.2,0.2,0.3,0.4c-1.8,0-3.6,0.2-5.2,1.3c-0.7,0.5-1.3,1-1.6,1.8C22.4,21.7,22.2,21.7,22.1,21.6z"/>
	<path class="st1" d="M44.2,20.1c1.1,0.2,1.9-0.2,2.3-1.3c0.3-0.8,1-1,1.6-1.4c0.3-0.1,0.6-0.1,0.9-0.2c1.7,0,2.8-1.7,4.5-1.7
		c0.7-0.1,1.4-0.2,2.2-0.3c0.4-0.1,1,0.1,1-0.5c0.1-0.5-0.4-0.7-0.8-0.9c-0.3-0.1-0.7-0.1-0.7-0.5c0.2,0,0.5,0,0.7-0.1
		c0.4,0,1,0.1,1.2-0.1c1.2-1.2,2.3-2.4,3.5-3.7c1,0.6,0.6,1-0.2,1.6c-1.5,1.1-2.8,2.2-3.2,4.2c-0.2,1-1.6,0.8-2.4,0.8
		c-2.6,0.2-4.6,1.9-7.1,2.5c-0.3,0.1-0.5,0.5-0.7,0.8C46.4,21,45.4,21.1,44.2,20.1z"/>
	<path class="st3" d="M33.1,18.2c-0.2-0.2-0.9-0.4-0.6-0.7c0.5-0.4,1.2-0.9,2-0.6c0,0.1,0,0.1,0,0.2c0.3,0.3,0.6,0.3,0.9,0
		c0-0.1,0-0.2,0-0.2c0,0,0,0,0,0c0.1,0,0.2,0,0.2,0c0.3-0.4,0.4-0.8-0.3-0.9c-1.1-1.3-2.8-1.1-4.3-1.5c-0.4-0.1-0.8,0.1-1-0.3
		c0-0.1,0-0.1,0.1-0.2c1.1,0,2.3,0,3.4,0c0.6,0,1.2,0,1.8,0c0.3,0.2,0.7,0.3,1,0.5c0.1,0.1,0.1,0.1,0.2,0.2c0.1,0.6,0.5,0.2,0.8,0.3
		c0,0,0,0,0,0c0.1,0.3-0.2,0.7,0.2,0.9c0.1,0,0.2,0,0.3,0c0.2,0.2,0.3,0.3,0.5,0.5c0,0.2,0,0.5,0,0.7c0,0.1,0,0.2-0.1,0.3
		c-0.6,0.4-1.5-0.7-1.8,0.5c0,0.2,0,0.5,0,0.7c-0.3,0-0.5,0.1-0.8,0.1c-1.4-0.3-0.1,0.7-0.5,0.9c-0.7,0.2-0.9-0.5-1.3-0.9
		C33.9,18.3,33.5,18.2,33.1,18.2L33.1,18.2z"/>
	<path class="st3" d="M34.7,10.4c0.3-0.4,2.5,0,0.5-1.6c-0.7-0.6,1.1-0.2,1.7-0.6c0,0.1,0.1,0.1,0.1,0.2c0.2,0.5,0.6,0.2,0.9,0.2
		c0.4,0,0.8,0.1,1.2,0.1c0.1,0.1,0.2,0.1,0.3,0.2c1.2,0.6,2.6-0.2,3.8,0.4c-0.2,0.1-0.5,0.2-0.7,0.3c-0.3,0.1-0.5,0.1-0.8,0.2
		c-0.1,0.1-0.1,0.1-0.2,0.2c-0.6,0.2-1.3,0.3-1.9,0.6c-1.4,0.8-2.8,1.6-4.6,1.4c0,0,0-0.1,0-0.1c0-0.3,0-0.5-0.1-0.8
		c0-0.1,0-0.2,0-0.3C35,10.6,35.1,10.4,34.7,10.4z"/>
	<path class="st1" d="M19.7,41.2c0.3-2.4,0.8-4.6,3.4-5.5c0.6-3.4,4-4,6.1-5.9c0.4-0.4,1.2-0.9,1.9-0.1c-2.1,1.4-4.3,2.8-6.4,4.2
		c-0.2,0.1-0.3,0.5-0.3,0.7c-0.3,1.3-0.6,2.6-2.3,2.9c-1.9,0.4-1.2,2-1.3,3.2c0,0.3-0.1,0.7-0.3,0.8C20.1,41.9,19.8,41.5,19.7,41.2z
		"/>
	<path class="st1" d="M54.2,47c-0.2,3.2,3.4,7,6.2,6.7c1,0,1.9,0,2.9,0c-1.3,1.4-5.6,1.3-7.1-0.3c-1-1-1.9-2.2-2.6-3.4
		C52.9,49,53,47.9,54.2,47z"/>
	<path class="st1" d="M17.8,16.1c-0.9-1.3-2.4-0.6-3.6-1.1c0.8-0.8,1.7-1.6,2.5-2.3c0.2,0.1,0.5,0.2,0.7,0.3
		c-0.2,0.6-1.6,0.3-1.1,1.3c0.2,0.5,0.9,0.2,1.3-0.1c0.4,0,0.9,0.1,1.3,0.1c0,0.2,0.9,0.3,0.1,0.6c-0.4,0.1-0.7,0.2-0.5,0.7
		c0.2,0.5,0.8,0.4,1.1,0.2c0.7-0.5,1.4-0.4,2.2-0.3c0.5,0.3,0.9,0.3,1.4,0c0.3-0.1,1,0.1,0.5-0.7c0.1-0.9-0.4-1.2-1.2-1
		c0-0.1-0.1-0.2-0.1-0.2c1-0.3,1.6,0.2,1.8,1.1c0.1,0.6,0.5,1.4-0.6,1.7c-0.4,0-0.7,0-1.1,0c-0.5-0.3-1-0.4-1.6,0
		c-0.6,0.5-1.1,0.7-1.7,0C18.9,16.2,18.3,16.2,17.8,16.1z"/>
	<path class="st3" d="M21.9,15.4c-0.8-0.1-1.5-0.1-2.2,0.3c-0.3,0.2-0.8,0.3-1.1-0.2c-0.2-0.5,0.1-0.6,0.5-0.7
		c0.8-0.3-0.1-0.4-0.1-0.6c-0.4-0.5-0.9-0.4-1.3-0.1c-0.4,0.3-1.1,0.6-1.3,0.1c-0.4-1,0.9-0.7,1.1-1.3c0.2,0,0.3,0,0.5,0
		c0.5,0,1.1,0,1.6,0c1,0.2,1.8,0.8,2.9,0.5c0,0.1,0.1,0.2,0.1,0.2c0.4,0.3,0.8,0.7,1.2,1c0.5,0.7-0.3,0.5-0.5,0.7
		C22.8,15.4,22.3,15.4,21.9,15.4z"/>
	<path class="st3" d="M62.6,25.9c-0.5,0-0.7-0.2-0.7-0.7c0.2-0.2,0.3-0.5,0.5-0.7c0.9-0.3,0.6-0.9,0.1-1.2c-0.6-0.4-0.9-0.8-0.6-1.4
		c0.1-0.3,0.5-0.6,0.6-0.6c0.5,0.3,0.9,0.7,0.6,1.3c1,0.3,0.6,2,2,1.9c0.3,0,0.4,0.2,0.4,0.4c-0.5,0.4-0.9,0.7-1.4,1.1
		C63.8,26,63.2,25.9,62.6,25.9z"/>
	<path class="st1" d="M60.7,35.5c-0.4,0.2-0.8,0.4-1.2,0.5c0.3-0.5,0.5-1-0.4-1.1c-0.2,0-0.6-0.4-0.5-0.6c0.3-1.5-0.1-3.4,1.4-4.5
		c0,0.1,0,0.2-0.1,0.2c-0.4,0.3-0.3,0.7,0,1c-0.1,1.2-1.3,2.6,0.8,3.3c0.5,0.2,0.8,0.2,1.2,0c0.3,0,0.5,0,0.8,0c0.4,0,0.8,0,0.8-0.6
		c0.1-0.1,0.1-0.2,0.2-0.3c0,0.5,0.2,1.2-0.7,1.2c-0.2,0-0.5,0-0.3,0.3c0.1,0.1,0.4,0.1,0.5,0.1c0,0.1-0.1,0.1-0.1,0.2
		C62.4,35.4,61.5,35,60.7,35.5z"/>
	<path class="st1" d="M35.1,12.1c1.7,0.1,3.1-0.6,4.6-1.4c0.6-0.3,1.3-0.4,1.9-0.6c0.2-0.1,0.4-0.1,0.7-0.2c0.1-0.1,0.2-0.1,0.3-0.2
		c0.2-0.1,0.5-0.2,0.7-0.3c0.3-0.6-0.2-0.4-0.5-0.5c0-0.1-0.1-0.1-0.1-0.2c1-0.3,1.3,1.5,2.5,0.9c-0.1,0.1-0.1,0.1-0.2,0.2
		c-0.3,0.1-0.5,0.2-0.8,0.3c-1.4,0.3-2.6,1.1-4.1,1.1c-0.4,0-0.7,0.3-0.7,0.8c-0.9,0.1-1.7,0.6-2.6,0.8
		C36.2,12.9,35.4,12.9,35.1,12.1z"/>
	<path class="st1" d="M67.2,19.7c0.1,0.7,0.5,1.5,1.2,1.4c1.4-0.2,2.2,0.4,2.7,1.7c0.5,1-0.6,0.7-0.8,1.1c-0.5,0-1.1,0-1.6,0
		c0.1-0.6,1.3,0.2,1-0.9c-0.2-1-0.9-0.8-1.6-0.8c-0.8,0-1.5-0.3-1.7-1C66.2,20.6,66.4,19.8,67.2,19.7z"/>
	<path class="st1" d="M32.9,28.3c-0.3,0-0.8,0.2-0.7-0.3c0.1-2.3-0.9-0.5-1.5-0.5c-0.3-0.1-0.6-0.2-0.5-0.6c1.6-0.9,3.4-1,5.2-1
		c0.4,0,0.8-0.1,1.3-0.2c0.2-0.1,0.4-0.2,0.6-0.2c0.2-0.1,0.5-0.3,0.7-0.4c0.2,0.6-0.4,0.9-0.5,1.3c-0.5-0.2-1,0-1.4,0.2
		c-0.6,0-1.1,0-1.7,0C33.1,26.6,32.3,26.8,32.9,28.3z"/>
	<path class="st3" d="M20.4,44.2c-0.1,0-0.2,0-0.3,0C20.1,44.1,20,44,20,43.9l0,0c-0.3-0.7-1-0.7-1.6-0.6c-0.4,0-0.7,0-1.1-0.1
		c0-0.3,0.1-0.5,0.4-0.5c0.9,0,1.7,0,2.6,0c0.6,0.3,1.2,0.7,1.9,1C21.8,44.6,20.9,43.9,20.4,44.2z"/>
	<path class="st1" d="M29.8,89.3c0.7,0.1,1.2-0.2,1-1c-0.2-0.7,0.3-1.1,0.5-1.7c0-0.3,0.1-0.5,0.1-0.8c1.4,1.4-0.1,2.6-0.2,3.9
		C31.1,90.2,30.1,89.9,29.8,89.3z"/>
	<path class="st1" d="M54.7,42.7c-0.5,1.2,1.2,2.4,0,3.6c-0.1,0.1-0.3,0.2-0.4,0.3c0-1.2-1.1-2.4,0-3.7
		C54.4,42.9,54.6,42.8,54.7,42.7z"/>
	<path class="st3" d="M36,26.7c0.4-0.3,0.9-0.4,1.4-0.2c-0.3,0.5,2,1.1,0,1.6c-0.3,0-0.6,0-0.9,0C35.8,27.8,35.3,27.4,36,26.7z"/>
	<path class="st3" d="M25.4,45.6c-0.6,0-1.3-0.1-1.9,0c-0.8,0.1-1.1-0.2-1-1c0,0,0,0,0,0c0.8,0,1.6,0,2.4,0c0.5,0,1,0,1,0.7
		C25.8,45.4,25.6,45.5,25.4,45.6z"/>
	<path class="st1" d="M61.9,27.8c0.7,0.3,1.3,0.7,1.4,1.5c0,0.5-0.3,0.9-0.9,0.9c-0.2-0.3-0.4-0.8-0.7-1
		C60.8,28.5,60.9,28.1,61.9,27.8z"/>
	<path class="st3" d="M34.3,12.3c0,0.1,0.1,0.2,0.1,0.2c-1,0.9-2.1,0.2-3.1,0.1c0,0,0,0,0,0c0-0.1,0-0.1-0.1-0.2c0-0.2,0-0.5,0-0.7
		c0-0.1,0-0.1,0.1-0.2c0.8,0.2,1.7,0.3,2.5,0.5C33.9,12.1,34.1,12.2,34.3,12.3z"/>
	<path class="st3" d="M59.1,17.8c-0.5,0.2-1,0.3-1.4,0.5c-0.6,0-1.2,0-1.7,0c-0.2-1.9,1.4-0.6,2-1C58.3,17.4,58.9,16.9,59.1,17.8z"
		/>
	<path class="st1" d="M31.3,12.6c1,0.1,2.1,0.8,3.1-0.1c0.4,0.4,0.7,0.9,1.1,1.3c-0.6,0-1.2,0-1.8,0c-0.1-0.1-0.2-0.1-0.2-0.2
		c-0.4-0.1-0.7-0.1-1.1-0.2C32.1,13,31.4,13.2,31.3,12.6z"/>
	<path class="st1" d="M33.4,29.3c0.3-0.1,0.5-0.2,0.8-0.3c0-0.1,0-0.3,0-0.4c0-0.1-0.1-0.2-0.1-0.3c0.7,0.1,0.8,0.7,0.8,1.1
		c0.1,0.5-0.6,0.4-0.9,0.5c-0.8,0.1-1.7,1.3-2.5-0.1c0.4-0.1,0.9-0.2,1.3-0.3C33,29.5,33.2,29.4,33.4,29.3z"/>
	<path class="st3" d="M61.2,25c-0.5,0-1.2,0.4-1.6-0.1c-0.4-0.4,0.5-0.6,0.4-1c0.2-0.1,0.4-0.2,0.7-0.4c0.1,0,0.1,0,0.2,0
		c0.3,0,0.6,0,0.8,0c0.1,0.3,0.1,0.7,0.2,1C61.7,24.6,61.5,24.8,61.2,25z"/>
	<path class="st3" d="M33.2,10.6c-0.4-0.1-1.1,0.1-1.1-0.5c0-0.6,0.6-0.5,1-0.5c0.4,0,1-0.2,1,0.5C34.1,10.7,33.5,10.5,33.2,10.6z"
		/>
	<path class="st1" d="M64.4,26c0.5-0.4,0.9-0.7,1.4-1.1c0.2,0,0.4,0,0.5,0c-0.8,1.2-2.1,1.5-3.4,1.8c0.1-0.3-0.5-0.3-0.2-0.7
		C63.3,26.1,63.8,26,64.4,26z"/>
	<path class="st3" d="M26.5,14c-0.3-0.1-0.6-0.2-0.9-0.3c0.3-0.6,0.9-0.4,1.4-0.6c0.3-0.2,0.5,0.1,0.5,0.4
		C27.3,14.1,26.8,13.9,26.5,14z"/>
	<path class="st1" d="M20,43.9c0.1,0.1,0.1,0.2,0.2,0.3c-0.9-0.5-2.1,0.3-2.9-0.7c0.4-0.1,0.7-0.1,1.1-0.2
		C19,43.2,19.6,43.1,20,43.9C20,43.9,20,43.9,20,43.9z"/>
	<path class="st1" d="M24.1,49.5c0,0.1,0,0.2-0.1,0.2c-0.3,0.5,0.3,1.4-0.4,1.6c-0.8,0.2-0.7-0.5-0.5-1.1c0.1-0.3,0.2-0.5,0.3-0.8
		C23.7,49.5,23.9,49.5,24.1,49.5z"/>
	<path class="st1" d="M25.4,45.6c0.2-0.1,0.4-0.2,0.6-0.3c0.2,0.1,0.5,0.3,0.5,0.4c0,0.3-0.3,0.3-0.5,0.3c-0.1,0-0.2,0-0.2,0
		c-0.8,0-1.6,0-2.4,0C23.9,45.4,24.8,46.2,25.4,45.6z"/>
	<path class="st3" d="M29.3,18.7c-0.1-0.1-0.2-0.3-0.3-0.4c-0.5-0.3-1.2,0.3-1.5-0.4c0.8-0.4,1.5-0.3,2.2,0.1c0,0.2,0,0.4,0,0.7
		C29.6,18.7,29.5,18.7,29.3,18.7z"/>
	<path class="st1" d="M52.6,0.2c0.4,0,0.8,0,1.2,0c0.8,0.1,1.6,0.2,2.4,0.3c-1.2,0-2.5,0-3.7,0c0,0-0.1,0-0.1-0.1
		C52.4,0.4,52.5,0.3,52.6,0.2z"/>
	<path class="st4" d="M42.7,8.7c0,0.1,0.1,0.1,0.1,0.2c-1.1,0-2.2,0-3.4,0c-0.1-0.1-0.2-0.1-0.3-0.2C40.3,8.7,41.5,8.7,42.7,8.7z"/>
	<path class="st2" d="M55.6,8.9c-1.1,0.6-2.3,0.2-3.5,0.3C52.3,9,52.6,9,52.8,8.9C53.7,8.9,54.6,8.9,55.6,8.9z"/>
	<path class="st2" d="M37.5,74.9c0.3-1.1-0.6-2.3,0.4-3.3c0,0,0,0.1,0,0.1c-0.4,0.4-0.1,0.9-0.2,1.3c0,0.6,0,1.1,0,1.7
		C37.6,74.8,37.5,74.9,37.5,74.9z"/>
	<path class="st4" d="M63.4,53.7c-1,0-1.9,0-2.9,0c0-0.1,0-0.2,0.1-0.2c1.1,0,2.1,0,3.2,0c0,0.1,0,0.1,0,0.2
		C63.6,53.7,63.5,53.7,63.4,53.7z"/>
	<path class="st2" d="M33.4,13.7c0.1,0.1,0.2,0.1,0.2,0.2c-1.1,0-2.3,0-3.4,0c0-0.1,0-0.1,0.1-0.2C31.4,13.7,32.4,13.7,33.4,13.7z"
		/>
	<path class="st1" d="M46.1,0.2c0.4,0,0.8,0,1.2,0c-0.9,0.6-1.9,0.1-2.9,0.2c0-0.1,0-0.1,0-0.2C45,0.2,45.5,0.2,46.1,0.2z"/>
	<path class="st1" d="M11,46.8c0.1,0.1,0.2,0.2,0.3,0.3c-1-0.2-2.1,0.4-3.1-0.3C9.1,47.1,10,46.7,11,46.8z"/>
	<path class="st4" d="M33.4,13.7c-1,0-2,0-3.1,0c0.6-0.5,1.4,0,2-0.2C32.7,13.5,33.1,13.6,33.4,13.7z"/>
	<path class="st1" d="M55.6,8.9c-0.9,0-1.8,0-2.8,0.1c1-0.6,2.1-0.1,3.1-0.3C55.8,8.7,55.7,8.8,55.6,8.9z"/>
	<path class="st2" d="M20.4,44.2c0.6-0.2,1.4,0.4,1.8-0.5c0,0,0.1,0,0.1,0c0.1,0.1,0.2,0.1,0.2,0.2c0,0.1,0,0.3,0,0.4
		c-0.6,0-1.2,0-1.9,0C20.6,44.3,20.5,44.3,20.4,44.2z"/>
	<path class="st2" d="M24.7,68.3c0.6,0.8,0.2,1.8,0.3,2.7c0,0-0.1,0-0.1,0C24.8,70.1,24.7,69.2,24.7,68.3z"/>
	<path class="st2" d="M11,46.8c-0.9-0.1-1.9,0.3-2.8-0.1c0,0,0-0.1,0-0.1C9.1,46.7,10.1,46.3,11,46.8z"/>
	<path class="st1" d="M24.7,68.3c0.1,0.9,0.1,1.8,0.2,2.7c-0.8-0.9-0.2-1.9-0.4-2.9C24.5,68.2,24.6,68.3,24.7,68.3z"/>
	<path class="st2" d="M39.4,12c0.9,0,1.8,0,2.7,0.1c-0.2,0.1-0.3,0.1-0.5,0.2c-0.7,0-1.4,0-2.1,0C39.4,12.1,39.4,12.1,39.4,12z"/>
	<path class="st2" d="M26.9,82.6c0.8,0.7,0.4,1.5,0.3,2.3c0-0.2-0.1-0.3-0.1-0.5c0-0.1,0-0.3,0-0.4c0-0.4,0.2-0.9-0.2-1.3L26.9,82.6
		z"/>
	<path class="st4" d="M17.9,42.5c0.7-0.4,1.5-0.4,2.2,0C19.3,42.5,18.6,42.5,17.9,42.5z"/>
	<path class="st2" d="M17.9,42.5c0.7,0,1.5,0,2.2,0c0.1,0.1,0.1,0.1,0.2,0.2c-0.9,0-1.7,0-2.6,0C17.7,42.6,17.8,42.6,17.9,42.5z"/>
	<path class="st1" d="M1.5,61.6C1.3,61.1,1.2,60.5,1,60C1.8,60.4,1.3,61.1,1.5,61.6z"/>
	<path class="st4" d="M10,43.9c-0.1-0.1-0.1-0.2-0.2-0.2c0-0.6,0-1.3,0-1.9c0.1-0.1,0.1-0.2,0.2-0.3C10,42.3,10,43.1,10,43.9z"/>
	<path class="st1" d="M19.9,54.1c-0.1,0-0.1,0.1-0.2,0.1c0-0.8,0-1.6,0-2.4c0.1,0,0.2,0.1,0.2,0.1C19.9,52.7,19.9,53.4,19.9,54.1z"
		/>
	<path class="st2" d="M59.1,17.8c-0.1-0.8-0.8-0.3-1.2-0.5c0.1-0.1,0.2-0.2,0.2-0.2c0.3,0,0.6,0,1,0C59.3,17.2,59.8,17.5,59.1,17.8z
		"/>
	<path class="st1" d="M61.2,25c0.2-0.2,0.5-0.3,0.7-0.5c0.2,0,0.4,0,0.5,0c-0.2,0.2-0.3,0.5-0.5,0.7C61.7,25.2,61.5,25.1,61.2,25z"
		/>
	<path class="st1" d="M40.6,1c0.5-0.1,1.1-0.2,1.6-0.3C41.8,1.3,41.1,0.8,40.6,1z"/>
	<path class="st1" d="M57.6,0.6c0.5,0.1,1.1,0.2,1.6,0.3C58.7,0.8,58.1,1.3,57.6,0.6z"/>
	<path class="st1" d="M58.6,9.4c-0.1-0.1-0.2-0.2-0.3-0.2c0.7,0.2,1.5-0.4,2.1,0.4C59.8,9.4,59.2,9.4,58.6,9.4z"/>
	<path class="st2" d="M33.2,19.7c-0.7,0-1.5,0-2.2,0c0.1-0.1,0.1-0.2,0.2-0.2c0.6,0,1.3,0,1.9,0C33.1,19.5,33.1,19.6,33.2,19.7z"/>
	<path class="st4" d="M39.5,12.2c0.7,0,1.4,0,2.1,0c0,0.1-0.1,0.2-0.1,0.2C40.8,12.4,40.1,12.6,39.5,12.2z"/>
	<path class="st1" d="M36.8,57.6c-0.3,0.4-0.7,0.7-1.2,0.3c-0.2-0.2,0.1-0.4,0.3-0.4C36.2,57.6,36.5,57.6,36.8,57.6z"/>
	<path class="st4" d="M35.3,19.6c0.4-0.2-1-1.3,0.5-0.9C35.2,18.8,35.7,19.4,35.3,19.6z"/>
	<path class="st1" d="M35,10.9c0,0.1,0,0.2,0,0.3c-0.1,0.3-0.1,0.5-0.2,0.8c-0.4-0.4-0.2-1-0.2-1.5C34.7,10.6,34.8,10.8,35,10.9z"/>
	<path class="st1" d="M0.2,54.5c0-0.2,0.1-0.5,0.1-0.7c0.4,0.6,0.1,1.3,0.2,1.9c-0.1,0-0.1,0-0.2,0C0.3,55.3,0.2,54.9,0.2,54.5z"/>
	<path class="st1" d="M41.4,12.5c0-0.1,0.1-0.2,0.1-0.2c0.2-0.1,0.3-0.1,0.5-0.2c0.3,0,0.6,0,0.9,0C42.5,12.5,42,12.5,41.4,12.5z"/>
	<path class="st1" d="M34.6,55.4c0-0.1,0-0.1,0-0.2c0.7,0.5,0.7,1,0,1.4c0-0.1,0-0.2,0-0.2C34.9,56.1,34.9,55.7,34.6,55.4z"/>
	<path class="st1" d="M0.3,46.1c0-0.2-0.1-0.5-0.1-0.7c0-0.4,0.1-0.8,0.1-1.2c0,0,0.1,0,0.1,0l0.1,0C0.4,44.8,0.7,45.5,0.3,46.1z"/>
	<path class="st1" d="M33.1,19.5c-0.6,0-1.3,0-1.9,0C31.8,19.1,32.5,19,33.1,19.5z"/>
	<path class="st1" d="M42,67.7c0-0.2,0-0.3,0-0.5c0.1,0,0.1,0,0.2-0.1c-0.1,0.6,0.4,1.2-0.3,1.7C42,68.5,42,68.1,42,67.7z"/>
	<path class="st1" d="M48.7,9.8c-0.1-0.1-0.1-0.1-0.2-0.2c0.6,0,1.3,0,1.9,0c-0.1,0.1-0.1,0.1-0.2,0.2C49.7,9.8,49.2,9.8,48.7,9.8z"
		/>
	<path class="st4" d="M20.7,44.4c0.6,0,1.2,0,1.9,0c0,0.1,0,0.2,0,0.3c0,0,0,0,0,0C21.9,44.6,21.3,44.5,20.7,44.4z"/>
	<path class="st1" d="M33.1,18.2c0.4,0,0.8,0,0.9,0.5C33.6,18.7,33.2,18.8,33.1,18.2z"/>
	<path class="st2" d="M58.6,9.4c0.6,0,1.2,0.1,1.8,0.1c0,0,0,0.1,0,0.1C59.8,9.5,59.2,9.9,58.6,9.4z"/>
	<path class="st2" d="M25.7,74.9c0,0,0-0.1,0-0.1c0,0,0.1,0,0.2,0c0,0.5,0,1,0,1.5c0,0-0.1,0-0.1,0C25.7,75.8,25.7,75.4,25.7,74.9z"
		/>
	<path class="st4" d="M42.2,67.2c-0.1,0-0.1,0.1-0.2,0.1c0-0.7-0.2-1.3,0.2-2C42.2,65.9,42.2,66.5,42.2,67.2z"/>
	<path class="st2" d="M55.9,18.3c0.6,0,1.2,0,1.7,0c0,0.1,0,0.1,0,0.2c-0.5,0-0.9,0.1-1.4,0.1C56.1,18.4,56,18.4,55.9,18.3z"/>
	<path class="st2" d="M3.1,38c0.5,0.5,0.2,1,0.2,1.6c-0.1-0.1-0.1-0.1-0.2-0.2C3.1,38.9,3.1,38.5,3.1,38z"/>
	<path class="st1" d="M33.8,21.2c-0.4-0.3-0.3-0.7-0.2-1c0.4,0.2,0.5,0.6,0.5,1C34,21.2,33.9,21.2,33.8,21.2z"/>
	<path class="st4" d="M16.7,47.5c-0.4-0.1-0.8-0.2-1.1-0.4C16,47.2,16.6,46.8,16.7,47.5z"/>
	<path class="st2" d="M64.4,26c-0.6,0.1-1.1,0.1-1.7,0.2c0-0.1,0-0.1-0.1-0.2C63.2,25.9,63.8,26,64.4,26z"/>
	<path class="st2" d="M68.6,23.8c0.5,0,1.1,0,1.6,0c0,0.1,0,0.1,0.1,0.2c-0.6,0-1.2,0-1.7,0C68.6,23.9,68.6,23.9,68.6,23.8z"/>
	<path class="st1" d="M13,45.1c0,0.1-0.1,0.1-0.1,0.2c-0.4,0-0.8,0-1.3,0c-0.1-0.1-0.2-0.2-0.3-0.2C11.8,45.1,12.4,45.1,13,45.1z"/>
	<path class="st2" d="M44.6,60.4c-0.5,0-1.1,0-1.6,0c0.1-0.1,0.1-0.1,0.2-0.2c0.5,0,1,0,1.4,0.1C44.6,60.3,44.6,60.4,44.6,60.4z"/>
	<path class="st2" d="M19.7,12.9c-0.5,0-1.1,0-1.6,0c0.1-0.1,0.2-0.2,0.2-0.2c0.5,0,1,0.1,1.4,0.1L19.7,12.9z"/>
	<path class="st2" d="M26.6,14.7c0.5,0.3,0.4,0.7,0,1.1c-0.1-0.2-0.1-0.4-0.2-0.6C26.5,15,26.5,14.8,26.6,14.7z"/>
	<path class="st2" d="M13.7,38.4c0.6,0,1.1,0,1.7,0c0,0.1,0,0.1-0.1,0.2c-0.5,0-1,0-1.5,0C13.8,38.6,13.8,38.5,13.7,38.4z"/>
	<path class="st4" d="M37.6,74.8c0-0.6,0-1.1,0-1.7c0.1,0.1,0.1,0.1,0.2,0.2C37.8,73.8,38.1,74.3,37.6,74.8z"/>
	<path class="st2" d="M25,24.2c-0.1-0.4-0.3-0.7-0.4-1.1c0,0,0.1,0,0.1,0c0.1,0.1,0.1,0.1,0.2,0.2c0.1,0.1,0.2,0.1,0.3,0.2
		c0,0.2,0,0.5-0.1,0.7C25.1,24.2,25,24.2,25,24.2z"/>
	<path class="st1" d="M25.7,74.9c0,0.5,0.1,0.9,0.1,1.4c-0.6-0.5-0.2-1.1-0.3-1.7C25.5,74.7,25.6,74.8,25.7,74.9z"/>
	<path class="st1" d="M30.8,84c0-0.1,0-0.1,0-0.2c0.4-0.4,0.2-0.8,0.1-1.2C31.3,83.1,31.5,83.6,30.8,84z"/>
	<path class="st2" d="M30.2,14.1c0.2,0.4,0.7,0.3,1,0.3c-0.3,0.1-0.7,0.2-1,0.3C30.2,14.5,30.2,14.3,30.2,14.1z"/>
	<path class="st1" d="M13.9,38.6c0.5,0,1,0,1.5,0C14.9,39.1,14.4,39,13.9,38.6z"/>
	<path class="st1" d="M19.7,12.8c-0.5,0-1-0.1-1.4-0.1C18.7,12.4,19.2,12.3,19.7,12.8z"/>
	<path class="st4" d="M17.3,51.7c0.4-0.1,0.8-0.1,1.3-0.2C18.2,52,17.7,51.8,17.3,51.7z"/>
	<path class="st1" d="M44.6,60.3c-0.5,0-1,0-1.4-0.1C43.7,59.9,44.2,59.8,44.6,60.3z"/>
	<path class="st1" d="M56.2,18.5c0.5,0,0.9-0.1,1.4-0.1C57.1,18.9,56.7,18.8,56.2,18.5z"/>
	<path class="st2" d="M15.3,44.2c-0.5,0-0.9,0-1.4,0c0-0.1,0-0.1,0-0.2c0.5,0,0.9,0,1.4,0C15.3,44.1,15.3,44.1,15.3,44.2z"/>
	<path class="st1" d="M39.1,58.3c0.3-0.4,0.6-0.5,1,0C39.8,58.3,39.5,58.3,39.1,58.3z"/>
	<path class="st1" d="M74.7,6.7c0.3,0.2,0.6,0.3,1,0.5C75.2,7.2,74.8,7.2,74.7,6.7z"/>
	<path class="st1" d="M35,57.1c-0.1,0.3-0.4,0.5-0.7,0.4c0.1-0.2,0.1-0.5,0.2-0.7C34.7,56.9,34.9,57,35,57.1z"/>
	<path class="st1" d="M3.1,38c0,0.5,0,0.9,0,1.4c-0.5-0.4-0.2-1-0.3-1.5C3,37.9,3,38,3.1,38z"/>
	<path class="st1" d="M37.9,73.3c-0.1-0.1-0.1-0.1-0.2-0.2c0.1-0.4-0.2-0.9,0.2-1.3C37.9,72.3,37.9,72.8,37.9,73.3z"/>
	<path class="st2" d="M31.2,15.6c0.1,0.1,0.2,0.2,0.2,0.2c-0.5,0-1,0-1.4,0c0.1-0.1,0.2-0.1,0.3-0.2C30.6,15.6,30.9,15.6,31.2,15.6z
		"/>
	<path class="st1" d="M15.3,44c-0.5,0-0.9,0-1.4,0C14.4,43.5,14.9,43.5,15.3,44z"/>
	<path class="st1" d="M38.4,17.3c0-0.1,0-0.2,0.1-0.3c0.1-0.2,0.1-0.5,0.2-0.7C39.1,16.8,39.1,17.1,38.4,17.3z"/>
	<path class="st2" d="M34.5,56.8c-0.1,0.2-0.1,0.5-0.2,0.7C34,57.2,33.9,56.9,34.5,56.8C34.5,56.7,34.5,56.8,34.5,56.8z"/>
	<path class="st1" d="M38.4,58.5c-0.1,0-0.2,0-0.3-0.1C38.1,58.2,38,58,38,57.8c0-0.1,0-0.1,0-0.2C38.5,57.7,38.4,58.2,38.4,58.5z"
		/>
	<path class="st1" d="M31.2,11.5c0,0.1-0.1,0.1-0.1,0.2c-0.3,0.2-0.2,0.5-0.2,0.7l0,0C30.6,12,30.5,11.7,31.2,11.5z"/>
	<path class="st4" d="M14.8,46.8c-0.1-0.1-0.2-0.2-0.2-0.3c0-0.3,0-0.6,0-1c0.1,0,0.1,0,0.2,0C14.8,46,14.8,46.4,14.8,46.8z"/>
	<path class="st2" d="M30.9,82.6c0.1,0.4,0.2,0.9-0.1,1.2c0-0.4,0-0.8,0-1.2C30.8,82.6,30.9,82.6,30.9,82.6z"/>
	<path class="st4" d="M26.9,82.7c0.4,0.4,0.2,0.9,0.2,1.3C27,84,27,84,26.9,83.9C26.9,83.5,26.9,83.1,26.9,82.7z"/>
	<path class="st1" d="M37.2,24c-0.1,0.1-0.3,0.1-0.4,0.2c-0.2,0-0.5,0-0.7,0.1c0-0.1,0-0.2-0.1-0.3C36.4,24,36.8,24,37.2,24z"/>
	<path class="st2" d="M42,67.7c0,0.4,0,0.7,0,1.1c0,0-0.1,0-0.1,0C41.8,68.5,41.6,68.1,42,67.7z"/>
	<path class="st2" d="M4,40.9c0.3-0.1,0.3,0.1,0.3,0.4C4.2,41.1,4.1,41,4,40.9z"/>
	<path class="st2" d="M18.3,43.2c-0.4,0.1-0.7,0.1-1.1,0.2c0-0.1,0-0.2,0-0.3C17.6,43.2,18,43.2,18.3,43.2z"/>
	<path class="st2" d="M39.1,58.3c0.3,0,0.7,0,1,0c0,0.1,0,0.1,0,0.2c-0.4,0-0.7,0-1.1,0C39.1,58.5,39.1,58.4,39.1,58.3z"/>
	<path class="st1" d="M36.5,28.1c0.3,0,0.6,0,0.9,0C37.1,28.5,36.8,28.4,36.5,28.1z"/>
	<path class="st1" d="M37.1,8.4c0-0.1-0.1-0.1-0.1-0.2c0.3,0,0.7-0.1,1,0.3C37.6,8.4,37.4,8.4,37.1,8.4z"/>
	<path class="st2" d="M37.1,8.4c0.3,0,0.6,0,0.8,0.1c0,0.1,0,0.1,0,0.2C37.6,8.6,37.3,8.8,37.1,8.4z"/>
	<path class="st1" d="M36.7,14.6c-0.1-0.1-0.1-0.1-0.2-0.2c0.3,0.1,0.6,0.2,0.9,0.3C37.2,14.6,36.9,14.6,36.7,14.6z"/>
	<path class="st2" d="M36.7,14.6c0.3,0,0.5,0,0.8,0.1c0,0.1,0,0.2,0,0.2C37.2,14.8,36.8,15.1,36.7,14.6z"/>
	<path class="st2" d="M37.7,15.8c-0.4-0.2-0.1-0.6-0.2-0.9c0.1,0,0.2,0,0.3,0C37.7,15.2,37.7,15.5,37.7,15.8z"/>
	<path class="st1" d="M37.7,15.8c0-0.3,0-0.6,0-0.9c0.1,0.3,0.2,0.6,0.2,0.9C37.8,15.8,37.7,15.8,37.7,15.8z"/>
	<path class="st2" d="M25,71.6c0.5,0,0.3,0.4,0.4,0.7c-0.1-0.1-0.1-0.2-0.2-0.3c-0.1-0.1-0.1-0.2-0.2-0.2C25,71.7,25,71.7,25,71.6z"
		/>
	<path class="st4" d="M31.2,15.6c-0.3,0-0.6,0-0.9,0c0.1-0.1,0.3-0.2,0.4-0.3C30.9,15.4,31,15.5,31.2,15.6z"/>
	<path class="st1" d="M59,17c-0.3,0-0.6,0-1,0C58.4,16.7,58.7,16.7,59,17z"/>
	<path class="st1" d="M36.6,17.8c0.4,0.2,0.6,0.4,0.1,0.7C36.7,18.3,36.6,18,36.6,17.8z"/>
	<path class="st2" d="M33.6,80.2c0-0.4,0-0.7,0-1.1c0.1,0,0.1,0.1,0.2,0.1c0,0.3,0,0.6-0.1,0.9C33.7,80.2,33.7,80.2,33.6,80.2z"/>
	<path class="st1" d="M33.8,80.1c0-0.3,0-0.6,0.1-0.9C34.2,79.6,34.2,79.9,33.8,80.1z"/>
	<path class="st2" d="M30.8,81.8c0.2-0.4,0.6-0.1,0.8-0.2c0,0.1,0,0.2,0,0.2C31.4,81.8,31.1,81.8,30.8,81.8z"/>
	<path class="st1" d="M30.8,81.8c0.3,0,0.5,0,0.8,0c-0.2,0.4-0.6,0.2-0.9,0.3C30.8,82,30.8,81.9,30.8,81.8z"/>
	<path class="st2" d="M22.1,21.6c0.1,0,0.3,0.1,0.4,0.1c0,0,0,0,0,0c0,0.1,0,0.2-0.1,0.3C22.2,22.1,22.1,21.9,22.1,21.6z"/>
	<path class="st1" d="M26.9,86c0.1,0.1,0.3,0.3,0.4,0.4C27.2,86.3,27,86.1,26.9,86z"/>
	<path class="st1" d="M25.1,24.2c0-0.2,0-0.5,0.1-0.7C25.4,23.8,25.6,24,25.1,24.2z"/>
	<path class="st1" d="M60.7,23.5c-0.2,0.1-0.4,0.2-0.7,0.4C60.1,23.5,60.4,23.5,60.7,23.5z"/>
	<path class="st2" d="M61.7,23.4c-0.3,0-0.6,0-0.8,0C61.1,23.1,61.4,23.2,61.7,23.4z"/>
	<path class="st2" d="M0.3,55.7c0.1,0,0.1,0,0.2,0c0,0.2,0,0.5,0,0.7C0.4,56.1,0.3,55.9,0.3,55.7z"/>
	<path class="st2" d="M35,10.9c-0.1-0.1-0.3-0.2-0.4-0.3c0-0.1,0-0.1,0.1-0.2C35.1,10.4,35,10.6,35,10.9z"/>
	<path class="st2" d="M38,24.8c0-0.2,0-0.5-0.1-0.7C38.5,24.2,38.2,24.5,38,24.8z"/>
	<path class="st4" d="M33.8,21.2c0.1,0,0.2-0.1,0.3-0.1c0.1,0,0.3,0,0.4,0.1C34.3,21.4,34.1,21.4,33.8,21.2z"/>
	<path class="st2" d="M29.8,18.7c0-0.2,0-0.4,0-0.7c0.3,0.2,0.3,0.4,0.2,0.7C29.9,18.7,29.8,18.7,29.8,18.7z"/>
	<path class="st2" d="M0.5,44.2C0.5,44.2,0.4,44.2,0.5,44.2c-0.1,0-0.2,0-0.2,0c0-0.2,0.1-0.5,0.1-0.7C0.4,43.7,0.5,43.9,0.5,44.2z"
		/>
	<path class="st2" d="M36.6,17.8c0,0.2,0,0.5,0.1,0.7c0,0-0.1,0-0.1,0s-0.1,0-0.1,0c0-0.2,0-0.5,0-0.7
		C36.5,17.8,36.6,17.8,36.6,17.8z"/>
	<path class="st2" d="M31.4,85.9c0,0.3-0.1,0.5-0.1,0.8c0-0.3,0-0.5,0-0.8C31.3,85.9,31.3,85.9,31.4,85.9z"/>
	<path class="st2" d="M38.6,16.3c-0.1,0.2-0.1,0.5-0.2,0.7c0-0.2,0-0.5,0-0.7C38.5,16.3,38.5,16.3,38.6,16.3z"/>
	<path class="st1" d="M26.4,15.1c0.1,0.2,0.1,0.4,0.2,0.6c-0.1,0-0.2,0-0.2,0C26.4,15.6,26.4,15.3,26.4,15.1z"/>
	<path class="st1" d="M1.7,40.3c0.2-0.1,0.5-0.2,0.7-0.3C2.3,40.4,2,40.3,1.7,40.3z"/>
	<path class="st2" d="M26.1,80.8c0.5,0,0.2,0.4,0.3,0.6C26.3,81.2,26.2,81,26.1,80.8z"/>
	<path class="st2" d="M34.8,12c0.1-0.3,0.1-0.5,0.2-0.8c0,0.3,0,0.5,0.1,0.8C35,12,34.9,12,34.8,12z"/>
	<path class="st1" d="M18.1,11.5c0.2-0.2,0.4-0.3,0.6-0.5C18.7,11.4,18.5,11.5,18.1,11.5z"/>
	<path class="st1" d="M34.3,12.3c-0.2-0.1-0.3-0.2-0.5-0.3C33.9,12.1,34.1,12.2,34.3,12.3z"/>
	<path class="st1" d="M26.9,83.9c0.1,0,0.1,0.1,0.2,0.1c0,0.1,0,0.3,0,0.4C27,84.3,27,84.1,26.9,83.9z"/>
	<path class="st1" d="M14.8,85.3c-0.1-0.1-0.2-0.2-0.4-0.4C14.6,85,14.8,85,14.8,85.3z"/>
	<path class="st3" d="M24.9,23.3c-0.1-0.1-0.1-0.1-0.2-0.2C24.8,23.2,24.8,23.2,24.9,23.3z"/>
	<path class="st1" d="M23,22.4c-0.1-0.1-0.2-0.2-0.2-0.3C22.9,22.2,22.9,22.3,23,22.4z"/>
	<path class="st1" d="M22.5,22c0-0.1,0-0.2,0.1-0.3c0.1,0.1,0.2,0.2,0.3,0.3C22.7,22.1,22.6,22.1,22.5,22z"/>
	<path class="st1" d="M20.1,51.2c-0.1-0.1-0.2-0.2-0.3-0.3C19.9,51,20,51.1,20.1,51.2z"/>
	<path class="st3" d="M25.1,71.7c0.1,0.1,0.1,0.2,0.2,0.2C25.2,71.9,25.1,71.8,25.1,71.7z"/>
	<path class="st3" d="M22.5,44c-0.1-0.1-0.2-0.1-0.2-0.2C22.3,43.8,22.4,43.9,22.5,44z"/>
	<path class="st1" d="M15.5,86c-0.1-0.1-0.2-0.2-0.3-0.2C15.3,85.9,15.4,85.9,15.5,86z"/>
	<path class="st1" d="M15.8,86.2c-0.1-0.1-0.2-0.2-0.3-0.2C15.6,86.1,15.7,86.2,15.8,86.2z"/>
	<path class="st1" d="M27,85c-0.1,0.1-0.1,0.2-0.2,0.3C26.9,85.1,27,85,27,85z"/>
	<path class="st1" d="M31.2,12.5c0.1,0,0.1,0.1,0.1,0.2c-0.1,0-0.2-0.1-0.3-0.1c0,0,0,0,0,0c0,0,0.1,0,0.1,0L31.2,12.5z"/>
	<path class="st1" d="M75.6,7.2c0.1,0.1,0.2,0.1,0.3,0.2C75.8,7.3,75.7,7.3,75.6,7.2z"/>
	<path class="st1" d="M74.4,6.5c0.1,0.1,0.2,0.1,0.3,0.2C74.6,6.6,74.5,6.6,74.4,6.5z"/>
	<path class="st1" d="M15.3,85.8c-0.1-0.1-0.2-0.2-0.3-0.3C15.1,85.6,15.2,85.7,15.3,85.8z"/>
	<path class="st1" d="M15,85.5c-0.1-0.1-0.2-0.2-0.3-0.3C14.9,85.4,15,85.5,15,85.5z"/>
	<path class="st4" d="M83.6,15.8c0.9,0.2,1.8,0.9,2.7,0c5.6,5.8,9.4,12.6,11.6,20.3c0.5,1.7,0.8,3.4,1.2,5.1
		c-2.8-0.1-5.6-0.3-7.6-2.8c-0.4-0.5-1-0.5-1.6-0.4c-0.4-2-0.8-4-1.2-6c-0.9-4.5-2.5-8.7-4.6-12.8c-0.3-0.6-0.6-1.3-0.9-2
		c0,0,0-0.1,0-0.1C83.4,16.7,83.5,16.3,83.6,15.8z"/>
	<path class="st4" d="M89.3,48.9c0.6-2.7,0.5-5.5,0.5-8.3c0-0.5,0-1,0-1.6c1.2,0.3,0.8,1.9,1.9,2.3c0.4,0.1,1,0.5,1.2,0.4
		c1.7-1.4,2.5,0.4,3.7,0.8c0.8,0.3,0.6,0.7,0.3,1.1c-1.6,2.3-4,3.6-6.4,4.8c-0.1,0-0.3,0.1-0.4,0.1c0.1,0,0.1,0,0.2,0.1
		C89.9,49,89.6,48.9,89.3,48.9z"/>
	<path class="st4" d="M75.1,77.7C80,72.9,83.5,67.1,86.4,61c0.4,3,0.2,5.7-2.4,7.8c-0.9,0.8-0.2,1.7-0.3,2.6
		c-1.4,1.3-1.9,3.1-3.4,4.4c-1.4,1.3-2.8,2.4-4.8,2.1C75.3,77.8,75.2,77.8,75.1,77.7z"/>
	<path class="st4" d="M89.1,72c-0.3-0.1-0.6-0.2-0.8-0.4c-0.8-0.9,0.1-4.9,1.2-5.4c0.5-0.2,1-0.4,1.3-1c0.3-0.5,0.7-1.2,1.5-0.8
		c0.7,0.4,0.6,1.3,0.3,1.7c-1.3,1.8-1.7,4-2.7,5.9C89.6,72,89.3,72,89.1,72z"/>
	<path class="st4" d="M87.6,57.2c0.4-2.3,1.4-4.4,1.4-6.7c0.3,0,0.7,0,1-0.1c0.3-0.1,0.7,0.3,0.9-0.3c0.7-0.2,1.3-1.1,2.2-0.5
		c0,0.3,0,0.6,0,1C91.9,53.3,90,55.4,87.6,57.2z"/>
	<path class="st0" d="M86.6,48c-0.5-0.6-1.2-1-1.2-1.9C86.1,46.6,87.2,46.8,86.6,48z"/>
	<path class="st2" d="M63.7,53.5c-1.1,0-2.1,0-3.2,0c1.1-0.1,2.3-0.1,3.4-0.2C63.9,53.4,63.8,53.4,63.7,53.5z"/>
	<path class="st2" d="M69.4,54.8c0.5,1.1,0.1,2.2,0.2,3.3C69,57,69.5,55.9,69.4,54.8z"/>
	<path class="st2" d="M83.6,71.3c0.2-0.9-0.5-1.8,0.3-2.6C83.8,69.6,83.7,70.5,83.6,71.3z"/>
	<path class="st2" d="M64.8,53c0.6-0.4,1.2-0.4,1.9,0C66,53,65.4,53,64.8,53z"/>
	<path class="st0" d="M89,50.4c-0.2,0-0.5,0-0.7,0c0.1-0.4,0.4-0.7,0.7-0.6C89.4,49.9,89.1,50.2,89,50.4z"/>
	<path class="st2" d="M71.2,68.4c0.6,0.6,0.2,1.3,0.3,1.9C71.4,69.7,71.3,69.1,71.2,68.4z"/>
	<path class="st2" d="M67,53.8c0.5,0.1,1.1-0.3,1.5,0.2C68,53.9,67.5,54.2,67,53.8z"/>
	<path class="st0" d="M71.5,62.7c0,0.4,0,0.7,0,1.1c-0.1,0-0.1,0-0.2,0c0-0.4,0-0.8,0-1.1C71.4,62.7,71.4,62.7,71.5,62.7z"/>
	<path class="st2" d="M71.3,63.8c0.1,0,0.1,0,0.2,0c-0.1,0.2,0.3,0.6-0.3,0.7C71.2,64.2,71.3,64,71.3,63.8z"/>
	<path class="st2" d="M91,50.1c-0.2,0.5-0.6,0.2-0.9,0.3C90.4,50.3,90.7,50.2,91,50.1z"/>
	<path class="st2" d="M85.7,43.4c0.5,0.3,0.2,0.7,0.2,1.1C85.8,44.1,85.7,43.7,85.7,43.4z"/>
	<path class="st2" d="M72.2,72.4c0.5,0.2,0.2,0.7,0.2,1C72.4,73.1,72.3,72.8,72.2,72.4z"/>
	<path class="st4" d="M87.9,47.3c0.1,0.1,0.1,0.2,0.2,0.3c0,0.3,0,0.6,0,0.8C88,48,88,47.6,87.9,47.3z"/>
	<path class="st2" d="M75.1,77.7c0.1,0,0.2,0,0.3,0.1c-0.4,0.3-0.8,0.4-1.2,0C74.5,77.8,74.8,77.8,75.1,77.7z"/>
	<path class="st2" d="M70.8,60.6c0.5,0.2,0.1,0.6,0.2,0.9C70.9,61.2,70.9,60.9,70.8,60.6z"/>
	<path class="st2" d="M88.1,48.4c0-0.3,0-0.6,0-0.8c0.1,0.3,0.1,0.6,0.2,1C88.2,48.5,88.2,48.4,88.1,48.4z"/>
	<path class="st4" d="M88.3,48.5c0.3-0.1,0.4,0.1,0.5,0.3C88.6,48.9,88.4,48.9,88.3,48.5z"/>
	<path class="st2" d="M93.2,50.6c0-0.3,0-0.6,0-1C93.4,50,93.4,50.3,93.2,50.6z"/>
	<path class="st2" d="M89.1,72c0.3,0,0.6,0,0.8,0C89.6,72.3,89.3,72.3,89.1,72z"/>
	<path class="st2" d="M90.2,48.7c-0.1,0-0.1,0-0.2-0.1c0.1,0,0.3-0.1,0.4-0.1C90.3,48.6,90.3,48.6,90.2,48.7z"/>
	<path class="st2" d="M71.5,62.7c-0.1,0-0.1,0-0.2,0c0-0.2,0-0.4-0.1-0.6C71.7,62.2,71.5,62.5,71.5,62.7z"/>
	<path class="st2" d="M44.2,99.6c-0.2-0.1-0.5-0.1-0.7-0.2C43.7,99.5,43.9,99.5,44.2,99.6z"/>
	<path class="st2" d="M56.4,99.4c-0.2,0-0.5,0.1-0.7,0.1C55.9,99.5,56.2,99.5,56.4,99.4z"/>
	<path class="st2" d="M85.2,46c-0.3-0.1-0.2-0.4-0.2-0.7C85.1,45.6,85.1,45.8,85.2,46z"/>
	<path class="st0" d="M63.4,35c-0.2,0-0.5,0-0.5-0.1c-0.2-0.3,0.1-0.3,0.3-0.3c0.9,0,0.7-0.7,0.7-1.2c0-0.4,0-0.7,0.4-0.8
		c0.3,0,0.5-0.1,0.5-0.5c0.4-0.3,0.8-0.7,1.2-1c1.5-0.1,3.4-1,3.9,1.6c0,0.1,0.4,0.2,0.5,0.1c0.8-0.3,1.1,0.1,1.1,0.9
		c0,0.4,0.2,0.8,0.7,0.8c0.6,0,0.4-0.5,0.5-0.9c0.2,0,0.5,0,0.7,0c0.2,0.5,1.4-0.1,1.1,0.6c-0.2,0.6-0.5,0.8,0.2,1.1
		c0.8,0.3,0.8-0.4,1.1-0.8c0.5,0,0.7-0.4,0.9-0.7c0.7,0.5,0.7,1.8,2,1.4c0.7-0.2,1.6-0.1,2.3-0.2c0.8-0.1,0.9,0.3,0.9,1
		c0,0.8-0.3,0.9-1,1c-0.4,0-0.9-0.3-1.1,0.3c0,0.1-0.1,0.1-0.1,0.2c-0.9,0.1-1.8,0-2.6-0.5c-1-0.6-2.1-1.1-2.7,0.6
		c-0.2,0.6-1,0.7-1.3,0.3c-0.9-0.9-2-1.3-3.2-1.6c-0.1-0.6,0.2-1.2-0.2-1.7c-0.1,0-0.2-0.1-0.3-0.1c-0.8-1-1.6,0.5-2.4,0.1
		c-0.1-0.1-0.1-0.1-0.2-0.2c-0.6-0.3-1.1-0.3-1.7,0c-0.1,0.1-0.2,0.1-0.3,0.2C64.5,34.7,63.9,34.9,63.4,35z"/>
	<path class="st1" d="M80,37.2c0.2-0.6,0.7-0.3,1.1-0.3c0.7,0,1-0.2,1-1c0-0.7-0.2-1.1-0.9-1c-0.8,0.1-1.6,0-2.3,0.2
		c-1.3,0.4-1.4-0.9-2-1.4c0.1-0.8-0.7-1.3-0.9-2c0.3-0.1,0.6-0.1,0.9-0.2c0.4,0,0.7,0,1.1,0c0.4,0.3,0.7,0.3,1.1-0.1
		c-0.1-0.3-0.1-0.6-0.2-0.9c0.6,0.1,0.2,0.7,0.6,0.9c-0.1,0.2-0.2,0.4-0.4,0.4c-2.7,0.1-0.4,1.3-0.5,2c0.1,0.1,0.1,0.1,0.2,0.2
		c0.3,0.3,0.6,0.3,0.9,0c0.1-0.1,0.2-0.1,0.3-0.2c0.8,0,1.6,0,2.3-0.1c0.4,0,0.7,0.2,0.7,0.6c-0.1,0.9,0.5,2.1-0.9,2.6
		C81.4,37.2,80.7,37.2,80,37.2z"/>
	<path class="st1" d="M72.7,33.6c-0.1,0.4,0.1,0.9-0.5,0.9c-0.5,0-0.7-0.4-0.7-0.8c0-0.7-0.2-1.2-1.1-0.9c-0.2,0.1-0.5,0-0.5-0.1
		c-0.5-2.6-2.4-1.6-3.9-1.6c0-0.8,0.4-1.1,1.2-1c0.5,0.1,0.9,0,1.3-0.2c1.7-0.7,1.7,0.8,2.2,1.7c0.5,0.5,1.1,0,1.6,0.2
		C72.5,32.5,72.6,33.1,72.7,33.6z"/>
	<path class="st1" d="M75.8,34.6c-0.3,0.3-0.3,1.1-1.1,0.8c-0.7-0.3-0.4-0.5-0.2-1.1c0.3-0.7-0.9-0.1-1.1-0.6
		c0.2-1.1,0.2-2.1-1.2-2.5c-0.5-0.1-0.9-0.6-1.2-1c-0.2-0.2-0.6-0.4-0.3-0.8c0.1-0.1,0.5,0,0.7,0.2c0.9,0.6,2.1,0.7,2.6,1.7
		c0.1,0.4,0.1,0.7,0.2,1.1c0.1,0.6,0.5,0.6,1,0.7c0.8,0.1,0.3,0.4,0,0.6c-0.3,0.2-0.3,0.4,0,0.7C75.5,34.4,75.7,34.5,75.8,34.6z"/>
	<path class="st0" d="M70.3,24c0-0.1,0-0.1-0.1-0.2c0.2-0.4,1.3-0.1,0.8-1.1c1.3-0.3,1.9-1.2,2.4-2.3c0.2,0.2,0.2,0.7,0.7,0.5
		c0.3-0.1,0.7,0.3,1,0.4c-0.3,0.2-0.5,0.4-0.8,0.5c0,0.1,0,0.1,0,0.2c0,0.3-0.1,0.6-0.1,0.9c-0.3,0-0.4,0.2-0.5,0.5
		C72.7,23.7,71.5,23.8,70.3,24z"/>
	<path class="st0" d="M79.4,31.7c-0.4-0.2,0-0.9-0.6-0.9c-0.2-0.6,0-1.1,0.4-1.5c0.4,0,0.9-0.1,0.9,0.6c0,0.3,0.1,0.6,0.4,0.6
		c0.5,0,0.5-0.4,0.6-0.7c0.3,0,0.5,0,0.8,0c0.2,0.6,0.8,0.8,1.3,1.1c0.3,0.2,1,0.3,0.5,0.9c-0.1,0-0.1,0-0.2,0
		C82.2,30.4,80.8,31.9,79.4,31.7z"/>
	<path class="st1" d="M83.8,31.7c0.5-0.6-0.2-0.8-0.5-0.9c-0.5-0.3-1.1-0.5-1.3-1.1c0-0.1,0-0.1,0-0.2c0-0.1,0-0.2,0-0.3
		c-0.2-1.1,0.9-1.1,1.4-1.6c0.1,0,0.3,0,0.4,0c0,0.2,0.1,0.4,0.1,0.4c-2.4,1.3,0.1,1.3,0.5,1.9c0.4,0.6,2,1,0.4,2
		C84.5,31.8,84.1,31.8,83.8,31.7z"/>
	<path class="st1" d="M74.4,21.9c0.3-0.2,0.5-0.4,0.8-0.5c-0.3-0.1-0.7-0.5-1-0.4c-0.6,0.1-0.5-0.4-0.7-0.5
		c-0.2-0.2-0.3-0.5-0.5-0.7c0.8,0.2,1-0.6,1.4-1c0.2,2.1,1.7,1.4,2.9,1.3c0.5,0,1-0.4,1.2,0.2c0.1,0.6-0.7,0.3-0.9,0.6
		c-0.5,0.4-1.7-0.8-1.8,0.8c0.1,0.5-0.3,0.5-0.6,0.4C74.9,22,74.7,21.9,74.4,21.9z"/>
	<path class="st1" d="M81.2,29.7c-0.1,0.3-0.1,0.8-0.6,0.7c-0.4,0-0.4-0.3-0.4-0.6c0-0.7-0.5-0.6-0.9-0.6c0.3-0.8,0.8-1.2,1.7-0.9
		c0.1,0.3,0.1,0.6,0.2,0.9c0,0,0,0,0,0c0,0.1,0,0.1,0.1,0.2C81.2,29.6,81.2,29.6,81.2,29.7z"/>
	<path class="st0" d="M74.4,18.7c-0.5,0.3-0.6,1.2-1.4,1c-0.3-0.9,0.4-1.2,0.9-1.7c0.1-0.1,0.1-0.1,0.2-0.2c0,0,0.1,0,0.1,0
		c0.2,0.1,0.4,0.2,0.7,0.2C74.7,18.3,74.6,18.5,74.4,18.7z"/>
	<path class="st1" d="M74.9,18c-0.2-0.1-0.4-0.2-0.7-0.2c0.2-0.3,0.6-0.8,1-0.6C75.6,17.5,75.1,17.8,74.9,18z"/>
	<path class="st2" d="M60.7,35.5c0.8-0.5,1.7-0.1,2.6-0.2C62.4,35.8,61.5,35.4,60.7,35.5z"/>
	<path class="st2" d="M75.8,21.6c0-1.5,1.3-0.3,1.8-0.8C77.2,21.6,76.1,20.5,75.8,21.6z"/>
	<path class="st2" d="M80,37.2c0.7,0,1.4,0,2.1,0c-0.7,0.4-1.4,0.1-2.1,0.2C80,37.4,80,37.3,80,37.2z"/>
	<path class="st2" d="M67,34.3c0.1,0.1,0.1,0.1,0.2,0.2c-0.7,0-1.5,0-2.2,0c0.1-0.1,0.2-0.1,0.3-0.2C65.9,34.3,66.5,34.3,67,34.3z"
		/>
	<path class="st2" d="M72.4,31.9c-0.5-0.2-1.1,0.2-1.6-0.2C71.3,31.8,71.9,31.4,72.4,31.9z"/>
	<path class="st2" d="M83.8,31.7c0.3,0.1,0.7,0.1,1,0.2c-0.5,0.4-1,0.5-1.3-0.2C83.6,31.7,83.7,31.7,83.8,31.7z"/>
	<path class="st1" d="M69.9,34.6c0.4,0.5,0.1,1.1,0.2,1.7c-0.1-0.1-0.2-0.2-0.3-0.3C69.8,35.4,69.9,35,69.9,34.6z"/>
	<path class="st4" d="M80.2,17.8c0.2,0,0.4,0,0.6,0c0.1,0.1,0.4,0.3,0.1,0.4C80.6,18.3,80.2,18.2,80.2,17.8z"/>
	<path class="st2" d="M81.6,17.5c0.4,0,0.8,0,1.3,0C82.5,17.9,82.1,17.9,81.6,17.5z"/>
	<path class="st2" d="M69.9,34.6c0,0.4,0,0.9,0,1.3c-0.5-0.4-0.1-1-0.2-1.4C69.7,34.5,69.8,34.5,69.9,34.6z"/>
	<path class="st2" d="M63.6,33.7c0,0.6-0.4,0.6-0.8,0.6c0-0.1,0-0.1,0-0.2C63.1,34,63.4,33.9,63.6,33.7z"/>
	<path class="st2" d="M80,34.1c-0.1,0.1-0.2,0.1-0.3,0.2c-0.3,0-0.6,0-0.9,0c-0.1-0.1-0.1-0.1-0.2-0.2C79.1,34.1,79.5,34.1,80,34.1z
		"/>
	<path class="st2" d="M80.3,15.5c0.3,0.1,0.7,0.2,1,0.2C81,15.8,80.6,16.1,80.3,15.5z"/>
	<path class="st2" d="M79,31.6c-0.3,0.4-0.7,0.4-1.1,0.1C78.3,31.7,78.6,31.6,79,31.6z"/>
	<path class="st2" d="M74.4,32.4c-0.1-0.4-0.1-0.7-0.2-1.1C74.6,31.6,74.3,32,74.4,32.4z"/>
	<path class="st2" d="M81.2,29.5c-0.1-0.1-0.1-0.1-0.1-0.2c0.3,0,0.7-0.1,1-0.1c0,0.1,0,0.2,0,0.3C81.7,29.5,81.5,29.5,81.2,29.5z"
		/>
	<path class="st2" d="M81.1,29.3C81,29,81,28.7,80.9,28.4C81.3,28.6,81.1,29,81.1,29.3z"/>
	<path class="st2" d="M83.9,27.6c-0.1,0-0.3,0-0.4,0c0-0.1-0.1-0.1-0.1-0.2C83.5,27.4,83.8,27.2,83.9,27.6z"/>
	<path class="st1" d="M73.9,23.5c0-0.3,0.2-0.4,0.5-0.5C74.4,23.4,74.2,23.5,73.9,23.5z"/>
	<path class="st2" d="M60,31c-0.2-0.3-0.4-0.7,0-1C60,30.3,60,30.7,60,31z"/>
	<path class="st2" d="M76.8,31.7c-0.3,0.1-0.6,0.1-0.9,0.2C76.1,31.5,76.5,31.7,76.8,31.7z"/>
	<path class="st0" d="M62.8,34.1c0,0.1,0,0.1,0,0.2c-0.3,0-0.5,0-0.8,0C62.3,34.3,62.5,34.2,62.8,34.1z"/>
	<path class="st2" d="M75.4,34.3c-0.3-0.2-0.3-0.4,0-0.7C75.4,33.9,75.4,34.1,75.4,34.3z"/>
	<path class="st2" d="M74.4,21.9c0.3,0.1,0.5,0.1,0.8,0.2c-0.2,0-0.5,0-0.7,0C74.4,22,74.4,21.9,74.4,21.9z"/>
	<path class="st1" d="M64.8,32.2c0,0.3-0.2,0.5-0.5,0.5C64.5,32.5,64.6,32.3,64.8,32.2z"/>
	<path class="st1" d="M74.2,17.8C74.1,17.9,74,17.9,74,18C74,17.9,74.1,17.9,74.2,17.8z"/>
	<path class="st2" d="M31,16.8c-0.5,0.4-1.1,0.2-1.6,0.2c-0.7,0-1.3,0-2-0.1C28.6,16.6,29.8,16.8,31,16.8z"/>
	<path class="st2" d="M19.9,54.1c0-0.7,0-1.4,0-2.1C20.3,52.7,20.3,53.4,19.9,54.1z"/>
	<path class="st4" d="M27.4,17c0.7,0,1.3,0,2,0.1c-0.7,0.1-1.4,0.1-2,0.2C27.4,17.1,27.4,17.1,27.4,17z"/>
	<path class="st2" d="M9.8,41.8c0,0.6,0,1.3,0,1.9C9.5,43.1,9.5,42.4,9.8,41.8z"/>
	<path class="st2" d="M17.8,16.1c0.5,0.1,1.1,0.1,1.6,0.2C18.9,16.2,18.3,16.6,17.8,16.1z"/>
	<path class="st2" d="M11.6,45.4c0.4,0,0.8,0,1.3,0C12.4,45.8,12,45.7,11.6,45.4z"/>
	<path class="st2" d="M21.1,16.3c0.5-0.4,1-0.4,1.6,0C22.1,16.3,21.6,16.3,21.1,16.3z"/>
	<path class="st2" d="M27.1,17.3c0,0.3,0,0.7-0.5,0.7C26.6,17.7,26.9,17.5,27.1,17.3z"/>
	<path class="st4" d="M30.2,26.9c-0.1,0.4,0.1,0.6,0.5,0.6c-0.2,0.1-0.5,0.1-0.6-0.1C30,27.3,30.1,27.1,30.2,26.9z"/>
	<path class="st2" d="M34.6,55.4c0.3,0.3,0.3,0.7,0,1C34.6,56.1,34.6,55.7,34.6,55.4z"/>
	<path class="st2" d="M14.6,45.6c0,0.3,0,0.6,0,1C14.3,46.2,14.3,45.9,14.6,45.6z"/>
	<path class="st2" d="M36.1,24.3c0.2,0,0.5,0,0.7-0.1C36.6,24.6,36.4,24.6,36.1,24.3z"/>
	<path class="st2" d="M25.1,18.7c-0.1,0.1-0.1,0.1-0.2,0.2c-0.3,0-0.6,0-0.9,0C24.4,18.9,24.7,18.8,25.1,18.7z"/>
	<path class="st4" d="M24,18.9c0.3,0,0.6,0,0.9,0c-0.3,0.1-0.6,0.1-0.9,0.2C24,19.1,24,19,24,18.9z"/>
	<path class="st2" d="M33.4,29.3c-0.2,0.1-0.4,0.1-0.6,0.2C32.9,29.1,33.2,29.3,33.4,29.3z"/>
	<path class="st2" d="M38,57.8c0.1,0.2,0.1,0.5,0.2,0.7C37.8,58.3,37.9,58,38,57.8z"/>
	<path class="st2" d="M37.2,25.5c-0.2,0.1-0.4,0.2-0.6,0.2C36.7,25.3,37,25.5,37.2,25.5z"/>
	<path class="st0" d="M34.2,28.6c0,0.1,0,0.3,0,0.4C34.2,28.9,34.2,28.7,34.2,28.6z"/>
	<path class="st2" d="M55.6,15.4c-0.7,0.1-1.4,0.2-2.2,0.3C54.1,15.1,54.9,15.5,55.6,15.4z"/>
	<path class="st2" d="M48.7,9.8c0.5,0,1,0,1.5,0C49.7,10.3,49.2,10.2,48.7,9.8z"/>
	<path class="st2" d="M44.1,10.1c0.3-0.1,0.5-0.2,0.8-0.3C44.8,10.3,44.4,10,44.1,10.1z"/>
	<path class="st2" d="M49,17.3c-0.3,0.1-0.6,0.1-0.9,0.2C48.3,17.1,48.7,17.4,49,17.3z"/>
	<path class="st4" d="M55.9,13.4c-0.2,0-0.5,0-0.7,0.1C55.4,13.1,55.7,13.1,55.9,13.4z"/>
	<path class="st2" d="M83.6,15.8c-0.1,0.4-0.2,0.9-0.3,1.3C83.5,16.7,83,16.2,83.6,15.8z"/>
	<path class="st2" d="M35.5,15.9c0.6,0.1,0.6,0.5,0.3,0.9c-0.1-0.3-0.1-0.5-0.2-0.8C35.5,16,35.5,15.9,35.5,15.9z"/>
	<path class="st4" d="M35.5,16.8c0,0.1,0,0.2,0,0.2c-0.3,0-0.6,0-0.9,0c0,0,0-0.1,0-0.2C34.9,16.9,35.2,16.9,35.5,16.8z"/>
	<path class="st4" d="M35.6,16c0.1,0.3,0.1,0.5,0.2,0.8c-0.1,0-0.2,0-0.2,0C35.6,16.6,35.6,16.3,35.6,16z"/>
	<path class="st2" d="M34.6,17.1c0.3,0,0.6,0,0.9,0C35.2,17.3,34.9,17.4,34.6,17.1z"/>
	<path class="st2" d="M39.4,8.9c1.1,0,2.2,0,3.4,0c0.3,0.1,0.7-0.1,0.5,0.5C42,8.7,40.6,9.5,39.4,8.9z"/>
	<path class="st2" d="M42.5,9.6c-0.1,0.1-0.2,0.1-0.3,0.2c-0.2,0-0.3,0-0.5,0C42,9.8,42.3,9.7,42.5,9.6z"/>
	<path class="st4" d="M41.7,9.8c0.2,0,0.3,0,0.5,0C42,9.9,41.7,9.9,41.5,10C41.6,9.9,41.7,9.9,41.7,9.8z"/>
	<path class="st2" d="M23.8,14.7c-0.4-0.3-0.8-0.7-1.2-1C23.4,13.5,23.9,13.8,23.8,14.7z"/>
	<path class="st2" d="M17.7,14.1c0.5-0.3,0.9-0.4,1.3,0.1C18.6,14.2,18.1,14.2,17.7,14.1z"/>
	<path class="st0" d="M21.9,15.4c0.5,0,0.9,0,1.4,0C22.8,15.7,22.3,15.7,21.9,15.4z"/>
	<path class="st0" d="M20,43.9C20,43.9,20,43.9,20,43.9C20,43.9,20,43.9,20,43.9z"/>
	<path class="st2" d="M31.2,12.5l-0.1,0c0,0-0.1,0-0.1,0c-0.1-0.3-0.1-0.6,0.2-0.7C31.2,12,31.2,12.2,31.2,12.5z"/>
	<path class="st4" d="M67,34.3c-0.6,0-1.1,0-1.7,0C65.9,34,66.5,34,67,34.3z"/>
	<path class="st4" d="M78.8,34.3c0.3,0,0.6,0,0.9,0C79.4,34.6,79.1,34.6,78.8,34.3z"/>
	<path class="st4" d="M81.2,29.5c0.3,0,0.6,0,0.9,0c0,0.1,0,0.1,0,0.2c-0.3,0-0.5,0-0.8,0C81.2,29.6,81.2,29.6,81.2,29.5z"/>
</g>
</svg>
