<?xml version="1.0" encoding="utf-8"?>
<!-- Generator: Adobe Illustrator 19.0.0, SVG Export Plug-In . SVG Version: 6.00 Build 0)  -->
<svg version="1.1" id="Layer_1" xmlns="http://www.w3.org/2000/svg" xmlns:xlink="http://www.w3.org/1999/xlink" x="0px" y="0px"
	 viewBox="-636 170.8 285.4 181.2" style="enable-background:new -636 170.8 285.4 181.2;" xml:space="preserve">
<style type="text/css">
	.st0{fill:#727272;}
</style>
<g>
	<path class="st0" d="M-520.7,338.5c-8.2,0-14.7-0.6-19.5-1.7c-7.4-1.7-11.2-4.5-10.5-8.5c0.1-0.8-0.3-1.5-1.7-1.9
		c-3.2-1.1-5-2.5-4.6-4.5c1.1-4.3,12.1-9.5,31.5-14.9c5.8-1.6,10.7-3.2,15.6-5.1c31.4-12.1,72-21.6,104.7-25.1
		c5.1-0.6,10-1,14.7-1.1c5.3-1.9,8.3-3.6,11.8-5.4c4.1-2,10.1-4.3,11.2-6.1c0.5-0.8,3.7-1.7,6.4-2.2c3.7-0.8,6.1-0.9,7.3-0.5
		c1,0.3,0.4,1-2.3,2c-11.1,4.1-16.7,7.8-25.8,11.8c6.1,0.2,11.7,0.4,16.2,1.1c14.3,2.1,18.8,6.9,12,14.7c-0.9,0.9-1,1.6-0.2,2.1
		c1,0.8,1.2,1.7,0.9,2.8c-1.3,4.1-11.7,9.2-30,14.3c-9.4,2.6-17.8,5.3-26.6,8.1c-30.5,9.7-58.8,15.5-85.4,18.6
		c-6.1,0.7-11.5,1-17,1.4c-4.8,1.5-6.9,2.9-9.6,4.3c-4.5,2.2-10.4,4.5-12.4,6.4c-0.8,0.8-3.6,1.6-6.4,2.2c-3.7,0.8-6.1,0.9-7.3,0.5
		c-0.9-0.4-0.2-1.1,2.3-2c8.9-2.8,12.3-5.4,18.4-8.1C-524.9,340.8-523.3,339.8-520.7,338.5z M-430.4,295c-1-0.1-1.4-0.1-2-0.1
		c-16.7,1.3-35.1,3.6-56.4,8c-5.7,1.1-11.4,2.5-17.1,4.1c-11.7,3.3-18.3,6.4-18.5,9c-0.1,1.4,1.6,2.4,4.1,3.1
		c6.6,1.8,16.4,2.2,28.9,1.7c2.5-0.1,4.6,0.1,8-0.6c4.3-1.6,6.5-3,9.8-4.5c1.8-0.8,3.2-1.6,4.7-2.4c-2.6-1.8,1.8-5.1,19.8-9.4
		C-443,301-436.8,298.1-430.4,295z M-420.5,294.1c-6.9,3.4-13.7,6.4-19.1,9.2c2.9,2.6-2.6,5.2-20.2,9.6c-4.1,2.1-9.5,4.3-13.5,6.7
		c19.5-1.8,39.6-4.2,64.5-10c3.3-0.8,6.8-1.7,10.1-2.7c9.7-2.8,15.3-5.5,16.2-7.8c0.7-1.6-0.8-2.5-3-3.4
		C-392.4,293.5-405.5,293.6-420.5,294.1z M-393.8,279.2c-18.8-0.6-69.2,7.5-106.6,21.8c15.3-3.1,29.6-5.5,43.1-7.3
		c13.5-1.8,25.7-3,37.7-4.1c1-0.4,1.8-0.6,2.3-0.9c4.3-2,8.6-4.1,12.9-6.2C-402.1,281.3-399.7,280.3-393.8,279.2z M-361.9,289.7
		c3-7.6-6.7-11.1-29.4-10.8c0.9,0.8-1.9,2-4.6,3.2c-4.7,2.2-9.1,4.4-14.1,6.9c9.8-0.6,18.4-0.7,26.6-0.6
		C-375.1,288.4-368.5,289-361.9,289.7z M-415.9,318.1c-15.1,2.8-27.9,4.8-40.3,6.5c-12.5,1.7-23.9,2.7-35.1,3.7
		c-3.7,1.3-5.3,2.5-7.9,3.6c-2.4,1.1-4.4,2.2-8.7,3.2C-490.4,335.1-452.1,329.6-415.9,318.1z M-374.9,291.4
		c-0.7,0.8,0.8,0.9,1.6,1.2c2.3,1.1,3.7,2.4,2.4,4.5c-1.9,3.2-9.4,6.7-21.9,10.7c-6,1.9-12.2,3.5-18.5,5
		c-13.8,3.2-26.3,5.3-38.7,7.1c-9.9,1.5-19,2.5-27.7,3.2c-1.3,0.1-2.7,0.1-4.8,0.6c-1.4,0.7-3.6,1.5-4.1,2.2
		c6.7-0.4,14.5-1.2,22.2-2c16.4-1.8,33.9-4.4,53.2-8.3c4.6-0.9,8.3-1.9,12.5-3.5c17.3-6.6,27.8-12.5,33.7-18c0.5-0.4,0.7-0.8,0.3-1
		C-367.1,292.3-369.7,291.5-374.9,291.4z M-539.5,329.2c2.2,4.2,11.5,6,26.1,6.2c2-2,9-4.4,11.9-6.4
		C-515.8,329.6-528.4,329.8-539.5,329.2z M-536.7,320.5c-2.7,1.4-2.6,2.2-3.5,3.2c-1.4,1.7-0.2,2.5,3.6,2.7c3.3,0.2,6.2,0.6,9.5,0.8
		c8.6,0.4,18.6,0.3,29.6-0.5c2.1-0.6,2.9-1,3.7-1.3c0.6-0.3,1-0.6,2-1.1C-512.2,325.1-530.5,325.1-536.7,320.5z M-525.5,308.6
		c-20.4,5.7-31.4,12.9-22.1,14.2C-543.8,318.6-536.7,314-525.5,308.6z M-384.4,309.1c15.3-4,25.1-8.9,23.9-12.2
		C-367.4,301-374.1,304.9-384.4,309.1z M-517.1,307.9c8.6-2.9,16.6-4.7,24.6-6.9c-2.7,0.4-5.4,1-8,1.4
		C-507.2,303.7-512.6,305.2-517.1,307.9z"/>
</g>
<g>
	<path d="M-551.8,325.2c-8.2,0-16-1.1-23.5-3.3c-11.5-3.4-21.9-8.9-30.8-16.9c-1.9-1.7-3.9-3-6.3-3.8c-5.7-2.1-10.9-4.9-15.4-9
		c-9.1-8.5-10.8-19.1-4.3-29.8c2-3.2,3-6.4,3.4-10.2c2.3-24.2,20.1-43.2,44.6-50.1c3.8-1.1,7.7-1.9,11.9-2.3
		c0.7-3.8-0.5-7.3-1.2-10.8c-0.8-4.1-0.2-8.6-3.4-12.2c-1.3-1.5-0.3-3.3,1-4.5c1.8-1.6,3.9-1.8,6.1-1c1.7,0.6,2.8,2,2.4,3.9
		c-1.4,8.1,2,15.6,2.5,23.6c6.6,0.4,12.7,0.8,18.7,2.1c19.3,4.2,35.2,13.7,47.3,29.4c1.3,1.8,2.8,3.2,4.8,4.2
		c2.8,1.5,5.3,3.4,7.6,5.6c8.5,8.2,10.4,18.4,4.2,28.5c-3.2,5.2-5.1,10.6-7.2,16.2c-7.1,19.5-21.6,31-40.9,37.1
		c-4.4,1.4-9.1,2-13.6,2.8c-1.1,3.1,0.1,5.8,0.6,8.5c0.8,4.4,0.4,9,3.1,12.9c1.1,1.6,0.2,3.2-1.1,4.4c-1.8,1.6-3.9,1.8-6.1,1
		c-1.7-0.7-3-2.3-2.4-3.9c2.2-5.6-0.7-10.8-0.9-16.1C-550.7,329.6-551.4,327.7-551.8,325.2z M-566,238.1c-1.1-0.1-1.6-0.2-2.1-0.1
		c-13.5,2.7-26.3,7.3-37.3,15.9c-2.9,2.3-5.4,5-7.3,8.2c-3.8,6.6-2.8,12.9,3,17.9c3.3,2.8,7.2,4.7,11.4,6.1
		c10.8,3.5,21.8,4.5,33,3.4c2.3-0.2,4.7,0.1,6.7-1.1c0.5-3.2-0.7-6-1-9c-0.1-1.6-0.6-3.2-0.9-4.7c-7-3.7-10.4-10.2-2.8-18.8
		C-564.1,250.2-565,244.3-566,238.1z M-558.3,236.3c1.1,6.7,1.7,12.8,3.1,18.5c9.1,5.2,9.9,10.4,2.8,19.2c0.9,4.2,0.9,8.7,2.6,13.4
		c15.1-3.7,29.5-8.4,40.5-20c1.5-1.5,2.7-3.4,3.7-5.3c3-5.6,2.1-11-2.4-15.5c-3.1-3.2-6.9-5.1-11-6.7
		C-531.5,235.2-544.5,235.3-558.3,236.3z M-567.4,206.5c-20.4-1.3-51.2,15-54.4,43.5c8-6.1,16.5-10.9,25.6-14.6
		c9.1-3.7,18.5-6,28-8.1c0-0.8,0.2-1.3,0.1-1.8c-0.6-4.1-1.2-8.2-1.9-12.3C-570.5,210.8-570.6,208.7-567.4,206.5z M-510.1,227.6
		c-15.2-15.2-33.5-22.3-55.2-21.5c2.7,1.5,2.8,3.9,3.1,6.4c0.6,4.4,1.5,8.8,2.3,13.7c8.4-1.2,16.7-1.4,25-1.3
		C-526.6,224.9-518.4,226.2-510.1,227.6z M-496.1,284.3c-8.4,5.6-16.3,9.7-24.7,13c-8.5,3.3-17.4,5.4-26.2,7.4
		c-0.5,2.7,0.6,4.9,0.7,7.2c0.2,2.2,0.9,4.4-1,6.4C-529.7,318.3-504.8,307.2-496.1,284.3z M-519.1,231c1.3,1.7,3,1.8,4.5,2.4
		c4.9,2.2,9.5,4.8,13.1,8.9c5.7,6.3,6.8,13.5,3.8,21.4c-1.4,3.8-3.8,7-6.6,9.9c-6.1,6.4-13.5,10.7-21.5,14.3c-6.4,2.9-13,5-19.9,6.5
		c-1.1,0.2-2.3,0.3-3.2,1.3c0.3,1.4,0,3,1.2,4.4c5.9-0.7,11.6-2.4,17.3-4.1c12-3.7,23.3-8.8,33.3-16.6c2.4-1.8,3.7-3.8,4.1-7
		c1.5-13.2-2.2-25-9.4-35.9c-0.5-0.8-1.3-1.7-2.1-2C-509.1,232.8-513.7,231.1-519.1,231z M-593.1,306.4c12.3,8.4,26,12.1,41,12.4
		c-2.8-4-1.6-8.8-3.6-12.9C-568.2,307.4-580.6,307.6-593.1,306.4z M-611.1,289.1c0.7,2.8,2.8,4.5,4.3,6.5c2.6,3.3,5.9,5.1,10.2,5.5
		c3.8,0.4,7.6,1.2,11.3,1.5c9.6,0.8,19.2,0.5,28.4-1c0.8-1.1,0.6-1.9,0.5-2.7c-0.1-0.6-0.4-1.2-0.6-2.2
		C-575.6,298.3-593.9,298.3-611.1,289.1z M-628.6,265.2c-6.6,11.5-0.4,25.8,12,28.4C-622.8,285.3-626.8,276-628.6,265.2z
		 M-486.2,266.3c5.7-8,3.7-17.8-5.4-24.4C-488.6,250.1-486.1,257.8-486.2,266.3z M-621.8,263.9c1.8-5.7,5.3-9.4,8-13.8
		c-1.7,0.8-3.1,1.9-4.6,2.8C-622.1,255.4-623.7,258.5-621.8,263.9z"/>
</g>
</svg>
