<?xml version="1.0" encoding="utf-8"?>
<!-- Generator: Adobe Illustrator 19.0.0, SVG Export Plug-In . SVG Version: 6.00 Build 0)  -->
<svg version="1.1" id="Layer_1" xmlns="http://www.w3.org/2000/svg" xmlns:xlink="http://www.w3.org/1999/xlink" x="0px" y="0px"
	 viewBox="0 0 90.1 77.7" style="enable-background:new 0 0 90.1 77.7;" xml:space="preserve">
<style type="text/css">
	.st0{fill:#B39DDA;}
	.st1{fill:#7E57C1;}
	.st2{fill:#FEFEFE;}
	.st3{fill:#F4C500;}
</style>
<g>
	<path class="st0" d="M0,56.3c0-0.3,0-0.5,0-0.8c0-13.7,0-27.5,0-41.2c0-2,1.6-3.6,3.6-3.6c16.1,0,32.2,0,48.3,0
		c11.6,0,23.1,0,34.7,0c1.8,0,3,0.9,3.5,2.5c0.1,0.2,0.1,0.5,0.1,0.7c0,14,0,28,0,42c0,0.1,0,0.3,0,0.4c-0.6,1.8-1.8,2.5-3.6,2.5
		c-10.6-0.1-21.3,0-31.9,0c-0.2,0-0.4,0-0.6,0c-0.4,0-0.5,0.1-0.5,0.6c0,2.9,0,5.8,0,8.7c-0.2,0-0.4,0.1-0.6,0.1
		c-5.2,0-10.4,0-15.5,0c-0.2,0-0.4,0-0.6-0.1c0-2.7,0-5.4,0-8c0-1.2,0-1.2-1.1-1.2c-10.7,0-21.3,0-32,0C1.7,58.9,0.5,58,0,56.3z
		 M36.9,34.8c0,7.7,0,15.5,0,23.2c0,0.5,0,0.8,0.7,0.8c5,0,10,0,15,0c0.6,0,0.7-0.2,0.7-0.7c0-1.7,0-3.5,0-5.2c0-13.7,0-27.4,0-41.2
		c0-0.7-0.2-0.8-0.8-0.8c-4.9,0-9.8,0-14.6,0c-0.8,0-0.9,0.3-0.9,1C36.9,19.5,36.9,27.2,36.9,34.8z M53.4,34.9c0,3.7,0,7.5,0,11.2
		c0,0.3-0.1,0.7,0.3,0.9c1.8,1,3.7,1.6,5.6,1.8c3.7,0.3,7.1-0.7,10.1-3.2c4.2-3.5,5.7-8,4.8-13.3c-0.9-4.9-3.9-8.4-8.5-10.3
		c-4-1.6-8-1.3-11.9,0.8c-0.4,0.2-0.4,0.5-0.4,0.9C53.4,27.4,53.4,31.1,53.4,34.9z M23.7,48.4c2.7,0,5.4,0,8.1,0
		c1.6,0,1.6,0,1.6-1.6c0-1.3-0.1-1.4-1.4-1.4c-3.7,0-7.3,0-11,0c-0.9,0-1.1-0.3-0.8-1.2c0.5-1.4,0.7-2.8,0.5-4.2
		c-0.1-0.8-0.1-1.6-0.1-2.4c0-0.7,0.3-0.9,0.9-0.9c1,0,1.9,0,2.9,0c2.3,0,2,0.2,2.1-2.1c0-0.7-0.3-0.9-0.9-0.9c-1.4,0-2.7,0-4.1,0
		c-0.7,0-1-0.3-1-1c0-0.8,0-1.5-0.1-2.3c-0.1-1.5-0.2-2.9,0.5-4.3c0.9-1.9,2.4-2.8,4.6-2.6c1.8,0.1,3.2,1.3,3.7,2.8
		c0.4,1.6,0.4,1.6,2.1,1.6c0.3,0,0.6,0,0.9,0c0.5,0,0.8-0.3,0.8-0.8c-0.2-1.6-0.7-3-1.8-4.3c-2.4-2.7-7.5-2.9-10.4-1.2
		c-2.7,1.6-3.9,4-3.9,7.1c0,1.3,0,2.6,0.1,3.9c0.1,0.9-0.2,1.1-1,1.1c-0.4,0-0.8,0-1.3,0c-0.4,0-0.7,0.2-0.7,0.6
		c0,2.3-0.4,2.4,2.1,2.3c0,0,0.1,0,0.1,0c0.7-0.1,1,0.3,1,1c0,1.5,0,2.9,0,4.4c0,0.9-0.3,1.7-0.7,2.5c-0.3,0.6-0.7,0.9-1.4,0.9
		c-0.9,0-1.1,0.2-1.1,1.1c0,0.3,0,0.5,0,0.8c0,0.9,0.1,1.1,1,1.1C17.8,48.4,20.7,48.4,23.7,48.4z M65.9,14.7c-3.9,0-7.8,0-11.7,0
		c-0.7,0-0.8,0.2-0.8,0.8c0,0.6,0.2,0.8,0.8,0.8c3.5,0,7,0,10.6,0c3.8,0,7.6,0,11.4,0c0.4,0,0.8,0,0.9,0.6C78,20.5,80.3,23,84,24
		c0.7,0.2,0.8,0.4,0.8,1.1c0,6.5,0,13,0,19.5c0,0.9-0.3,1.2-1.1,1.4c-3.5,1-5.7,3.4-6.6,6.8c-0.2,0.7-0.4,0.8-1,0.8
		c-4.8,0-9.7,0-14.5,0c-2.5,0-5,0-7.5,0c-0.2,0-0.5-0.1-0.7,0.2c-0.3,0.8,0.1,1.4,0.9,1.4c7.6,0,15.3,0,22.9,0
		c0.9,0,1.1-0.3,1.2-1.1c0.5-3.8,3.3-6.5,7.1-6.9c0.8-0.1,0.8-0.4,0.8-1c0-4.6,0-9.2,0-13.8c0-2.9,0-5.9,0-8.8c0-0.4,0-0.7-0.5-0.7
		c-4.2-0.4-6.9-3.1-7.5-7.3c-0.1-0.6-0.3-0.7-0.8-0.7C73.7,14.7,69.8,14.7,65.9,14.7z M24.2,55.1c3.9,0,7.9,0,11.8,0
		c0.5,0,0.7-0.1,0.8-0.7c0-0.7-0.2-0.9-0.9-0.9c-7.3,0-14.6,0-22,0c-0.4,0-0.7,0-0.9-0.5c-1.1-3.6-3.5-5.8-7.1-6.8
		c-0.3-0.1-0.5-0.2-0.5-0.6c0-0.7-0.1-1.3-0.1-2c0-5.6,0-11.2,0-16.8c0-0.6,0.1-1.1,0.1-1.6c0-0.5,0.2-0.6,0.6-0.7
		c3.9-1.1,6.3-3.5,7.2-7.5c0.1-0.6,0.3-0.8,0.9-0.7c4.6,0,9.3,0,13.9,0c2.7,0,5.4,0,8,0c0.2,0,0.5,0.1,0.7-0.2
		c0.3-0.7-0.1-1.4-0.9-1.4c-7.7,0-15.4,0-23.2,0c-0.7,0-0.9,0.1-0.9,0.9c-0.1,3.8-3.3,7.4-7.1,7.6c-0.7,0.1-0.9,0.3-0.9,1
		c0,7.3,0,14.6,0,22c0,1.4,0,1.4,1.3,1.5c3.2,0.4,6.1,3.3,6.5,6.6c0.1,0.7,0.3,0.9,1,0.9C16.5,55,20.3,55.1,24.2,55.1z"/>
	<path class="st1" d="M53.4,68c0-2.9,0-5.8,0-8.7c0-0.4,0.1-0.6,0.5-0.6c0.2,0,0.4,0,0.6,0c10.6,0,21.3,0,31.9,0
		c1.8,0,3-0.8,3.6-2.5c0,2.9,0,5.7,0,8.6c0,1.5-1.1,2.7-2.7,3.1c-11.1,0-22.2,0-33.3,0c-0.2,0-0.3,0.1-0.5,0.1
		C53.6,68.1,53.5,68.1,53.4,68z"/>
	<path class="st1" d="M0,56.3c0.5,1.6,1.7,2.5,3.6,2.5c10.7-0.1,21.3,0,32,0c1.1,0,1.1,0,1.1,1.2c0,2.7,0,5.4,0,8
		c-0.1,0-0.2,0-0.3,0c-0.3-0.2-0.6-0.1-0.9-0.1C25,68,14.5,68,4,68c-0.4,0-0.8,0-1.2,0C1.1,67.7,0,66.5,0,64.8C0,62,0,59.2,0,56.3z"
		/>
	<path class="st0" d="M53.7,68.1c0.2,0,0.3-0.1,0.5-0.1c11.1,0,22.2,0,33.3,0c-0.3,0.2-0.6,0.1-0.8,0.1c-10.8,0-21.5,0-32.3,0
		C54.1,68.1,53.9,68.1,53.7,68.1z"/>
	<path class="st0" d="M2.8,68c0.4,0,0.8,0,1.2,0c10.5,0,21,0,31.5,0c0.3,0,0.6-0.1,0.9,0.1c-0.3,0-0.6,0.1-0.9,0.1
		c-10.5,0-21,0-31.6,0C3.5,68.1,3.1,68.2,2.8,68z"/>
	<path class="st2" d="M36.9,34.8c0-7.6,0-15.3,0-22.9c0-0.7,0.1-1,0.9-1c4.9,0,9.8,0,14.6,0c0.6,0,0.8,0.2,0.8,0.8
		c0,13.7,0,27.4,0,41.2c0,1.7,0,3.5,0,5.2c0,0.5-0.1,0.7-0.7,0.7c-5,0-10,0-15,0c-0.7,0-0.7-0.3-0.7-0.8
		C36.9,50.3,36.9,42.5,36.9,34.8z"/>
	<path class="st1" d="M53.4,34.9c0-3.7,0-7.5,0-11.2c0-0.4,0-0.7,0.4-0.9c3.9-2,7.8-2.4,11.9-0.8c4.6,1.9,7.6,5.4,8.5,10.3
		c0.9,5.3-0.6,9.8-4.8,13.3c-2.9,2.5-6.3,3.4-10.1,3.2c-2-0.1-3.9-0.8-5.6-1.8c-0.4-0.2-0.3-0.6-0.3-0.9
		C53.4,42.3,53.4,38.6,53.4,34.9z"/>
	<path class="st3" d="M23.7,48.4c-2.9,0-5.8,0-8.7,0c-0.9,0-1-0.1-1-1.1c0-0.3,0-0.5,0-0.8c0-0.9,0.2-1.2,1.1-1.1
		c0.7,0,1.1-0.3,1.4-0.9c0.4-0.8,0.6-1.6,0.7-2.5c0-1.5,0-2.9,0-4.4c0-0.7-0.3-1.1-1-1c0,0-0.1,0-0.1,0c-2.4,0-2,0-2.1-2.3
		c0-0.5,0.2-0.7,0.7-0.6c0.4,0,0.8,0,1.3,0c0.8,0,1.1-0.2,1-1.1c-0.1-1.3-0.1-2.6-0.1-3.9c0-3.1,1.2-5.6,3.9-7.1
		c3-1.7,8-1.5,10.4,1.2c1.1,1.2,1.6,2.7,1.8,4.3c0,0.5-0.2,0.8-0.8,0.8c-0.3,0-0.6,0-0.9,0c-1.6,0-1.6,0-2.1-1.6
		c-0.5-1.6-1.9-2.7-3.7-2.8c-2.1-0.2-3.7,0.7-4.6,2.6c-0.6,1.4-0.6,2.9-0.5,4.3c0.1,0.8,0.1,1.5,0.1,2.3c0,0.7,0.3,1,1,1
		c1.4,0,2.7,0,4.1,0c0.7,0,0.9,0.2,0.9,0.9c0,2.3,0.2,2.1-2.1,2.1c-1,0-1.9,0-2.9,0c-0.6,0-0.9,0.2-0.9,0.9c0.1,0.8,0,1.6,0.1,2.4
		c0.1,1.4,0,2.9-0.5,4.2c-0.3,0.9-0.1,1.2,0.8,1.2c3.7,0,7.3,0,11,0c1.3,0,1.4,0.1,1.4,1.4c0,1.6,0,1.6-1.6,1.6
		C29.1,48.4,26.4,48.4,23.7,48.4z"/>
	<path class="st1" d="M65.9,14.7c3.9,0,7.8,0,11.7,0c0.5,0,0.7,0.1,0.8,0.7c0.6,4.2,3.3,6.9,7.5,7.3c0.6,0.1,0.5,0.4,0.5,0.7
		c0,2.9,0,5.9,0,8.8c0,4.6,0,9.2,0,13.8c0,0.6,0,0.9-0.8,1c-3.8,0.4-6.5,3.1-7.1,6.9c-0.1,0.8-0.4,1.1-1.2,1.1c-7.6,0-15.3,0-22.9,0
		c-0.8,0-1.2-0.6-0.9-1.4c0.1-0.3,0.4-0.2,0.7-0.2c2.5,0,5,0,7.5,0c4.8,0,9.7,0,14.5,0c0.6,0,0.8-0.2,1-0.8c1-3.4,3.1-5.8,6.6-6.8
		c0.8-0.2,1.1-0.5,1.1-1.4c0-6.5,0-13,0-19.5c0-0.6-0.2-0.9-0.8-1.1c-3.7-1-6-3.4-6.9-7.1c-0.2-0.6-0.5-0.6-0.9-0.6
		c-3.8,0-7.6,0-11.4,0c-3.5,0-7,0-10.6,0c-0.6,0-0.8-0.2-0.8-0.8c0-0.6,0.1-0.8,0.8-0.8C58.1,14.7,62,14.7,65.9,14.7z"/>
	<path class="st1" d="M24.2,55.1c-3.9,0-7.7,0-11.6,0c-0.7,0-0.9-0.2-1-0.9c-0.4-3.2-3.3-6.1-6.5-6.6c-1.3-0.2-1.3-0.2-1.3-1.5
		c0-7.3,0-14.6,0-22c0-0.7,0.1-0.9,0.9-1c3.8-0.3,7.1-3.8,7.1-7.6c0-0.7,0.2-0.9,0.9-0.9c7.7,0,15.4,0,23.2,0c0.8,0,1.2,0.6,0.9,1.4
		c-0.2,0.3-0.4,0.2-0.7,0.2c-2.7,0-5.4,0-8,0c-4.6,0-9.3,0-13.9,0c-0.6,0-0.8,0.2-0.9,0.7c-0.9,4-3.3,6.5-7.2,7.5
		c-0.4,0.1-0.6,0.2-0.6,0.7c0,0.5-0.1,1.1-0.1,1.6c0,5.6,0,11.2,0,16.8c0,0.7,0.1,1.3,0.1,2c0,0.4,0.2,0.5,0.5,0.6
		c3.6,0.9,6,3.2,7.1,6.8c0.2,0.5,0.5,0.5,0.9,0.5c7.3,0,14.6,0,22,0c0.7,0,0.9,0.2,0.9,0.9c0,0.6-0.2,0.7-0.8,0.7
		C32.1,55,28.1,55.1,24.2,55.1z"/>
</g>
</svg>
