<?xml version="1.0" encoding="utf-8"?>
<!-- Generator: Adobe Illustrator 19.0.0, SVG Export Plug-In . SVG Version: 6.00 Build 0)  -->
<svg version="1.1" id="Layer_1" xmlns="http://www.w3.org/2000/svg" xmlns:xlink="http://www.w3.org/1999/xlink" x="0px" y="0px"
	 viewBox="-339 -200 880 880" style="enable-background:new -339 -200 880 880;" xml:space="preserve">
<style type="text/css">
	.st0{fill:#FFFFFF;}
</style>
<g>
	<path d="M425.3,108.4c1-0.6,1.7-1.1,2.5-1.4c14.2-5.8,28.3-11.6,43.3-17.7c22.5,54.5,32.6,110.9,29.8,169.4
		c-4.9,99.9-41.8,186.6-111,258.7c-142.4,148.4-369.5,162.3-528,42.9c-166.4-125.2-206-349.6-105.2-520.5
		c55-93.4,135.5-155.3,240.3-183.7c104.5-28.4,204.7-14.7,300.5,36.8c12.1-16.7,24.3-33.5,37.1-51.1
		c22.3,58.5,44.2,116.1,66.5,174.7c-58.5-8.6-115.9-17-174.5-25.6c13.9-19.2,27.2-37.7,40.6-56.3c-90.9-54-251.8-70.5-381.9,32.2
		c-138.8,109.6-174.2,303.1-83.7,453.9c89.8,149.7,278.3,210.9,437.5,141.5c87.1-37.9,149.8-101,185.9-188.9
		C461.2,285.6,459.7,197,425.3,108.4z"/>
</g>
<g>
	<path d="M100.9,430.8c-72.9,0-145.9,0-218.8,0c-2.6,0-5.3-0.2-7.8-0.9c-7.7-2.3-13-9.4-13.3-17.7c-0.1-1.5,0-3.1,0-4.6
		c0-100.5,0-201,0-301.5c0-5.5,1.3-10.4,5-14.5c3.7-4.1,8.3-6.1,13.7-6.4c0.7,0,1.4,0,2.1,0c146.3,0,292.6,0,438.8,0
		c10.9,0,18.8,6.6,20.2,17c0.2,1.3,0.2,2.7,0.2,4c0,101.2,0,202.5,0,303.7c0,13-7.9,21-20.7,21C247.2,430.8,174.1,430.8,100.9,430.8
		z M101.5,275.9C158,225.3,214.3,175,271,124.3c-113.6,0-226.4,0-339.8,0C-11.8,175.1,44.7,225.4,101.5,275.9z M52.3,283.8
		c-40.4,36-80.5,71.7-121.2,107.9c113.6,0,226.4,0,340,0c-40.6-36.3-80.6-72-120.7-107.9c-11.8,10.5-23.4,20.8-34.9,31.2
		c-9.1,8.2-18.9,8.3-28,0.1C75.9,304.7,64.3,294.4,52.3,283.8z M-100.7,147.5c0,73.9,0,147.1,0,220.9c41.6-37,82.7-73.6,124.1-110.5
		C-18.1,221.1-59.2,184.5-100.7,147.5z M302.8,147.6c-41.4,37-82.3,73.6-123.4,110.4c41.2,36.9,82.1,73.4,123.4,110.3
		C302.8,294.5,302.8,221.4,302.8,147.6z"/>
	<path class="st0" d="M101.5,275.9C44.7,225.4-11.8,175.1-68.8,124.3c113.4,0,226.2,0,339.8,0C214.3,175,158,225.3,101.5,275.9z"/>
	<path class="st0" d="M52.3,283.8c11.9,10.6,23.6,21,35.2,31.4c9.1,8.1,18.8,8.1,28-0.1c11.5-10.4,23.1-20.7,34.9-31.2
		c40.1,35.8,80.1,71.6,120.7,107.9c-113.6,0-226.4,0-340,0C-28.2,355.5,11.9,319.7,52.3,283.8z"/>
	<path class="st0" d="M-100.7,147.5c41.6,37,82.6,73.6,124.1,110.5c-41.4,36.8-82.5,73.5-124.1,110.5
		C-100.7,294.6-100.7,221.4-100.7,147.5z"/>
	<path class="st0" d="M302.8,147.6c0,73.8,0,146.9,0,220.7c-41.3-36.9-82.2-73.5-123.4-110.3C220.5,221.1,261.4,184.6,302.8,147.6z"
		/>
</g>
</svg>
