<?xml version="1.0" encoding="utf-8"?>
<!-- Generator: Adobe Illustrator 19.0.0, SVG Export Plug-In . SVG Version: 6.00 Build 0)  -->
<svg version="1.1" id="Layer_1" xmlns="http://www.w3.org/2000/svg" xmlns:xlink="http://www.w3.org/1999/xlink" x="0px" y="0px"
	 viewBox="0 0 880 920" style="enable-background:new 0 0 880 920;" xml:space="preserve">
<style type="text/css">
	.st0{fill:#FFFFFF;}
</style>
<g>
	<path class="st0" d="M764.3,308.4c34.4,88.7,35.9,177.2-0.2,265c-36.2,87.9-98.8,150.9-185.9,188.9
		c-159.2,69.4-347.7,8.1-437.5-141.5c-90.5-150.8-55-344.3,83.7-453.8c130-102.7,291-86.2,381.9-32.2
		c-13.4,18.5-26.8,37.1-40.6,56.3c58.6,8.6,116,17,174.5,25.6c-22.3-58.6-44.2-116.2-66.5-174.7c-12.8,17.7-25,34.4-37.1,51.1
		c-95.8-51.5-196-65.1-300.5-36.8C231.2,84.5,150.7,146.4,95.7,239.8C-5.1,410.7,34.5,635.1,200.7,760.3
		c158.5,119.4,385.6,105.5,528-42.9c69.2-72.1,106.1-158.9,111-258.7c2.9-58.5-7.2-114.9-29.8-169.4c-14.9,6.1-29.1,11.9-43.3,17.7
		C766,307.3,765.3,307.8,764.3,308.4z M340.2,390.8c-3.2,0.7-5.8,1.1-8.4,1.8c-23.6,6.2-40.4,28.3-40.8,54.3c-0.3,18-0.1,36-0.1,54
		c0,27.5-0.1,55,0,82.5c0.2,32,23.4,57.1,53.4,57.2c64.3,0.2,128.7,0.1,193,0c13.4,0,25.1-4.8,34.8-14.1c12.5-12,18.2-26.8,18.3-44
		c0.1-33.8,0.1-67.7,0-101.5c0-12.5,0.4-25-0.4-37.5c-1.7-26.5-20.8-48.7-45.8-52c-3-0.4-3.8-1.6-3.8-4.5c0.1-12,0.6-24-0.1-36
		c-0.8-11.9-1.8-24-4.6-35.5c-6.5-26.3-20-48.2-44.3-62.1c-17.2-9.8-36-12.7-55.5-12.1c-37.4,1.3-65.9,17.3-82.7,51.5
		c-8.6,17.6-12.7,36.4-13,56C340.1,362.7,340.2,376.5,340.2,390.8z"/>
	<path d="M764.3,308.4c1-0.6,1.7-1.1,2.5-1.4c14.2-5.8,28.3-11.6,43.3-17.7c22.5,54.5,32.6,110.9,29.8,169.4
		c-4.9,99.9-41.8,186.6-111,258.7c-142.4,148.4-369.5,162.3-528,42.9C34.5,635.1-5.1,410.7,95.7,239.8
		c55-93.4,135.5-155.3,240.3-183.7c104.5-28.4,204.7-14.7,300.5,36.8c12.1-16.7,24.3-33.5,37.1-51.1
		c22.3,58.5,44.2,116.1,66.5,174.7c-58.5-8.6-115.9-17-174.5-25.6c13.9-19.2,27.2-37.7,40.6-56.3c-90.9-54-251.8-70.5-381.9,32.2
		C85.5,276.4,50.1,469.9,140.6,620.7c89.8,149.7,278.3,210.9,437.5,141.5c87.1-37.9,149.8-101,185.9-188.9
		C800.2,485.6,798.7,397,764.3,308.4z"/>
	<path d="M340.2,390.8c0-14.2-0.2-28,0-41.9c0.3-19.6,4.4-38.4,13-56c16.8-34.3,45.3-50.2,82.7-51.5c19.4-0.7,38.3,2.3,55.5,12.1
		c24.3,13.9,37.7,35.8,44.3,62.1c2.9,11.5,3.9,23.6,4.6,35.5c0.8,12,0.2,24,0.1,36c0,2.9,0.8,4.1,3.8,4.5c25,3.3,44.1,25.5,45.8,52
		c0.8,12.5,0.3,25,0.4,37.5c0,33.8,0,67.7,0,101.5c0,17.1-5.8,32-18.3,44c-9.7,9.3-21.4,14.1-34.8,14.1c-64.3,0.1-128.7,0.2-193,0
		c-29.9-0.1-53.2-25.2-53.4-57.2c-0.2-27.5,0-55,0-82.5c0-18-0.2-36,0.1-54c0.4-26,17.2-48.1,40.8-54.3
		C334.4,391.9,337.1,391.4,340.2,390.8z M461.6,589.9c0-2,0-3.8,0-5.6c0-15.8,0.2-31.7-0.1-47.5c-0.1-5.8,1-9.7,6.5-13
		c5.2-3,9.6-7.7,13.6-12.3c7.6-8.9,9.9-19.4,7.7-30.9c-6.6-34.6-48-50.9-77.9-30.7c-15.5,10.5-23.9,29-20.4,45.7
		c2.8,13.5,11.8,22.5,23,29.5c3.8,2.4,4.9,5,4.9,9.2c-0.2,16.7-0.1,33.3-0.1,50c0,1.8,0.2,3.5,0.3,5.5
		C433.3,589.9,447.1,589.9,461.6,589.9z M391.6,390.7c32.7,0,65.5,0,98.5,0c0.2-1.1,0.4-2,0.4-2.8c0-16.7,0.4-33.3-0.3-50
		c-1.3-28.6-17.9-44.9-46.5-46.5c-28.8-1.7-48.6,12.6-51.8,40.4c-2.2,19.2-0.7,38.9-0.8,58.3C391,390.2,391.3,390.3,391.6,390.7z"/>
</g>
</svg>
