<?xml version="1.0" encoding="utf-8"?>
<!-- Generator: Adobe Illustrator 19.0.0, SVG Export Plug-In . SVG Version: 6.00 Build 0)  -->
<svg version="1.1" id="Layer_1" xmlns="http://www.w3.org/2000/svg" xmlns:xlink="http://www.w3.org/1999/xlink" x="0px" y="0px"
	 viewBox="0 0 186.5 128.4" style="enable-background:new 0 0 186.5 128.4;" xml:space="preserve">
<style type="text/css">
	.st0{fill:#FFFFFF;}
</style>
<g>
	<path class="st0" d="M136.8,52.7c-9.4,6.6-18.5,13-28,19.7c6.3,9.2,12.4,18,18.4,26.9c5.4,8,3.5,12.8-5.9,15
		c-14.2,3.4-28.5,6.8-42.7,10.2c-5.9,1.4-10-0.5-11.2-5.2c-1.2-4.6,1.7-8.5,7.4-9.9c10.3-2.5,20.7-4.9,32-7.6
		c-6-5.7-11.5-10.9-17-16.2c-2.8-2.6-5.6-5.2-8.3-7.9c-6.5-6.4-6.1-14.3,0.6-20.5c11.2-10.4,22.3-20.9,33.6-31.6
		c-4-6.3-7.8-11.9-16.7-10.6c-5.7,0.8-11.6,0.2-17.5,0.1c-5-0.1-8.2-3-8.3-7.4c-0.1-4.6,3.1-7.7,8.4-7.8c9.5-0.1,19-0.3,28.5,0.1
		c2.6,0.1,5.9,1.6,7.6,3.6c9.7,11,19.3,22,28.3,33.7c3.6,4.7,5.6,10.8,8,16.5c1.1,2.8,2.6,3.7,5.5,3.6c6-0.2,12-0.1,18,0
		c5.8,0.1,9,3,9,7.7c0,4.7-3.3,7.6-9.1,7.7c-8.5,0.1-17,0-25.5,0c-4.6,0-7.5-1.9-9.2-6.2C140.9,62.3,138.9,57.8,136.8,52.7z"/>
	<path class="st0" d="M66.2,70.9c3.4,5.6,6.7,11.1,10.6,17.5c0.1,0-1,0.4-1.9,1.1c-15.5,12-31,24-46.6,36.1
		c-5.1,3.9-10.1,3.8-13.2-0.3c-3.1-4-2.4-8.5,2.4-12.6C33.8,98.6,50.3,84.5,66.2,70.9z"/>
	<path class="st0" d="M147.1,20.7C147.1,11.8,154,5,163,5c8.8,0,16,7.1,16,15.8c0.1,8.8-7.5,16.3-16.3,16.1
		C153.9,36.7,147,29.6,147.1,20.7z"/>
	<path class="st0" d="M24.3,65.3c6.1,0,12.3,0,18.4,0c3.5,0,6.1,1.3,6.1,5c0,3.7-2.8,4.9-6.2,4.9c-12.1,0-24.2,0-36.4,0
		c-3.3,0-6.2-0.8-6.3-4.8c-0.1-4.2,2.8-5.1,6.4-5.1C12.4,65.3,18.4,65.3,24.3,65.3z"/>
	<path class="st0" d="M42.9,47.2c6,0,11.9,0.1,17.9,0c3.4,0,6.2,1,6.2,4.8c0,3.8-2.8,4.9-6.2,4.9c-12.3,0-24.6,0-36.8,0
		c-3.4,0-6-1.2-5.9-5.1c0.1-3.6,2.7-4.6,5.9-4.5C30.3,47.2,36.6,47.2,42.9,47.2z"/>
	<path class="st0" d="M60.6,38.6c-6,0-12,0-18,0c-3.3,0-6.3-0.7-6.3-4.7c-0.1-4.3,3-4.9,6.6-4.9c11.8,0.1,23.7,0,35.5,0
		c3.4,0,6.7,0.3,6.8,4.6c0.1,4.7-3.5,4.9-7,4.9C72.3,38.6,66.4,38.6,60.6,38.6z"/>
</g>
</svg>
