<?xml version="1.0" encoding="utf-8"?>
<!-- Generator: Adobe Illustrator 19.0.0, SVG Export Plug-In . SVG Version: 6.00 Build 0)  -->
<svg version="1.1" id="Layer_1" xmlns="http://www.w3.org/2000/svg" xmlns:xlink="http://www.w3.org/1999/xlink" x="0px" y="0px"
	 viewBox="0 0 167.7 130" style="enable-background:new 0 0 167.7 130;" xml:space="preserve">
<style type="text/css">
	.st0{fill:#FFFFFF;}
</style>
<g>
	<path class="st0" d="M96.6,39.4c-4,1-7.9,2.2-11.9,3.1c-5.2,1.2-10.3,2.5-15.6,3.4c-4,0.7-6.8-1.3-7.8-5.3c-1-4,0-7.7,3.7-9.4
		c13.1-5.9,26.9-9.1,41.2-7.3c4.6,0.6,9.3,3.7,13,6.9c8.1,6.9,17.2,7.3,26.8,5.6c3.6-0.7,7.1-1.8,10.7-2.6c4.9-1.1,9.6,1.7,10.8,6.3
		c1.1,4.1-1.5,8.6-6.3,9.9c-10,2.7-20.1,4.7-30.6,2.5c-7.9-1.6-7.9-1.4-11.8,5.3c-5.3,9-5.3,9.1,2.8,15.3c9,6.8,14.1,15.8,15.2,27
		c0.5,4.8,1.6,9.6,1.7,14.4c0.1,3.4-0.5,7-1.6,10.2c-1.6,4.3-5.3,5.8-9.7,5.3c-4.2-0.5-5.8-3.6-6.3-7.3c-0.8-6.6-1.4-13.2-2.3-19.8
		c-1.6-10.9-10.8-16.7-18.9-19.2c-1.1-0.4-3.1,0.8-4.1,1.8c-4.3,4.2-8.6,8.4-12.4,13c-4.5,5.4-10.2,6.6-16.2,4.2
		c-8.9-3.6-17.6-7.9-26.1-12.3c-2.4-1.2-4.3-3.6-6-5.8c-2.6-3.4-2.7-7.2,0.1-10.5c3.1-3.6,7.1-4.1,11.3-2.1
		c6.9,3.3,13.7,6.8,20.7,9.9c1.3,0.6,4.2,0.2,4.9-0.7c8.8-13.1,17.4-26.3,26-39.5C97.5,40.7,97,40.1,96.6,39.4z M98.9,27.5
		c-2.8,0.2-5,0.1-7.1,0.6c-7.9,1.9-15.8,3.8-23.5,6.3c-1.4,0.5-2,3.5-3,5.3c1.6,0.7,3.3,2.2,4.9,2.1c3.8-0.4,7.5-1.6,11.2-2.5
		c4.8-1.1,9.6-2.7,14.6-3.3c6.2-0.7,7.9,1.9,4.6,7.3c-7.9,13.1-16,26.1-24.3,38.9c-3.5,5.4-5.4,5.7-11.2,2.9
		c-6.6-3.1-13.1-6.6-19.9-9.3c-1.9-0.8-4.7,0.6-7.1,0.9c0.4,2.2,0.5,4.7,1.4,6.7c0.6,1.4,2.2,2.6,3.6,3.3
		c8.3,4.1,16.7,8.3,25.2,11.9c4.4,1.8,8.6,1,12.1-3.1c4.1-4.8,8.5-9.4,13.1-13.7c1.6-1.5,4.7-3,6.5-2.5c9.6,2.7,20.7,9.6,22.7,22.6
		c0.9,6.2,1.2,12.6,2.3,18.8c0.3,1.9,2.3,3.4,3.5,5.1c1.8-1.4,4.5-2.5,5.2-4.4c1-2.6,0.9-5.8,0.7-8.8c-0.1-3.1-1.1-6.2-1.3-9.4
		c-0.7-14.1-7.7-24.1-19.8-30.9c-3.9-2.2-4.6-5.4-2.4-9.3c2.2-3.7,4.4-7.4,6.5-11.2c2-3.5,4.8-4.8,8.8-4.2c2.1,0.4,4.3,1.1,6.4,0.9
		c9.1-0.7,18.1-1.4,27.1-2.7c1.4-0.2,2.4-3.2,3.6-4.9c-2-1.1-3.8-2.6-5.9-3.2c-1.4-0.4-3.2,0.7-4.8,1.1c-14.1,4-27.2,3.7-38.7-7
		C109.7,27.8,104.2,26.5,98.9,27.5z"/>
	<path class="st0" d="M127.7,0c8,0.1,14.5,6.8,14.4,14.8c-0.1,8.1-6.7,14.6-14.7,14.6c-8.3,0-14.9-6.9-14.7-15.1
		C113,6.3,119.7-0.1,127.7,0z M138.1,15c0.1-6-4.6-10.9-10.6-10.9c-5.6,0-10.5,4.7-10.6,10.4c-0.2,5.7,4.4,10.6,10.2,10.8
		C133.1,25.5,137.9,21,138.1,15z"/>
	<path class="st0" d="M26.7,46.5c-7.6,0-15.3,0.1-22.9-0.1c-1.3,0-2.5-1.4-3.8-2.1c1.2-0.6,2.4-1.8,3.6-1.8
		c15.4-0.1,30.9-0.1,46.3,0c1.3,0,2.5,1.4,3.8,2.1c-1.3,0.6-2.7,1.8-4.1,1.8C42,46.6,34.4,46.5,26.7,46.5z"/>
	<path class="st0" d="M57.2,8.8c7.3,0,14.6-0.1,21.9,0.1c1.4,0,2.8,1.3,4.3,2c-1.5,0.7-3,1.9-4.5,1.9c-14.8,0.1-29.6,0.2-44.4,0
		c-1.6,0-3.2-1.4-4.7-2.1c1.7-0.6,3.3-1.8,5-1.8C42.2,8.7,49.7,8.8,57.2,8.8z"/>
	<path class="st0" d="M44.5,63.3c-7.5,0-15,0.1-22.5-0.1c-1.4,0-2.8-1.3-4.2-2c1.3-0.7,2.6-1.9,4-1.9c15.2-0.1,30.3-0.1,45.5,0
		c1.3,0,2.7,1.2,4,1.9c-1.4,0.7-2.8,2-4.3,2C59.5,63.4,52,63.3,44.5,63.3z"/>
	<path class="st0" d="M41.2,29.7c-5.7,0-11.3,0.1-17-0.1c-1.3-0.1-2.5-1.4-3.8-2.1c1.2-0.6,2.3-1.8,3.5-1.8c11.5-0.1,23-0.1,34.5,0
		c1.2,0,2.3,1.1,3.5,1.7c-1.2,0.8-2.5,2.1-3.7,2.2C52.5,29.9,46.8,29.8,41.2,29.7C41.2,29.8,41.2,29.7,41.2,29.7z"/>
</g>
</svg>
