<?xml version="1.0" encoding="utf-8"?>
<!-- Generator: Adobe Illustrator 19.0.0, SVG Export Plug-In . SVG Version: 6.00 Build 0)  -->
<svg version="1.1" id="Layer_1" xmlns="http://www.w3.org/2000/svg" xmlns:xlink="http://www.w3.org/1999/xlink" x="0px" y="0px"
	 viewBox="0 0 409 441" style="enable-background:new 0 0 409 441;" xml:space="preserve">
<g>
	<path d="M322.9,200.3c2-1.8,3.2-2.8,4.3-4c9.2-9.2,18.4-18.4,27.6-27.5c6.7-6.7,11.3-6.8,17.9-0.2c9.1,9,18.2,18.1,27.2,27.2
		c6.5,6.6,6.5,11.4,0,17.9c-24.4,24.4-48.7,48.8-73.2,73.1c-2.9,2.8-3.9,5.6-3.9,9.6c0.2,23.2,0.1,46.3,0.1,69.5
		c0,9.3-3.8,13.1-13,13.1c-73.3,0-146.6,0-219.9,0c-9.2,0-12.9-3.8-12.9-13.2c0-100.3,0-200.6,0-300.9c0-10.3,3.5-13.8,13.8-13.8
		c72.8,0,145.6,0,218.4,0c10.2,0,13.6,3.5,13.6,13.9c0,43,0,86,0,129C322.9,195.7,322.9,197.5,322.9,200.3z M98,72
		c0,95.6,0,190.7,0,285.9c68.2,0,136.1,0,203.8,0c0-15.3,0-30.3,0-46.1c-11,11.1-21.2,21.6-31.9,31.6c-2.6,2.5-6.9,4.2-10.5,4.4
		c-9,0.6-18,0.3-27,0.2c-8.1-0.1-11.8-3.7-11.9-12c-0.1-8.5,0.1-17-0.1-25.5c-0.1-5.2,1.5-9.2,5.3-12.8
		c24.4-24.2,48.6-48.5,72.9-72.7c2.7-2.7,3.8-5.4,3.8-9.1c-0.1-46.2-0.1-92.3-0.1-138.5c0-1.8,0-3.5,0-5.4C233.8,72,166.1,72,98,72z
		 M241,327.8c3.1,0,5.4-0.3,7.7,0.1c6.2,0.9,10.4-1.7,14.7-6.1c37.4-37.7,75-75.2,112.6-112.8c1.4-1.4,2.7-2.8,3.2-3.3
		c-5.7-5.6-10.9-10.9-16.3-16.2c0.5-0.3,0.3-0.2,0.2-0.1c-40.1,40-80.1,80-120.1,120.1c-1,1-1.8,2.5-1.9,3.8
		C240.8,317.8,241,322.5,241,327.8z"/>
	<path d="M200,143.2c-23,0-46,0-68.9,0c-9.5,0-13-3.5-13-12.9c0-8.8-0.1-17.7,0-26.5c0.1-7.7,4-11.8,11.7-11.8
		c46.8,0,93.6,0,140.4,0c7.7,0,11.7,4.1,11.8,11.7c0.1,9.2,0.1,18.3,0,27.5c-0.1,8.1-3.8,11.9-12,11.9
		C246.6,143.3,223.3,143.2,200,143.2z M139.1,112.9c0,3.6,0,6.7,0,9.6c41,0,81.5,0,121.9,0c0-3.5,0-6.5,0-9.6
		C220.1,112.9,179.7,112.9,139.1,112.9z"/>
	<path d="M200.2,153.6c22.6,0,45.3,0,67.9,0c10.5,0,13.8,3.3,13.8,13.7c0,8.5,0,17,0,25.5c-0.1,8-4,12.1-12,12.1
		c-46.6,0-93.3,0-139.9,0c-8,0-12-4-12-12c-0.1-8.8,0-17.7,0-26.5c0-9.1,3.6-12.7,12.7-12.8C153.9,153.5,177.1,153.6,200.2,153.6z
		 M138.9,183.8c40.9,0,81.6,0,122.2,0c0-3.4,0-6.3,0-9.3c-40.9,0-81.5,0-122.2,0C138.9,177.8,138.9,180.7,138.9,183.8z"/>
	<path d="M184.6,266.1c-17.8,0-35.6,0-53.5,0c-9.7,0-13.1-3.5-13.1-13.3c0-8.7-0.1-17.3,0-26c0.1-7.8,4-11.8,11.7-11.8
		c36.6,0,73.3,0,109.9,0c7.5,0,11.4,3.9,11.5,11.4c0.1,9.3,0.1,18.7,0,28c-0.1,8.1-3.7,11.7-12.1,11.8
		C220.9,266.2,202.7,266.1,184.6,266.1z M138.9,245.5c30.6,0,60.9,0,91.6,0c0-3.3,0-6.4,0-9.8c-30.6,0-60.9,0-91.6,0
		C138.9,239.1,138.9,242.1,138.9,245.5z"/>
</g>
</svg>
