<?xml version="1.0" encoding="utf-8"?>
<!-- Generator: Adobe Illustrator 19.0.0, SVG Export Plug-In . SVG Version: 6.00 Build 0)  -->
<svg version="1.1" id="Layer_1" xmlns="http://www.w3.org/2000/svg" xmlns:xlink="http://www.w3.org/1999/xlink" x="0px" y="0px"
	 viewBox="-771 253 16 16" style="enable-background:new -771 253 16 16;" xml:space="preserve">
<style type="text/css">
	.st0{fill:#DC3545;}
</style>
<path class="st0" d="M-755,261c0,4.4-3.6,8-8,8s-8-3.6-8-8s3.6-8,8-8S-755,256.6-755,261z M-765.6,257.6c-0.2-0.2-0.5-0.2-0.7,0
	c-0.2,0.2-0.2,0.5,0,0.7l2.6,2.6l-2.6,2.6c-0.2,0.2-0.2,0.5,0,0.7c0.2,0.2,0.5,0.2,0.7,0l2.6-2.6l2.6,2.6c0.2,0.2,0.5,0.2,0.7,0
	c0.2-0.2,0.2-0.5,0-0.7l-2.6-2.6l2.6-2.6c0.2-0.2,0.2-0.5,0-0.7c-0.2-0.2-0.5-0.2-0.7,0l-2.6,2.6L-765.6,257.6z"/>
</svg>
